<svg xmlns="http://www.w3.org/2000/svg" width="21.031" height="9" viewBox="0 0 21.031 9">
  <metadata><?xpacket begin="﻿" id="W5M0MpCehiHzreSzNTczkc9d"?>
<x:xmpmeta xmlns:x="adobe:ns:meta/" x:xmptk="Adobe XMP Core 5.6-c142 79.160924, 2017/07/13-01:06:39        ">
   <rdf:RDF xmlns:rdf="http://www.w3.org/1999/02/22-rdf-syntax-ns#">
      <rdf:Description rdf:about=""/>
   </rdf:RDF>
</x:xmpmeta>





















<?xpacket end="w"?></metadata>
<defs>
    <style>
      .cls-1 {
        fill: #43b9d4;
        fill-rule: evenodd;
      }
    </style>
  </defs>
  <path id="arrow-long-black" class="cls-1" d="M367.106,873.16a0.406,0.406,0,0,0-.606,0,0.479,0.479,0,0,0,0,.639l3.071,3.274H350.424a0.436,0.436,0,0,0-.424.452,0.441,0.441,0,0,0,.424.458h19.147l-3.071,3.268a0.486,0.486,0,0,0,0,.645,0.406,0.406,0,0,0,.606,0l3.8-4.048a0.465,0.465,0,0,0,0-.64Z" transform="translate(-350 -873.031)"/>
</svg>
