<svg xmlns="http://www.w3.org/2000/svg" width="67" height="57.969" viewBox="0 0 67 57.969">
  <metadata><?xpacket begin="﻿" id="W5M0MpCehiHzreSzNTczkc9d"?>
<x:xmpmeta xmlns:x="adobe:ns:meta/" x:xmptk="Adobe XMP Core 5.6-c142 79.160924, 2017/07/13-01:06:39        ">
   <rdf:RDF xmlns:rdf="http://www.w3.org/1999/02/22-rdf-syntax-ns#">
      <rdf:Description rdf:about=""/>
   </rdf:RDF>
</x:xmpmeta>
                                                                                                    
                                                                                                    
                                                                                                    
                                                                                                    
                                                                                                    
                                                                                                    
                                                                                                    
                                                                                                    
                                                                                                    
                                                                                                    
                                                                                                    
                                                                                                    
                                                                                                    
                                                                                                    
                                                                                                    
                                                                                                    
                                                                                                    
                                                                                                    
                                                                                                    
                                                                                                    
                           
<?xpacket end="w"?></metadata>
<defs>
    <style>
      .cls-1 {
        fill: #32b3d0;
        fill-rule: evenodd;
      }
    </style>
  </defs>
  <path id="box-blue" class="cls-1" d="M785.521,891.441l-9.6-5.585,9.6-5.585a0.831,0.831,0,0,0,.361-1.188,0.716,0.716,0,0,0-.3-0.3l-10.867-6.3-10.926-6.358a0.827,0.827,0,0,0-.9,0L752.5,872.192l-10.446-6.061a0.824,0.824,0,0,0-.9,0l-10.867,6.358-10.806,6.3a0.716,0.716,0,0,0-.3.3,0.86,0.86,0,0,0,.3,1.188l9.606,5.585-9.666,5.585a0.861,0.861,0,0,0-.3,1.188,0.716,0.716,0,0,0,.3.3l10.446,6.061v11.764a0.822,0.822,0,0,0,.42.712L751.9,923.821c0.06,0,.06.059,0.12,0.059a0.059,0.059,0,0,1,.06.06,0.792,0.792,0,0,0,.6,0,0.059,0.059,0,0,0,.06-0.06,0.12,0.12,0,0,0,.12-0.059l21.553-12.358a0.838,0.838,0,0,0,.42-0.712V899.105l10.686-6.179a0.718,0.718,0,0,0,.3-0.3A0.86,0.86,0,0,0,785.521,891.441Zm-22.152-23.587,10.446,6.06,9.6,5.586-9.185,5.346-10.446-6.06-9.606-5.585Zm-9.966,6.833,9.545,5.584,9.606,5.585-9.606,5.585-3.062,1.782L753.4,889.48V874.687h0ZM721.584,879.5l9.606-5.586,10.446-6.06,9.185,5.347-9.605,5.585-10.447,6.06Zm30.018-4.813V889.48l-6.484,3.743-3.062-1.782-9.606-5.585,9.606-5.585ZM731.19,897.739l-9.606-5.585,9.185-5.347,10.447,6.06,9.605,5.585-9.185,5.347-10.386-6Zm20.292,23.943L731.61,910.275V900l9.546,5.584a0.825,0.825,0,0,0,.9,0l9.426-5.465v21.566Zm1.02-24.18-5.643-3.268,5.643-3.268,5.643,3.268Zm20.652,12.773-19.871,11.407v-21.8l9.665,5.644a0.825,0.825,0,0,0,.9,0l9.3-5.406v10.159Zm0.661-12.536-0.3.178L763.369,903.8l-9.186-5.347,9.606-5.585,10.446-6.06,9.185,5.347Z" transform="translate(-719 -866.031)"/>
</svg>
