<svg xmlns="http://www.w3.org/2000/svg" width="16" height="14" viewBox="0 0 16 14">
  <metadata><?xpacket begin="﻿" id="W5M0MpCehiHzreSzNTczkc9d"?>
<x:xmpmeta xmlns:x="adobe:ns:meta/" x:xmptk="Adobe XMP Core 5.6-c142 79.160924, 2017/07/13-01:06:39        ">
   <rdf:RDF xmlns:rdf="http://www.w3.org/1999/02/22-rdf-syntax-ns#">
      <rdf:Description rdf:about=""/>
   </rdf:RDF>
</x:xmpmeta>
                                                                                                    
                                                                                                    
                                                                                                    
                                                                                                    
                                                                                                    
                                                                                                    
                                                                                                    
                                                                                                    
                                                                                                    
                                                                                                    
                                                                                                    
                                                                                                    
                                                                                                    
                                                                                                    
                                                                                                    
                                                                                                    
                                                                                                    
                                                                                                    
                                                                                                    
                                                                                                    
                           
<?xpacket end="w"?></metadata>
<defs>
    <style>
      .cls-1 {
        fill: #43b9d4;
        fill-rule: evenodd;
      }
    </style>
  </defs>
  <path id="calendar" class="cls-1" d="M925,917h14v1H925v-1Zm0,13h14v1H925v-1Zm-1-13h1v14h-1V917Zm15,0h1v14h-1V917Zm-12,6h2v2h-2v-2Zm4,0h2v2h-2v-2Zm4,0h2v2h-2v-2Zm-8,3h2v2h-2v-2Zm4,0h2v2h-2v-2Zm4,0h2v2h-2v-2Zm-8-6h2v2h-2v-2Zm4,0h2v2h-2v-2Zm4,0h2v2h-2v-2Z" transform="translate(-924 -917)"/>
</svg>
