<?xml version="1.0" encoding="utf-8"?>
<!-- Generator: Adobe Illustrator 22.0.1, SVG Export Plug-In . SVG Version: 6.00 Build 0)  -->
<svg version="1.1" id="Слой_1" xmlns="http://www.w3.org/2000/svg" xmlns:xlink="http://www.w3.org/1999/xlink" x="0px" y="0px"
	 viewBox="0 0 16 16" style="enable-background:new 0 0 16 16;" xml:space="preserve">
<style type="text/css">
	.st0{fill:#17363D;}
</style>
<title>cart</title>
<desc>Created with Sketch.</desc>
<g id="Page-1">
	<g id="_x30_1-main" transform="translate(-1840.000000, -33.000000)">
		<g id="cart" transform="translate(1840.000000, 33.000000)">
			<path id="Shape" class="st0" d="M15.5,3.4000001C15.20263,3.123208,14.8057051,2.9788718,14.3999996,3H4.6999998L4.0999999,1.1
				C3.924933,0.4660744,3.3573472,0.0201142,2.7,0H1.1c-0.5522848,0-1,0.4477153-1,1s0.4477153,1,1,1H2.3L5,11
				c0.2215791,0.6301298,0.8331194,1.0378227,1.5,1h6.3000002c0.6573467-0.0201139,1.2249327-0.466074,1.3999996-1.1000004
				l1.6999998-5.9999995C16.055891,4.3645186,15.9018211,3.7867582,15.5,3.4000001z M12.3000002,10h-5.5l-1.5-5h8.3999996
				L12.3000002,10z"/>
			<circle id="Oval" class="st0" cx="6.5" cy="14.5" r="1.5"/>
			<circle id="Oval_1_" class="st0" cx="12.5" cy="14.5" r="1.5"/>
		</g>
	</g>
</g>
</svg>
