<?xml version="1.0" encoding="utf-8"?>
<!-- Generator: Adobe Illustrator 22.0.1, SVG Export Plug-In . SVG Version: 6.00 Build 0)  -->
<svg version="1.1" id="Слой_1" xmlns="http://www.w3.org/2000/svg" xmlns:xlink="http://www.w3.org/1999/xlink" x="0px" y="0px"
	 viewBox="0 0 65.5 34.5" style="enable-background:new 0 0 65.5 34.5;" xml:space="preserve">
<style type="text/css">
	.st0{fill:#17363D;}
</style>
<title>cart</title>
<desc>Created with Sketch.</desc>
<g id="Page-1">
	<g id="_x30_1-main" transform="translate(-1840.000000, -33.000000)">
		<g id="cart" transform="translate(1840.000000, 33.000000)">
			<path id="Shape" class="st0" d="M18.123476,14.6675777c-0.1531372-0.14254-0.357542-0.2168694-0.5664711-0.2059889H12.561758
				l-0.3089848-0.9784508c-0.0901546-0.3264551-0.3824463-0.5561132-0.7209625-0.5664711h-0.8239584
				c-0.2844124,0-0.5149746,0.2305613-0.5149746,0.5149736s0.2305622,0.5149736,0.5149746,0.5149736h0.6179686l1.3904295,4.6347666
				c0.1141071,0.3244991,0.4290352,0.5344505,0.7724609,0.5149727h3.2443361
				c0.3385162-0.0103569,0.6308079-0.240015,0.7209625-0.5664711l0.8754559-3.0898438
				C18.4097462,15.1642799,18.3304043,14.8667488,18.123476,14.6675777z M16.4755611,18.0664063h-2.8323574l-0.7724609-2.5748701
				h4.3257809L16.4755611,18.0664063z"/>
			<circle id="Oval" class="st0" cx="13.4887114" cy="20.3837891" r="0.7724609"/>
			<circle id="Oval_1_" class="st0" cx="16.5785542" cy="20.3837891" r="0.7724609"/>
		</g>
	</g>
</g>
<path class="st0" d="M25.2560539,13.723259c-0.0025482-0.0017939-0.0051308-0.0035877-0.0077133-0.0053453
	c-0.2246094-0.1528606-0.5306187-0.0946722-0.6834793,0.1299372l-1.2300968,1.7872276
	c-0.6901894-4.2416115-4.3897018-7.4547386-8.8154554-7.39221C9.6505775,8.311676,5.7594953,12.3143635,5.8283024,17.183094
	c0.0688429,4.8687325,4.0714941,8.7598152,8.9402256,8.6910076c3.0934505-0.0150318,5.9468651-1.6696663,7.4963894-4.3471184
	c0.1387253-0.2396774,0.0603771-0.5462952-0.1763229-0.6900444c-0.0020809-0.001255-0.0041981-0.0024738-0.0063133-0.0036945
	c-0.2357674-0.1363583-0.5373993-0.055748-0.6737576,0.1800175c-1.385004,2.3748856-3.9218636,3.841074-6.6710625,3.8556385
	c-4.2913332,0.0227089-7.7885857-3.4377022-7.8112946-7.7290707c-0.0227084-4.2913322,3.4377012-7.7885494,7.7290707-7.8112574
	c3.9800148-0.021059,7.2718506,2.9555845,7.747366,6.8108644l-2.3018456-1.3787975
	c-0.0022964-0.001399-0.0046291-0.0027618-0.0069599-0.0040894c-0.2358379-0.1362152-0.5374699-0.0554266-0.6736507,0.1804123
	c-0.1393356,0.2393894-0.0608425,0.5463314,0.1763229,0.6894341l3.0613441,1.8327522
	c0.0892906,0.0709591,0.199749,0.1166267,0.3226547,0.1124306c0.1776848-0.0060997,0.3229771-0.1095963,0.4060249-0.2528439
	l1.9930038-2.8942747C25.5361977,14.1961193,25.4813099,13.8843708,25.2560539,13.723259z"/>
</svg>
