<?xml version="1.0" encoding="utf-8"?>
<!-- Generator: Adobe Illustrator 22.0.1, SVG Export Plug-In . SVG Version: 6.00 Build 0)  -->
<svg version="1.1" id="Слой_1" xmlns="http://www.w3.org/2000/svg" xmlns:xlink="http://www.w3.org/1999/xlink" x="0px" y="0px"
	 viewBox="0 0 612 1008" style="enable-background:new 0 0 612 1008;" xml:space="preserve">
<style type="text/css">
	.st0{fill:#ACDBE6;}
	.st1{fill:#C5E4EA;}
	.st2{fill:#D2EBF1;}
	.st3{fill:#32B3D0;}
	.st4{fill:#5AC2D9;}
	.st5{fill:#84CDE0;}
</style>
<path class="st0" d="M282.8888855,287.3333435l134.2519226,77.468811
	c-13.5912476,23.5533752-33.1445007,43.1204529-56.6882935,56.728363
	c-23.5437622,13.6078796-50.2591858,20.7832947-77.4526367,20.8027649L282.8888855,287.3333435z"/>
<path class="st1" d="M282.8888855,287.3333435l134.2534485-77.4662323
	c13.5907898,23.5536346,20.7468262,50.2742767,20.7465515,77.4677277s-7.1567993,53.9139404-20.7480774,77.4673157
	L282.8888855,287.3333435z"/>
<path class="st2" d="M282.8888855,287.3333435l-0.0359802-155c0.0119934-0.0000153,0.0239868-0.0000153,0.0359802-0.0000153
	c55.3377686,0,106.6342163,29.6348724,134.2766724,77.5740509L282.8888855,287.3333435z"/>
<path class="st3" d="M282.9639893,287.3332825l-148.3988647-85.6321716
	c15.0234528-26.0353394,36.6371765-47.6643372,62.6618805-62.7061615
	c26.0247192-15.0418396,55.5553284-22.973381,85.6143036-22.9949036L282.9639893,287.3332825z"/>
<path class="st4" d="M282.9639893,287.3332825l-134.1631012,77.6225586
	c-13.6486206-23.590332-20.8368835-50.3684082-20.8368835-77.6225586c0-27.1939392,7.1565552-53.9149933,20.7480621-77.468811
	L282.9639893,287.3332825z"/>
<path class="st5" d="M282.9639893,287.3332825l0.0360107,155c-27.1934509,0.0063171-53.9156799-7.1437683-77.4723358-20.7293091
	c-23.5566559-13.5855713-43.128479-33.1340942-56.7420654-56.6745605L282.9639893,287.3332825z"/>
</svg>
