<?xml version="1.0" encoding="utf-8"?>
<!-- Generator: Adobe Illustrator 22.0.1, SVG Export Plug-In . SVG Version: 6.00 Build 0)  -->
<svg version="1.1" id="Слой_1" xmlns="http://www.w3.org/2000/svg" xmlns:xlink="http://www.w3.org/1999/xlink" x="0px" y="0px"
	 viewBox="0 0 4 8" style="enable-background:new 0 0 4 8;" xml:space="preserve">
<style type="text/css">
	.st0{fill:#17363D;}
</style>
<title>006-facebook-letter-logo</title>
<desc>Created with Sketch.</desc>
<g id="Page-1">
	<g id="_x30_1-main" transform="translate(-137.000000, -36.000000)">
		<g id="_x30_06-facebook-letter-logo" transform="translate(137.000000, 36.000000)">
			<path id="Facebook" class="st0" d="M0.8645788,1.5493453c0,0.2016033,0,1.1014433,0,1.1014433H0v1.3468492h0.8645788V8h1.7760285
				V3.9977493h1.1917977c0,0,0.1116171-0.6458037,0.1657217-1.3519268c-0.1551199,0-1.3508036,0-1.3508036,0
				s0-0.7835541,0-0.9208951c0-0.1376386,0.1936409-0.322781,0.38503-0.322781c0.1910305,0,0.5942149,0,0.9676468,0
				C4,1.2187709,4,0.5851685,4,0C3.5014796,0,2.9343271,0,2.6843295,0C0.8206773-0.000093,0.8645788,1.3480954,0.8645788,1.5493453z
				"/>
		</g>
	</g>
</g>
</svg>
