<?xml version="1.0" encoding="utf-8"?>
<!-- Generator: Adobe Illustrator 22.0.1, SVG Export Plug-In . SVG Version: 6.00 Build 0)  -->
<svg version="1.1" id="Слой_1" xmlns="http://www.w3.org/2000/svg" xmlns:xlink="http://www.w3.org/1999/xlink" x="0px" y="0px"
	 viewBox="0 0 16 15" style="enable-background:new 0 0 16 15;" xml:space="preserve">
<style type="text/css">
	.st0{fill:#17363D;}
</style>
<title>sss</title>
<desc>Created with Sketch.</desc>
<g id="Page-1">
	<g id="_x30_1-main" transform="translate(-1799.000000, -34.000000)">
		<g id="sss" transform="translate(1798.000000, 33.000000)">
			<path id="Shape" class="st0" d="M4.8000002,9C5.9000001,10.3000002,8,12.5,9,13.6000004c0.5-0.5,0.8999996-1,1.3999996-1.5
				c0.9000006-1,1.9000006-2,2.8000002-3.1000004C13.8999996,8.1000004,14.8000002,7,15,5.9000001
				c0.1999998-1.2000003-0.6999998-2.5-1.8999996-2.8000002S10.8000002,3.7,10.3000002,4.5
				c-0.6000004,0.9000001-2,0.9000001-2.6000004,0c-0.5-0.9000001-1.5999999-1.7-2.7999997-1.4000001
				S2.9000001,4.6999998,3,5.9000001C3.2,7,4.0999999,8.1000004,4.8000002,9z M9,15.8000002
				c-0.3999996,0-0.8000002-0.1999998-1.0999999-0.5c-1-1-3.3000002-3.6000004-4.6000004-5.1000004
				c-0.8999999-1-2-2.3999996-2.3-4.0999999c-0.3-2.1999998,1.2-4.5,3.4000001-5C6.0999999,0.7,7.8000002,1.4,9,2.9000001
				C10.1999998,1.4,11.8999996,0.7,13.6000004,1.2C15.8000002,1.8,17.2999992,4,17,6.1999998
				c-0.2000008,1.7000003-1.3999996,3.1000004-2.3000002,4.1000004c-0.8999996,1.0999994-1.8999996,2.0999994-2.8000002,3.0999994
				C11.3000002,14,10.6999998,14.6999998,10.1000004,15.3000002C9.8000002,15.6999998,9.3999996,15.8000002,9,15.8000002z"/>
		</g>
	</g>
</g>
</svg>
