<svg xmlns="http://www.w3.org/2000/svg" width="45" height="39" viewBox="0 0 45 39">
  <metadata><?xpacket begin="﻿" id="W5M0MpCehiHzreSzNTczkc9d"?>
<x:xmpmeta xmlns:x="adobe:ns:meta/" x:xmptk="Adobe XMP Core 5.6-c142 79.160924, 2017/07/13-01:06:39        ">
   <rdf:RDF xmlns:rdf="http://www.w3.org/1999/02/22-rdf-syntax-ns#">
      <rdf:Description rdf:about=""/>
   </rdf:RDF>
</x:xmpmeta>
                                                                                                    
                                                                                                    
                                                                                                    
                                                                                                    
                                                                                                    
                                                                                                    
                                                                                                    
                                                                                                    
                                                                                                    
                                                                                                    
                                                                                                    
                                                                                                    
                                                                                                    
                                                                                                    
                                                                                                    
                                                                                                    
                                                                                                    
                                                                                                    
                                                                                                    
                                                                                                    
                           
<?xpacket end="w"?></metadata>
<defs>
    <style>
      .cls-1 {
        fill: #32b3d0;
        fill-rule: evenodd;
      }
    </style>
  </defs>
  <path id="heart-blue-big" class="cls-1" d="M587.365,908.62a12.588,12.588,0,0,0-17.62.01l-1.231,1.212-1.249-1.231a12.574,12.574,0,0,0-17.62-.019,12.15,12.15,0,0,0,.019,17.37l17.915,17.661a1.291,1.291,0,0,0,1.813.01L587.345,926A12.183,12.183,0,0,0,587.365,908.62ZM585.533,924.2l-17.047,16.74-17.01-16.768a9.643,9.643,0,0,1-.009-13.778,9.982,9.982,0,0,1,13.976.01l2.155,2.125a1.3,1.3,0,0,0,1.822,0l2.137-2.107a9.983,9.983,0,0,1,13.976-.009A9.664,9.664,0,0,1,585.533,924.2Z" transform="translate(-546 -905)"/>
</svg>
