<?xml version="1.0" encoding="utf-8"?>
<!-- Generator: Adobe Illustrator 22.0.1, SVG Export Plug-In . SVG Version: 6.00 Build 0)  -->
<svg version="1.1" id="Слой_1" xmlns="http://www.w3.org/2000/svg" xmlns:xlink="http://www.w3.org/1999/xlink" x="0px" y="0px"
	 viewBox="0 0 16 15" style="enable-background:new 0 0 16 15;" xml:space="preserve">
<style type="text/css">
	.st0{fill:#EF3F4A;}
</style>
<title>sss</title>
<desc>Created with Sketch.</desc>
<g id="Page-1">
	<g id="_x30_1-main" transform="translate(-1799.000000, -34.000000)">
		<g id="sss" transform="translate(1798.000000, 33.000000)">
			<path id="Shape" class="st0" d="M9,15.8000002c-0.3999996,0-0.8000002-0.1999998-1.0999999-0.5
				c-1-1-3.3000002-3.6000004-4.6000004-5.1000004c-0.8999999-1-2-2.3999996-2.3-4.0999999c-0.3-2.1999998,1.2-4.5,3.4000001-5
				C6.0999999,0.7,7.8000002,1.4,9,2.9000001C10.1999998,1.4,11.8999996,0.7,13.6000004,1.2
				C15.8000002,1.8,17.2999992,4,17,6.1999998c-0.2000008,1.7000003-1.3999996,3.1000004-2.3000002,4.1000004
				c-0.8999996,1.0999994-1.8999996,2.0999994-2.8000002,3.0999994C11.3000002,14,10.6999998,14.6999998,10.1000004,15.3000002
				C9.8000002,15.6999998,9.3999996,15.8000002,9,15.8000002z"/>
		</g>
	</g>
</g>
</svg>
