<?xml version="1.0" encoding="utf-8"?>
<!-- Generator: Adobe Illustrator 22.0.1, SVG Export Plug-In . SVG Version: 6.00 Build 0)  -->
<svg version="1.1" id="Isolation_Mode" xmlns="http://www.w3.org/2000/svg" xmlns:xlink="http://www.w3.org/1999/xlink" x="0px"
	 y="0px" viewBox="0 0 7 7" style="enable-background:new 0 0 7 7;" xml:space="preserve">
<style type="text/css">
	.st0{fill:#17363D;}
</style>
<g>
	<path class="st0" d="M5.1086426,0H1.8913574C0.8484497,0,0,0.8484497,0,1.8913574v3.2172852C0,6.1515503,0.8484497,7,1.8913574,7
		h3.2172852C6.1515503,7,7,6.1515503,7,5.1086426V1.8913574C7,0.8484497,6.1515503,0,5.1086426,0z M4.7045288,4.3933716
		c-0.2386475,0.3217773-0.5883179,0.531311-0.9845581,0.5900879C3.6453857,4.9945679,3.5708618,5,3.4968262,5
		C3.1774902,5,2.8677979,4.8982544,2.6065674,4.7045288c-0.3217163-0.2387085-0.53125-0.5883789-0.5900269-0.9846802
		c-0.0587769-0.3962402,0.0402832-0.791748,0.2789307-1.1135254c0.2386475-0.3217163,0.5882568-0.531311,0.9845581-0.5900879
		c0.1459351-0.0216675,0.2939453-0.0216675,0.4399414,0C4.0405884,2.0637817,4.3312378,2.210083,4.5604248,2.4393311
		c0.229187,0.229187,0.3754883,0.5198364,0.4230347,0.8405151C5.0422363,3.6761475,4.9431763,4.0715942,4.7045288,4.3933716z
		 M5.8535767,1.8535767C5.760437,1.9466553,5.6315308,2,5.5,2S5.239563,1.9466553,5.1464233,1.8535767
		C5.0533447,1.760437,5,1.6317749,5,1.5s0.0533447-0.260437,0.1464233-0.3535767C5.239563,1.0533447,5.3684692,1,5.5,1
		s0.260437,0.0533447,0.3535767,0.1464233C5.9466553,1.239563,6,1.3684082,6,1.5
		C6,1.6315308,5.9466553,1.760437,5.8535767,1.8535767z"/>
</g>
</svg>
