<?xml version="1.0" encoding="utf-8"?>
<!-- Generator: Adobe Illustrator 23.0.3, SVG Export Plug-In . SVG Version: 6.00 Build 0)  -->
<svg version="1.1" id="Layer_1" xmlns="http://www.w3.org/2000/svg" xmlns:xlink="http://www.w3.org/1999/xlink" x="0px" y="0px"
	 viewBox="0 0 270 270" style="enable-background:new 0 0 270 270;" xml:space="preserve">
<style type="text/css">
	.st0{fill:#1D1D1B;}
</style>
<g>
	<path class="st0" d="M122.4287796,105.4172592c0.4008026-0.0669479,0.8676758-0.133606,1.2021103-0.467453
		c0.3335571-0.3338547,0.3335571-0.9343262-0.0678177-1.1351624c-0.2666168-0.1330185-0.5998917-0.2666168-0.8676758-0.2666168
		c-0.7334824-0.0669479-1.5345001,0-2.2691498,0.066658c-3.7390366,0.5341034-6.9428024,2.2697296-9.7463455,4.8730316
		c-2.0694809,1.9361725-3.8051224,4.2059097-5.2741241,6.7425461c-2.0022507,3.3379517-3.6045761,6.9425201-4.8730392,10.6809769
		c-1.2015152,3.4712524-2.3360977,7.0091705-3.4709702,10.4801331c-0.6007614,1.9364624-1.2684631,3.9392853-2.1364212,5.8082275
		c-0.9343262,1.9361725-2.0694885,3.6715088-3.6718063,5.1402283c-0.8010101,0.7343597-1.6686859,1.2684784-2.6699524,1.6020355
		c-1.4017715,0.4008026-2.6032944,0.0666504-3.6045609-0.9343262c-0.8010178-0.8013-1.2684708-1.7356262-1.5356674-2.7371826
		c-0.4005127-1.5350952-0.5338135-3.070755-0.4005127-4.6730804c0.1333084-1.4017639,0.4005127-2.8035431,0.7343674-4.2059021
		c1.2684784-5.4068451,2.2697449-10.8806458,3.2710114-16.3547287c0.1335907-0.4671631,0.2002411-1.0012665,0.2002411-1.4684296
		c0-0.9346161-0.4671631-1.5356674-1.3351212-1.7356262c-1.2681732-0.2672043-2.4033356,0.2666168-2.9371414,1.4684296
		c-0.3338623,0.8010101-0.5338211,1.6686783-0.6680069,2.536644c-0.7337799,3.6051483-1.401474,7.2097168-2.0689011,10.81427
		c-0.6010513,3.1380005-1.4687195,6.2084503-2.6705322,9.1458893c-0.7340546,1.6023254-1.601738,3.1374054-2.6702423,4.5391846
		c-0.9343185,1.2018127-2.002533,2.1361389-3.4046021,2.8704987c-0.7343597,0.333847-1.4681396,0.6010437-2.3360977,0.6010437
		c-1.2684631,0.0669556-2.2700272-0.467453-2.8704987-1.6689758c-0.2671967-0.5343933-0.5341034-1.1348572-0.5341034-1.7356262
		c-0.0669479-0.8676605-0.2005463-1.7359161-0.1338882-2.6038818c0.0669403-2.2694397,0.467453-4.472229,1.1351547-6.6086578
		c0.7343597-2.2027893,1.4017792-4.4055786,2.1361389-6.6083679c0.5338135-1.9361725,0.9346085-3.872345,1.1351547-5.874588
		c0.1333084-2.1364288-0.1338882-4.2725677-0.8013-6.2753906c-0.8010178-2.536644-2.4033356-4.4722366-4.6061249-5.941246
		c-1.335125-0.8010178-2.8041382-1.4017792-4.339222-1.8022842c-1.9358711-0.467453-3.8717613-0.6677094-6.0078888-0.6677094
		c-3.3379593,0-6.7422714,0.5344009-9.879673,2.0028305c-4.0056572,1.9361725-7.2766609,4.6727753-9.2794876,8.6778488
		c-1.268177,2.6035919-1.6686821,5.3407745-1.6686821,8.1443253c0,4.8736191,1.9358826,8.878685,5.2735367,12.2166367
		c0.4005089,0.3338623,0.8010178,0.6004791,1.2015228,0.8676758c0.467453,0.2671967,1.0018501,0.2005463,1.2018127-0.133316
		c0.2672005-0.333847,0.2672005-0.6677094,0.1333084-1.0684967l-1.0012665-1.5350952
		c-1.8689384-2.6702423-2.9371529-5.6746216-2.9371529-8.9453278c-0.1333084-10.6140289,9.1453056-17.6904373,17.2899246-17.9570541
		c5.00634-0.2005463,9.1453056,2.937439,10.4137726,7.7435303c0.2671967,1.0012665,0.4005051,2.0028229,0.4671707,3.0038071
		c0,1.7359161-0.1999741,3.4715424-0.7343674,5.1402283l-2.4030457,7.8771362
		c-0.6010551,1.9361725-1.1348686,3.9389954-1.3351212,6.0078888c-0.2002563,1.6023254-0.2002563,3.2046509,0.2002525,4.8066711
		c0.5338135,2.6035919,2.0694809,4.2722778,4.6061211,4.8730316c3.8717651,1.0012665,7.5432816,0.4668732,10.8809433-1.8022766
		l1.4023514-1.0015564c0.7340775-0.4671631,1.1345749-0.4671631,1.8022919,0.2671967
		c0.2002411,0.2671967,0.4674454,0.5338135,0.6674042,0.8679504c0.6677094,0.7343597,1.5353775,1.334549,2.4033432,1.7356415
		c4.9399719,2.1355438,10.6809616,0.6676941,13.9519653-3.6048584c1.7356262-2.2700348,2.8702087-4.8060913,3.8051147-7.4769135
		c1.1345749-3.5379181,2.3363876-7.1424866,3.5379105-10.6806793c1.0012665-3.004097,2.1361313-6.008194,3.4712524-8.8781128
		c1.4017792-3.0713272,3.004097-6.0084763,5.1402359-8.6787186
		C115.3526688,108.4210587,118.3564758,106.0849609,122.4287796,105.4172592z"/>
	<path class="st0" d="M176.9044647,119.0353775h0.4677429c1.0012665,0,1.8692322-0.1333084,2.3366852-1.0015564
		c0.5335236-0.8007278,0.7346497-1.8022842,0.8013-2.8035583c0-0.6007538-0.2677765-1.1351547-0.8679352-1.2681732
		c-1.9364777-0.5341034-3.6721191-0.3341446-4.1389771,2.0025406c-0.0666656,0.4005051-0.1999664,0.7340622-0.2677765,1.0679169
		C175.1691284,118.3010178,175.6365814,118.9020691,176.9044647,119.0353775z"/>
	<path class="st0" d="M236.2511444,132.3865967c-0.2669067-0.0669556-0.600174,0-0.8679504,0.2671967
		c-0.4665833,0.4002075-0.6668396,1.0009766-0.9343262,1.53508c-1.2015228,2.5366364-2.9368591,4.6061249-5.0069275,6.4750671
		c-0.5335236,0.5343933-1.2012329,0.934906-1.8692322,1.2018127c-1.0009766,0.4004974-1.8022614,0.2671967-2.5366364-0.600769
		c-0.6677094-0.8010101-1.0009766-1.7356262-1.0679169-2.7371826c-0.1333008-1.3351288,0-2.6035919,0.3335571-3.8717651
		l1.2021027-4.3392181c0.4668732-1.8022766,0.5335236-3.6045685,0.0666504-5.4068527
		c-0.9343262-3.0710373-3.5379028-4.6061249-6.6755981-4.0056534c-1.4690094,0.3338547-2.8035583,1.0018539-4.0723114,1.8025742
		l-1.3348389,1.001564c-0.2008362,0.1333084-0.467453,0.1999588-0.7343597,0.0666504
		c-0.1999512-0.1335983-0.2666168-0.400795-0.2666168-0.6007614l0.4002228-1.6689758
		c1.067627-3.6715088,2.1364288-7.2760773,3.1376953-10.9481659c0.5332336-2.0025406-0.2011261-2.8038406-2.2700348-2.6699524
		c-1.2012177,0.0666504-2.002243,0.5338135-2.4033203,1.7356262c-0.133606,0.5338211-0.3335724,1.0679245-0.4668732,1.6020279
		l-4.8066711,16.6891632c-0.3335724,1.1345825-0.6677094,2.2027893-1.0679321,3.2707214l-0.498291,1.7228088
		c-0.083252,0.1621246-0.1711578,0.3257141-0.2372284,0.4799805c-0.7343597,1.4687195-1.6020203,2.8707886-2.6699524,4.0722961
		c-0.2666168,0.3338623-0.6010437,0.600769-0.9346161,0.8679657c-0.2666168,0.1999664-0.7343445,0-0.7343445-0.2671967
		c-0.0666656-0.3335571-0.133316-0.6674194-0.0666656-0.9346161c0.133316-2.0028229-0.4677429-3.8051147-1.4690094-5.540741
		c-0.4665833-0.7343597-0.8676758-1.4684296-1.334549-2.2694397c-0.4677429-0.8013-0.9343109-1.6023254-1.3354034-2.4036255
		c-0.8679657-1.6686859-1.1345825-3.4043121-0.7346497-5.2732544c0.1344757-0.467453,0.2677765-1.0012665,0.2677765-1.4684296
		c0.0666504-0.4680328-0.1333008-0.8685379-0.5343933-1.1351547c-1.1345825-0.6677094-3.3379517-0.2671967-4.0722961,0.8679581
		c-0.3332825,0.4671631-0.5335388,1.0676346-0.8010254,1.6686859c-1.8025818,4.2725601-3.4046021,8.6781464-5.4071503,12.9506989
		c-0.0125122,0.0250397-0.02211,0.0518188-0.0346375,0.0768433c-1.122345,1.953064-2.4705658,3.7131348-4.1709747,5.1297607
		c-0.6668396,0.5343933-1.3345337,1.0018463-2.0688934,1.2684631c-1.2012329,0.4008026-2.1367188,0.1338959-2.736908-0.9343262
		c-0.5343933-0.8013-0.7343597-1.6689758-0.8010101-2.6702423c-0.0666351-1.7356262,0.3332672-3.4712524,0.8676758-5.1402283
		c0.9346008-2.8704987,1.8022766-5.8079376,2.7368927-8.7450867c0.1999817-0.534111,0.3332672-1.2018127,0.3999176-1.8022842
		c0.0678406-0.6674194-0.3332672-1.2018127-1.0009766-1.3351212c-2.1358337-0.4008026-3.4712524,0.0666504-4.004776,2.0028305
		c0,0.1333084-0.0666351,0.1999588-0.1344757,0.3335571c-1.0009766,3.2043533-2.002243,6.4084091-3.0701599,9.6127548
		c-0.1618347,0.5314941-0.2549744,1.0632629-0.3583069,1.5947571c-1.1939545,2.291275-2.8576813,4.2149353-4.7149811,5.9490967
		c-0.6013489,0.5338287-1.2690582,1.0009918-2.0700684,1.2681885c-1.1345825,0.4004974-2.0691833,0.0666504-2.6702423-1.0015717
		c-0.3332672-0.6007538-0.4668732-1.2684631-0.5343933-2.002533c-0.0666656-1.2015228,0-2.469986,0.2677765-3.6715088
		c0.2666168-1.6023254,0.6677094-3.2046356,0.9346161-4.8063812c0.2666168-1.6689682,0.8676605-3.2046356,1.8689423-4.6064148
		c1.5356598-2.3363876,2.9377289-4.6727753,4.1389618-7.0764008c0.8010101-1.4681396,1.4690094-2.937149,1.9355927-4.4722366
		c0.3344269-1.0682144,0.4677429-2.2027893,0.3344269-3.337944c-0.2677765-2.0028305-1.9367523-3.1371155-3.872345-2.8704987
		c-1.0679169,0.2005463-2.002243,0.7343597-2.7368927,1.5356674c-0.9343262,1.0009766-1.6020355,2.2027893-2.0697632,3.4709625
		c-1.334549,3.5379105-2.4691315,7.0764084-3.2034912,10.7476273c-0.6455841,3.0975266-1.2870941,6.1345062-1.8721313,9.2279663
		c-0.22966,0.3658752-0.4133148,0.751236-0.5972595,1.1191559c-1.2021027,2.5366364-3.0043945,4.6064148-5.0066528,6.4759216
		c-0.6013336,0.5338287-1.2687378,1.0009918-2.0700531,1.2681885c-1.1345825,0.4004974-2.0689087,0.0666504-2.6702423-1.0015717
		c-0.3332825-0.6007538-0.466568-1.2684631-0.5341187-2.002533c-0.0666504-1.2015228,0-2.469986,0.2675018-3.6715088
		c0.2666168-1.6023254,0.6679993-3.2046356,0.9346161-4.8063812c0.2666168-1.6689682,0.8676605-3.2046356,1.868927-4.6064148
		c1.535675-2.3363876,2.9377289-4.6727753,4.1389618-7.0764008c0.8010254-1.4681396,1.4690094-2.937149,1.9355927-4.4722366
		c0.3344421-1.0682144,0.4677429-2.2027893,0.3344421-3.337944c-0.2674866-2.0028305-1.9367523-3.1371155-3.8720551-2.8704987
		c-1.0679321,0.2005463-2.002533,0.7343597-2.7371979,1.5356674c-0.9343109,1.0009766-1.6020203,2.2027893-2.0697479,3.4709625
		c-1.3345642,3.5379105-2.4691315,7.0764084-3.2034912,10.7476273c-0.6383057,3.0625992-1.2710876,6.0666962-1.8508911,9.123764
		c-0.3105774,0.4520264-0.6263733,0.8871765-0.8877563,1.3572388c-1.2015228,2.2027893-2.6035767,4.2056274-4.4058685,6.0079041
		c-0.6013489,0.5341034-1.2012329,1.0679169-2.002243,1.4017792c-1.3356934,0.6010437-2.4036255,0.2671967-3.1379852-1.0676422
		c-0.4665833-0.8013-0.6677094-1.7359161-0.7343597-2.6708221c-0.0669556-1.4684296,0.1999512-2.8035431,0.6676941-4.2050323
		c1.0009766-3.1379852,2.0022583-6.2753906,2.9368591-9.4797363c0.2008362-0.6007614,0.4008026-1.2018127,0.4677429-1.8022842
		c0.0666656-0.6007614-0.1999512-1.0679245-0.8013-1.3351212c-1.4687195-0.6679993-3.2709961-0.066658-4.0053558,1.3351212
		l-0.4002228,0.8676682c-0.2668915,0.5338135-0.7346497,0.6010513-1.2012177,0.2005463
		c-0.2008362-0.1338882-0.4011002-0.3338547-0.5344086-0.5344009c-1.6023254-1.6689758-3.5379105-2.002533-5.6746292-1.4684296
		c-1.2012329,0.2671967-2.3358078,0.8010178-3.4046021,1.5350876c-3.6045685,2.4033356-5.8743057,5.8079376-7.4096756,9.8130035
		c-0.6674194,1.7362213-0.9346161,3.4718475-0.9346161,5.6079865c0,0.2669067,0,0.8679504,0.1333084,1.4017639
		c0.467453,3.070755,2.2030945,4.7397308,5.2741241,5.1402435c2.2691498,0.2671967,4.4725189-0.0666656,6.54142-1.0012817
		c0.8010178-0.4004974,1.5356674-0.8676605,2.2700272-1.3354034c1.2690506-0.8007202,1.8022842-1.0012665,2.9377365,0.2671967
		c1.1345749,1.2684631,2.6035919,1.6689758,4.2050323,1.6020355c1.4687347-0.0663757,2.8044281-0.600769,4.0723114-1.3348389
		c2.249939-1.3848877,4.0111847-3.1697083,5.4365387-5.247345c0.0160065,0.747757,0.0573425,1.4954987,0.1723022,2.2432556
		c0.7343597,3.2707062,3.0043945,4.8063812,6.3411713,4.2725525c1.4690094-0.2671967,2.7377777-0.8679504,3.9393005-1.6692657
		c1.8823242-1.3383179,3.4165344-2.9682922,4.7024689-4.8145142c0.0171814,0.736969,0.0564575,1.4742432,0.1699829,2.2112274
		c0.7343597,3.2707062,3.0043793,4.8063812,6.3411713,4.2725525c1.4690094-0.2671967,2.7377625-0.8679504,3.9389954-1.6692657
		c1.5822449-1.1246796,2.9290009-2.4461212,4.0862732-3.9317169c0.0640411,0.5984344,0.1600952,1.1971588,0.3195953,1.7955933
		c0.9354858,2.8035431,3.0710449,4.2059021,6.0079041,3.8717651c1.4687195-0.133606,2.8044281-0.7343597,4.005661-1.5353851
		c1.0306549-0.6519775,1.9224854-1.4171906,2.7561035-2.231308c-0.0401764,0.3236694,0.0690002,0.7058411,0.3815918,1.0967407
		c0.9346008,1.2684631,2.2024841,2.0691833,3.6715088,2.5363464c1.2009277,0.333847,2.469986,0.4677429,3.6712189,0.4005127
		c2.0700531-0.0666656,4.1389618-0.4005127,6.0745544-1.0012665c2.5351868-0.7745361,4.5205536-2.0988922,6.1254883-3.8135529
		c-0.2636871,0.9788513-0.5870819,1.8977509-0.7841339,2.8792267c-0.3335571,1.8022766,0.2008362,2.4033356,2.0700684,2.4033356
		c0.1330109,0,0.2666321-0.0672455,0.3999176-0.0672455c1.2021027,0,1.9355927-0.6004639,2.3366852-1.7356262
		c0.0666504-0.4671631,0.1999664-0.8676605,0.3335571-1.2681732l2.0031281-6.8092041
		c1.0679169-3.9387054,3.2701263-7.1424789,6.2747955-9.8133011c0.4677429-0.3999252,0.9343262-0.7337799,1.535675-1.0676346
		c1.5356598-0.8013077,2.9365692-0.3338547,3.6712189,1.3348312c0.4010925,0.8679581,0.4677429,1.8022842,0.4010925,2.7368927
		c-0.1344757,1.3354111-0.4677429,2.6705399-0.8013153,4.0056534c-0.3344269,1.3351288-0.7343597,2.6702423-1.0021362,4.0050812
		c-0.2666168,1.6689758-0.2666168,3.3379517,0.3344269,5.0069275c0.8676758,2.7366028,3.2046509,4.1392517,6.0748596,3.7384491
		c1.3345337-0.2005463,2.5366364-0.7343597,3.6712189-1.4690094c3.3379364-2.0694885,5.6079712-5.0063477,7.2099915-8.6112061
		c0.2002563-0.4007874,0.2666168-0.8010101,0.3335724-1.2684631
		C236.8522034,132.8537445,236.651947,132.5196075,236.2511444,132.3865967z M166.2240906,111.5584641l0.1333008-0.1999588
		c0.1999664-0.2005463,0.4002075-0.4671631,0.7343597-0.4005127c0.3335571,0.066658,0.4668732,0.4671631,0.4002075,0.9343262
		l-0.1999512,0.9346161c-0.5344086,1.8025742-1.402359,3.4712524-2.3366852,5.0732803
		c-0.133316,0.2008362-0.3335571,0.4008026-0.601059,0.3341446c-0.1335907-0.0669403-0.1335907-0.3341446-0.1999512-0.5341034
		C164.6217651,115.5641174,165.2219391,113.4946365,166.2240906,111.5584641z M151.0711823,111.5584641l0.1332855-0.1999588
		c0.1999664-0.2005463,0.4002228-0.4671631,0.7346649-0.4005127c0.3332672,0.066658,0.466568,0.4671631,0.4002075,0.9343262
		l-0.2002563,0.9346161c-0.5343933,1.8025742-1.4020691,3.4712524-2.3366699,5.0732803
		c-0.133316,0.2008362-0.3332825,0.4008026-0.601059,0.3341446c-0.1333008-0.0669403-0.1333008-0.3341446-0.1999664-0.5341034
		C149.4691315,115.5641174,150.0690308,113.4946365,151.0711823,111.5584641z M126.2362213,128.0473785
		c-0.6001816,4.6730652-2.6702423,8.6781311-6.0748444,11.9491425c-0.8010178,0.8013-1.8022842,1.3351135-2.8699112,1.6692657
		c-1.2690506,0.3335571-2.2033768-0.2005463-2.6702423-1.4020691c-0.1333084-0.2671967-0.1999664-0.6007538-0.2666168-0.8679657
		l-0.2008362-1.8692169c0.0663605-4.0717316,1.6020279-7.5435638,4.2053223-10.5473785
		c0.8013077-1.0012665,1.7356262-1.8025742,2.6035919-2.6702423c0.2677765-0.2666168,0.6010513-0.4671555,0.8679657-0.6674118
		c1.9364548-1.1348648,3.3376465-0.6677094,4.1389694,1.4684296
		C126.3037491,126.044548,126.3704071,127.0463943,126.2362213,128.0473785z M194.060791,139.6629639
		c-0.600174,1.1348572-1.5356598,1.8022766-2.7368927,2.0691833c-2.1355591,0.5341034-4.0723114,0.2002563-5.8079224-1.2015228
		c-0.2666321-0.2669067-0.5335388-0.5341034-0.8010406-0.7343597c-0.4802551-0.384491-0.8548584-0.5192566-1.1773529-0.4689026
		c1.4826813-1.6200867,2.6917725-3.4680634,3.6473541-5.5392914c0.0995331-0.2968903,0.1798706-0.6246185,0.224411-0.9404297
		c0.0550079-0.1347656,0.1245728-0.2596283,0.1766663-0.3943939l1.6023254-3.8054047
		c0.133316-0.4005127,0.3332672-0.8010178,0.6668396-1.0676346c0.2008362-0.2005386,0.5341034-0.2005386,0.6676941,0
		c0.2666168,0.2666168,0.4677429,0.5338211,0.6677094,0.8676682c0.7343597,1.2018127,1.402359,2.3361053,2.0689087,3.5379181
		c0.4677429,0.8010101,0.9346161,1.6689758,1.269043,2.5369263
		C195.2628937,136.2583618,195.0617676,138.0606384,194.060791,139.6629639z"/>
	<path class="st0" d="M114.1537704,155.9722748c0.5943527,0,1.1147842,0.0861664,1.5606918,0.2590485
		c0.4462204,0.1731873,0.9421844,0.4889984,1.4888077,0.949173c0.0864487,0.0771332,0.1676559,0.1158447,0.2444916,0.1158447
		c0.0573425,0,0.1053696-0.0270691,0.1440811-0.0791779c0.0381317-0.0532532,0.0573425-0.1178741,0.0573425-0.1944275
		c0-0.1341858-0.0477219-0.2491455-0.1440811-0.3457794c-0.3932266-0.4019623-0.8839645-0.7192383-1.4739609-0.9488831
		c-0.5899887-0.2302399-1.2061768-0.3451996-1.8488541-0.3451996c-0.9299545,0-1.735611,0.2086945-2.4164276,0.6251984
		c-0.6813736,0.4173889-1.2035599,1.0146637-1.5679779,1.7918091c-0.3647079,0.7759857-0.5466232,1.6969147-0.5466232,2.7610626
		c0,1.0647125,0.1819153,1.9876862,0.5466232,2.7694855c0.364418,0.7818146,0.8866043,1.3808289,1.5679779,1.7985077
		c0.6808167,0.4165192,1.4864731,0.6252136,2.4164276,0.6252136c0.6426773,0,1.2588654-0.114975,1.8488541-0.3449249
		c0.5899963-0.2302246,1.0807343-0.5471954,1.4739609-0.9500275c0.0963593-0.0957642,0.1440811-0.2107391,0.1440811-0.3449249
		c0-0.0765533-0.0192108-0.1411591-0.0573425-0.1944275c-0.0387115-0.0521088-0.0867386-0.0791779-0.1440811-0.0791779
		c-0.0573349,0-0.1391296,0.0387115-0.2444916,0.114975c-0.5466232,0.4610596-1.0408554,0.7768555-1.4815292,0.9500427
		c-0.4409637,0.1720276-0.9639969,0.2590485-1.5679703,0.2590485c-1.2277222,0-2.1771774-0.4031219-2.848381-1.2090912
		c-0.671196-0.8050842-1.0070877-1.9367523-1.0070877-3.3946991c0-1.4477692,0.3382187-2.5747833,1.0143661-3.3804474
		C111.9885254,156.375412,112.9356689,155.9722748,114.1537704,155.9722748z"/>
	<path class="st0" d="M134.6951904,156.0080719c-0.6712036-0.4165039-1.4626007-0.6251984-2.3733521-0.6251984
		c-0.9113312,0-1.700119,0.2086945-2.3660736,0.6251984c-0.6671295,0.4173889-1.1776581,1.0167084-1.5324554,1.7985077
		c-0.354538,0.7817993-0.5320816,1.7047729-0.5320816,2.7686157c0,1.0554199,0.1798935,1.9734344,0.5393448,2.7552338
		c0.3594818,0.7818146,0.8726196,1.3808289,1.5388641,1.7985077c0.6671295,0.4165192,1.4506836,0.6252136,2.3524017,0.6252136
		c0.9107513,0,1.6998291-0.2086945,2.3660736-0.6252136c0.6665497-0.4176788,1.1793976-1.0166931,1.5394592-1.7985077
		c0.3594666-0.7817993,0.5393372-1.7047729,0.5393372-2.7694855c0-1.0641479-0.1778412-1.9850769-0.5314789-2.7610626
		C135.8795471,157.0227356,135.366394,156.4254608,134.6951904,156.0080719z M135.1268463,163.9556427
		c-0.6615906,0.8059692-1.5964966,1.2090912-2.8050079,1.2090912c-1.1988983,0-2.1291504-0.4031219-2.7910309-1.2090912
		c-0.6616058-0.8050842-0.9925385-1.9367523-0.9925385-3.3946991c0-1.4573669,0.3309326-2.5861359,0.9925385-3.387146
		c0.6618805-0.8001404,1.5921326-1.2015228,2.7910309-1.2015228c1.2175293,0,2.1550598,0.4013824,2.8119965,1.2015228
		c0.6569366,0.8010101,0.98526,1.9297791,0.98526,3.387146
		C136.1190948,162.0188904,135.7887268,163.1505585,135.1268463,163.9556427z"/>
	<path class="st0" d="M156.7475433,155.4253693c-0.0666504,0-0.1245728,0.0174561-0.1720276,0.0512238
		c-0.0483093,0.0328827-0.0966339,0.0977936-0.1437836,0.1932678l-4.013504,7.8113403l-4.0568695-7.8113403
		c-0.0483398-0.0954742-0.0957794-0.1603851-0.144104-0.1932678c-0.0483093-0.0337677-0.1004028-0.0512238-0.1583405-0.0512238
		c-0.1053619,0-0.1845245,0.0320129-0.2369232,0.0937195c-0.0529785,0.0628662-0.0791626,0.1420441-0.0791626,0.237793v9.6086884
		c0,0.2302399,0.0957489,0.3449097,0.2878571,0.3449097c0.1915283,0,0.2872772-0.1146698,0.2872772-0.3449097v-8.5448303
		l3.740799,7.1212311c0.0762482,0.1624146,0.196167,0.2447815,0.3594666,0.2447815
		c0.0762634,0,0.145813-0.0221252,0.2086945-0.0649109c0.0619965-0.0433655,0.1120605-0.1033325,0.1507721-0.1798706
		l3.7110901-7.1779938v8.601593c0,0.2302399,0.086731,0.3449097,0.2587585,0.3449097
		c0.2107239,0,0.3169708-0.1146698,0.3169708-0.3449097v-9.6086884c0-0.0957489-0.0270691-0.1749268-0.0791779-0.237793
		C156.9320831,155.4573822,156.8529053,155.4253693,156.7475433,155.4253693z"/>
	<path class="st0" d="M172.110321,155.4978333h-3.2945862c-0.0957642,0-0.1795959,0.0308533-0.2511902,0.0937347
		c-0.0724792,0.0619965-0.1082764,0.1365051-0.1082764,0.2223663v9.5661926c0,0.1053619,0.0261993,0.187439,0.0791626,0.2444916
		c0.052124,0.0579224,0.1266174,0.0858612,0.2232513,0.0858612c0.0957642,0,0.1673737-0.0279388,0.215683-0.0858612
		c0.0471497-0.0570526,0.0713043-0.1391296,0.0713043-0.2444916v-4.0993805h3.0646515
		c1.0359039,0,1.8436127-0.2541046,2.4234161-0.7622986c0.5798035-0.5084991,0.8708649-1.2227783,0.8708649-2.1437073
		s-0.2878571-1.6302643-0.8638763-2.1288605C173.9655762,155.7472839,173.1546631,155.4978333,172.110321,155.4978333z
		 M174.1017914,160.1153107c-0.4456177,0.3932343-1.1141968,0.5894165-2.0060272,0.5894165h-3.0500946v-4.646286h3.0500946
		c0.8918304,0,1.5604095,0.1944275,2.0060272,0.5827026c0.4464874,0.3885803,0.6697388,0.9663391,0.6697388,1.7335968
		C174.7715302,159.141983,174.5482788,159.7220917,174.1017914,160.1153107z"/>
	<path class="st0" d="M189.1985321,155.641922c-0.0279541-0.0675354-0.0742188-0.1228333-0.1362305-0.165329
		c-0.0625763-0.0433655-0.132431-0.064621-0.2086945-0.064621c-0.173172,0-0.2878571,0.0762634-0.3449097,0.22995
		l-4.2580109,9.7093811c-0.0386963,0.1062469-0.0288086,0.1921082,0.0291138,0.2587585
		c0.0570526,0.0678253,0.1382599,0.1004181,0.2444916,0.1004181c0.133316,0,0.22995-0.0663605,0.2869873-0.2008362
		l1.1799927-2.6760559h5.7392426l1.1657257,2.6760559c0.0567474,0.1344757,0.1583557,0.2008362,0.3012543,0.2008362
		c0.0774231,0,0.1420288-0.0212402,0.1941376-0.0646057c0.0532684-0.0424957,0.0794525-0.1024628,0.0794525-0.1795959
		c0-0.0183411-0.0095978-0.0570526-0.0290985-0.114975L189.1985321,155.641922z M186.2357635,162.258728l2.6178436-5.9837341
		l2.6178589,5.9837341H186.2357635z"/>
	<path class="st0" d="M211.4959564,155.4253693c-0.0858612,0-0.1557159,0.0320129-0.2086945,0.0937195
		c-0.0523987,0.0628662-0.0782928,0.1420441-0.0782928,0.237793v8.8463898l-6.6031342-9.004715
		c-0.0570374-0.0666656-0.1036072-0.1120605-0.1365051-0.1362305c-0.0337677-0.0241547-0.0841217-0.0369568-0.1516571-0.0369568
		c-0.1053619,0-0.1845245,0.0320129-0.2366333,0.0937195c-0.0532532,0.0628662-0.0794525,0.1420441-0.0794525,0.237793v9.6232452
		c0,0.2203369,0.0908051,0.3303528,0.2736053,0.3303528c0.0858612,0,0.155426-0.0308533,0.2086792-0.0925598
		c0.0521088-0.0628662,0.0791779-0.1420288,0.0791779-0.237793v-8.8606415l6.616806,9.004715
		c0.0474396,0.0666504,0.0908203,0.114975,0.1295319,0.1440735c0.0378265,0.0288239,0.0908051,0.0422058,0.1577606,0.0422058
		c0.0966339,0,0.1708527-0.0308533,0.2229462-0.0925598c0.0532684-0.0628662,0.0791779-0.1420288,0.0791779-0.237793v-9.6232452
		C211.7692719,155.5365448,211.6787415,155.4253693,211.4959564,155.4253693z"/>
	<path class="st0" d="M229.7498932,155.4399109c-0.0762482,0-0.1528168,0.0436707-0.22995,0.1295319l-3.5524597,4.646286
		l-3.5678864-4.646286c-0.0666504-0.0858612-0.1437988-0.1295319-0.22995-0.1295319
		c-0.0675201,0-0.1274872,0.0291138-0.1795807,0.0870361c-0.0532684,0.0570526-0.0794678,0.1245728-0.0794678,0.2011261
		c0,0.0771332,0.0195007,0.1391296,0.0579224,0.1874542l3.6819916,4.7891998v4.6753998
		c0,0.0957642,0.0261993,0.1749268,0.0791779,0.237793c0.0523987,0.0617065,0.1266022,0.0925598,0.2232361,0.0925598
		c0.0957642,0,0.1699829-0.0308533,0.2223816-0.0925598c0.0529633-0.0628662,0.0791626-0.1420288,0.0791626-0.237793v-4.6608429
		l3.6828613-4.8037567c0.0483246-0.0774384,0.0716095-0.1440887,0.0716095-0.2020111
		c0-0.0666504-0.0259094-0.1295166-0.0782928-0.1865692C229.8776703,155.4690247,229.8177032,155.4399109,229.7498932,155.4399109z"
		/>
	<rect x="109.466156" y="150.160553" class="st0" width="120.7281952" height="0.4948128"/>
</g>
</svg>
