<?xml version="1.0" encoding="utf-8"?>
<!-- Generator: Adobe Illustrator 22.0.1, SVG Export Plug-In . SVG Version: 6.00 Build 0)  -->
<svg version="1.1" id="Layer_1" xmlns="http://www.w3.org/2000/svg" xmlns:xlink="http://www.w3.org/1999/xlink" x="0px" y="0px"
	 viewBox="0 0 841.8900146 595.2800293" style="enable-background:new 0 0 841.8900146 595.2800293;" xml:space="preserve">
<style type="text/css">
	.st0{fill:#FFFFFF;}
	.st1{fill:#282828;}
	.st2{fill:#EF404A;}
</style>
<circle class="st0" cx="420.9450073" cy="296.8388977" r="94.9606323"/>
<g>
	<path class="st1" d="M364.6095276,259.3331604c-0.1324768,0.2095642-0.3204651,0.3411255-0.5645447,0.395813
		c-0.2444763,0.0546875-0.4704895,0.0152588-0.6805725-0.1167297l-3.0663147-1.9458008l-2.5023804,3.9430542l3.067749,1.9458008
		c0.2085571,0.1324768,0.3416443,0.3189392,0.3992615,0.5585938c0.0551758,0.2444763,0.0157471,0.4710083-0.1172485,0.6805725
		c-0.1329041,0.2086487-0.3209839,0.3412476-0.5649414,0.3954468c-0.2445068,0.0541687-0.4720459,0.0152283-0.680603-0.1172485
		l-7.6498718-4.8536987c-0.2086792-0.1329956-0.3412476-0.3209839-0.3959351-0.5654602
		c-0.0540771-0.243988-0.0152283-0.4710083,0.1177368-0.679657c0.1319885-0.2095947,0.3209839-0.341156,0.5645447-0.3958435
		c0.2424927-0.0502625,0.4679871-0.0088806,0.6766663,0.1235962l3.0652771,1.9458008l2.5023804-3.9439697l-3.0661926-1.945282
		c-0.2085876-0.1324768-0.3402405-0.3205566-0.394928-0.5650482c-0.0551147-0.243988-0.0162659-0.4710083,0.1167297-0.6800842
		c0.1334839-0.2091675,0.3205566-0.3412476,0.5655518-0.3954315c0.242981-0.0546875,0.47052-0.0157318,0.6790771,0.116745
		l7.6503906,4.8542023c0.2086487,0.131958,0.3407288,0.3214722,0.3959351,0.5654297
		C364.7813721,258.8979492,364.7420349,259.1244812,364.6095276,259.3331604z"/>
	<path class="st1" d="M371.2001343,251.3308105c-1.0438232,1.0796509-2.3166809,1.6311798-3.8213501,1.6535797
		c-1.5037231,0.0302734-2.79599-0.4760437-3.8761292-1.5193787c-1.0802612-1.0424194-1.6328125-2.3177185-1.6600647-3.8253937
		c-0.0258179-1.5007172,0.4824219-2.7909393,1.5253601-3.8712006c1.0433044-1.0796509,2.3161011-1.6351166,3.8198242-1.6644745
		c1.5047607-0.0228119,2.7974243,0.4874573,3.8771667,1.5302734c1.0796509,1.0419159,1.6326904,2.3141937,1.6595459,3.8150024
		C372.7507935,248.9573975,372.2424622,250.2505646,371.2001343,251.3308105z M364.6550293,245.0108185
		c-0.6986389,0.7241821-1.0394897,1.5901184-1.0214233,2.5972137c0.0179749,1.0154877,0.3880615,1.8720398,1.1118469,2.570282
		c0.7232666,0.6986389,1.5906067,1.0380707,2.6021423,1.0155792c1.0110474-0.0136261,1.8666077-0.3822174,2.5648499-1.105484
		c0.6987305-0.7242737,1.0395813-1.5926361,1.0215149-2.6085205c-0.0180664-1.0075989-0.3886719-1.8612366-1.1119385-2.5594788
		c-0.7231445-0.6987457-1.5906067-1.0399933-2.6015625-1.026474
		C366.2089233,243.9154358,365.3532715,244.2875519,364.6550293,245.0108185z"/>
	<path class="st1" d="M372.8476868,235.2731781c0.202301-0.1433716,0.4245911-0.1931305,0.6659546-0.149231
		c0.2437744,0.0369263,0.4381104,0.156601,0.5825806,0.3573914l4.757843,6.6639709l3.2640686-2.3312378
		c0.2008972-0.1434784,0.4261169-0.1952515,0.6719055-0.1542816c0.2398376,0.0409698,0.4307556,0.1615448,0.5761414,0.3628387
		c0.1434937,0.2014008,0.1956787,0.4221802,0.1557922,0.6615143c-0.0414429,0.2473145-0.1625366,0.4430695-0.3644409,0.5865479
		l-3.9918823,2.8504791c-0.2018127,0.1438904-0.4226685,0.1937256-0.6659546,0.1493378
		c-0.2437744-0.0365295-0.4382019-0.1562042-0.581604-0.3574982l-5.2780762-7.3917694
		c-0.1438904-0.2013092-0.1941223-0.4230804-0.1497498-0.6664581
		C372.5262146,235.6115112,372.6463623,235.4176788,372.8476868,235.2731781z"/>
	<path class="st1" d="M387.9269714,238.4558258c-0.2175598,0.1178589-0.4442749,0.1409607-0.6786804,0.0671082
		c-0.2378235-0.0666046-0.415802-0.2093811-0.5335693-0.4264221l-4.31073-7.9512634
		c-0.1182556-0.2180481-0.1409607-0.4442749-0.0679932-0.6800842c0.0670776-0.2373199,0.2102661-0.4154053,0.4273071-0.5331726
		c0.2175598-0.1182556,0.4442749-0.1399384,0.6795654-0.0664825c0.2378235,0.0670013,0.414917,0.209259,0.5336914,0.4263
		l4.3106079,7.951889c0.1182556,0.217041,0.1399536,0.4436646,0.0671082,0.6790619
		C388.2871704,238.16008,388.1448975,238.3380737,387.9269714,238.4558258z"/>
	<path class="st1" d="M393.6483154,235.5504608c-0.2278442,0.0847626-0.4539795,0.076889-0.6799011-0.0220947
		c-0.2268066-0.1049347-0.383606-0.2733459-0.4703979-0.5055237l-3.1565247-8.5086517
		c-0.0857544-0.2316742-0.076355-0.461731,0.0275574-0.6891632c0.1020203-0.2209778,0.2687988-0.3738403,0.5005798-0.4606171
		l2.1542664-0.7989349c1.401825-0.5206604,2.784668-0.4699097,4.1475525,0.1518555
		c1.3589478,0.6271057,2.2993774,1.6406555,2.8175964,3.038559c0.5202637,1.4027405,0.4679871,2.7826691-0.1547852,4.1406097
		c-0.6246948,1.3638916-1.6401672,2.3067169-3.0429077,2.8269653l-2.1282043,0.8221588L393.6483154,235.5504608z
		 M393.8669434,233.5452423l1.2928772-0.5042114c0.9423218-0.3497314,1.6231079-0.9789581,2.0403442-1.8884888
		c0.4168091-0.9096222,0.4523315-1.833786,0.1035156-2.7726746c-0.3457947-0.9328461-0.9729919-1.6081848-1.8836365-2.0260162
		c-0.9115601-0.4216614-1.8357239-0.459198-2.7735901-0.1103821l-1.3085938,0.4849396L393.8669434,233.5452423z"/>
	<path class="st1" d="M405.0274048,231.6522217c-0.241333-0.0562134-0.4272156-0.1881866-0.560791-0.3959503
		c-0.1286621-0.2086639-0.1665955-0.4328613-0.1153259-0.6727142l0.5589905-2.4415131l-0.0019226-0.0078735l1.6135254-7.1070251
		c0.0059509-0.0256348,0.013916-0.0531769,0.0248108-0.0807343l0.0079651-0.0403595
		c0.0119324-0.0216827,0.0197754-0.0359192,0.024231-0.0418701c-0.0014038-0.0054474,0.0045471-0.0186615,0.0163574-0.040863
		c0.0113831-0.0176544,0.0197754-0.0294647,0.0242004-0.0354156c-0.0004883-0.0049438,0.0044556-0.0157471,0.0178528-0.033493
		c0.0157471-0.0236206,0.024231-0.0373383,0.0222168-0.0427856c0.004425-0.0053558,0.0138245-0.0142365,0.0271301-0.0270386
		c0.0158386-0.0236206,0.0272522-0.0359344,0.032196-0.0363312c-0.0049438,0.0003967,0.0029297-0.0079651,0.0256348-0.0280457
		c0.0177612-0.0182648,0.0281372-0.0304718,0.0325928-0.0359344l0.0257263-0.0275421
		c0.0221863-0.019165,0.0355225-0.0294647,0.0413513-0.0304718c0.0088806-0.0068512,0.0247192-0.0166473,0.0479431-0.0313721
		c0.0221863-0.0186768,0.0285645-0.0251312,0.0206909-0.0186768c-0.0098877,0.0068665,0,0,0.0266418-0.0196686
		c0.0242004-0.0092926,0.0409546-0.0176544,0.0488281-0.0245209c0.0059509-0.0010071,0.0227051-0.0083771,0.050354-0.0235138
		l0.0290527-0.0128174c0.010376-0.0009003,0.0271301-0.0068512,0.0507507-0.0161438l0.0360107-0.0142212
		c0.0054626-0.0009155,0.0197754-0.0029297,0.0454102-0.0072632c0.0196838-0.0034332,0.0314941-0.0053558,0.0374451-0.0063629
		c0.0102844-0.0019073,0.0241089-0.0043335,0.044281-0.0077667l0.0454102-0.0077667l0.0463257-0.000412l0.0379333,0.0011139
		c0.0097961-0.0015106,0.0285645,0.0005035,0.0550842,0.0059509c0.0310974,0.0006104,0.0419922,0.0006104,0.0315857,0.0026245
		c0.0620728,0.0040436,0.1211853,0.0179596,0.1743774,0.0387421c-0.0039368-0.0039215,0.0058289-0.0005035,0.0343933,0.0099945
		c0.0266418,0.0108032,0.043396,0.0182648,0.0492554,0.021698l0.0339966,0.0178528
		c0.0220947,0.0119171,0.0359192,0.0197754,0.0422668,0.0237122c0.0044556-0.0009003,0.0162354,0.0049438,0.0335083,0.0173645
		c0.018158,0.0122986,0.0319824,0.0202789,0.0417786,0.0232086c0.0014954,0.0049438,0.0107727,0.0128021,0.0285339,0.0262299
		c0.0226135,0.0162506,0.0344238,0.0271454,0.0359192,0.0325928l0.0274658,0.0261383
		c0.0241089,0.0158386,0.0359192,0.0266266,0.0364075,0.0315704c0.0015259,0.0049438,0.0108032,0.0167542,0.0289612,0.0335999
		c0.01828,0.0172577,0.0275574,0.028656,0.0295715,0.0335999c0.0176697,0.021698,0.0348206,0.0454102,0.0491333,0.0680084
		l3.8868408,6.1650085l0.0009155,0.00737l1.3399658,2.1170197c0.1277466,0.2081604,0.1665955,0.4324646,0.1144409,0.6723175
		c-0.0556946,0.2402496-0.1886902,0.426712-0.3963318,0.5597992c-0.1017151,0.0637665-0.2096863,0.1049347-0.3240051,0.1249237
		c-0.3938293,0.0675964-0.6960144-0.0680084-0.9091187-0.4059296l-1.0144958-1.6108093l-4.3258667,0.7410278l-0.4202576,1.8560944
		c-0.0870667,0.3894806-0.3280029,0.6180267-0.7208252,0.6852264c-0.1153259,0.0194702-0.1725464,0.0296631-0.1725464,0.0296631
		S405.144165,231.6780396,405.0274048,231.6522217z M409.8175354,226.747467l-2.0368042-3.2201843l-0.8406067,3.713089
		L409.8175354,226.747467z"/>
	<path class="st1" d="M425.0001526,219.389801c0.1907959,0.1530762,0.3013,0.3504333,0.3293457,0.593811
		c0.0231018,0.2479095-0.0428772,0.46698-0.2009888,0.6583862l-3.3127136,4.0851135l-0.0310974,4.38974
		c-0.0014954,0.247818-0.091217,0.4595032-0.2698975,0.6354828c-0.1728516,0.1701202-0.3833313,0.2548828-0.630249,0.2528534
		c-0.2487183-0.0015106-0.4564819-0.0896912-0.6279907-0.2624359c-0.1755981-0.1777954-0.2627563-0.3907928-0.2603455-0.6381073
		l0.031189-4.38974l-3.2536926-4.1327362c-0.1557922-0.1930237-0.2169495-0.4123993-0.184845-0.660614
		c0.0276489-0.2423706,0.1364136-0.4387207,0.329834-0.588562c0.1930237-0.1562958,0.4139099-0.2198639,0.6607056-0.1927185
		c0.2427673,0.0320892,0.44104,0.1447906,0.5968323,0.3383179l2.7579651,3.506958l2.8147583-3.4684143
		c0.1526794-0.1907959,0.3504333-0.3007813,0.5934143-0.3288269
		C424.590271,219.1641846,424.8103638,219.2316895,425.0001526,219.389801z"/>
	<path class="st1" d="M436.1080322,231.6499939c-0.2333679-0.0675049-0.4119873-0.2078552-0.534668-0.421875
		c-0.1217041-0.2185516-0.1468201-0.4471893-0.079834-0.6850128l2.5023804-8.7230835
		c0.068512-0.238327,0.2113037-0.4178314,0.4298401-0.5395203c0.2131042-0.1173401,0.438324-0.1424713,0.6766663-0.0739594
		l2.2073059,0.6334686c1.4382629,0.411972,2.5232544,1.2725677,3.2515869,2.5802612
		c0.7229614,1.311615,0.8786316,2.6835785,0.4670715,4.1168976c-0.411499,1.4382629-1.2715759,2.5193176-2.57724,3.2436981
		c-1.3136597,0.7274017-2.6885376,0.8850098-4.1268005,0.4730225l-2.2020874-0.5999603L436.1080322,231.6499939z
		 M437.4720154,230.1640167l1.339386,0.360611c0.9674377,0.2769775,1.8885803,0.1735535,2.7636108-0.3113708
		c0.8755188-0.4858551,1.4505615-1.2094116,1.7266235-2.1710052c0.2740479-0.9571686,0.1690063-1.8738556-0.3158264-2.7488708
		c-0.4829102-0.8799744-1.2059631-1.4580383-2.1685791-1.7340088l-1.3411865-0.3842316L437.4720154,230.1640167z"/>
	<path class="st1" d="M454.1460876,236.5678558c0.2223816,0.1083679,0.3717957,0.2801056,0.4487,0.5137939
		c0.0817261,0.2372131,0.0675049,0.4662628-0.0409546,0.6892548c-0.1083984,0.2223969-0.2791138,0.3723297-0.5143127,0.4496155
		c-0.2312622,0.0833588-0.4588013,0.0710449-0.6812744-0.0378265l-4.934021-2.4056091
		c-0.2224731-0.1078644-0.3724365-0.2791901-0.449707-0.5138855c-0.083252-0.2316742-0.0704346-0.4593201,0.0374146-0.6818085
		l3.9842224-8.170929c0.1097717-0.2274323,0.2826233-0.3787842,0.5172119-0.4561768
		c0.231781-0.083252,0.4594116-0.0709381,0.6819153,0.0374298l0.0068665,0.00354l4.920166,2.41539
		c0.2225037,0.1088715,0.3748474,0.2811127,0.4565735,0.5177155c0.0763855,0.2336884,0.0606384,0.4628448-0.047821,0.6852264
		c-0.1087646,0.2224884-0.2796021,0.3724365-0.5142822,0.4497223c-0.231781,0.083252-0.4598083,0.0709381-0.6817932-0.0379333
		l-0.0068665-0.0029297l-4.1086426-2.0199585l-1.2064819,2.473114l2.9707642,1.4489441
		c0.2223816,0.1083679,0.3757629,0.278183,0.460022,0.5109711c0.0818176,0.236618,0.0669861,0.4661713-0.0408936,0.6876526
		c-0.1078491,0.2234955-0.2807007,0.3748474-0.5178223,0.457077c-0.2341919,0.076889-0.4632263,0.0606384-0.6852112-0.0477295
		l-2.9717712-1.4484406l-1.2054749,2.4736023L454.1460876,236.5678558z"/>
	<path class="st1" d="M461.4350281,243.3634033c-1.2066956-0.8766479-1.9269104-2.0547791-2.1632385-3.5332947
		c-0.2307739-1.4795227,0.0918274-2.8229218,0.9694519-4.0281067c0.8800964-1.2101135,2.0577087-1.9318695,3.5338135-2.1641388
		c1.4814453-0.2342987,2.8262634,0.0868835,4.0320435,0.9634094c0.9936829,0.7224579,1.6640625,1.6728516,2.0133972,2.8520966
		c0.0664673,0.235611,0.0427551,0.461731-0.0719604,0.678772c-0.1206665,0.2184448-0.3008728,0.3619232-0.5394287,0.4323578
		c-0.2386169,0.0704346-0.4647522,0.0463104-0.6782532-0.0713348c-0.2180481-0.1216888-0.3649597-0.2993774-0.4379272-0.5340729
		c-0.2283325-0.7848206-0.6758118-1.4193878-1.3423767-1.9046326c-0.8062134-0.5851288-1.7015076-0.7998505-2.6911621-0.6443481
		c-0.9881287,0.156601-1.7764893,0.6387024-2.3650513,1.4483337c-0.5855103,0.8058167-0.8008423,1.7020264-0.6437378,2.6906586
		c0.1554871,0.988739,0.6356812,1.7750702,1.4413757,2.3610992c0.7610168,0.5534515,1.6025391,0.7779541,2.5274963,0.6755371
		c0.2449951-0.0280457,0.4650574,0.0350189,0.6588745,0.1885986c0.1947632,0.1541748,0.3042297,0.3553772,0.3287659,0.6052094
		c0.0285339,0.2449799-0.0345154,0.4655609-0.1891174,0.6593933c-0.1531677,0.1937256-0.3529358,0.3056335-0.5978394,0.3326721
		C463.8289185,244.5233612,462.5669556,244.1870575,461.4350281,243.3634033z"/>
	<path class="st1" d="M470.8426208,251.7523804c-1.0150757-1.1078033-1.4881897-2.4119568-1.4184875-3.9149933
		c0.0618591-1.50354,0.6470032-2.7625885,1.7541809-3.7761536c1.1062927-1.0144653,2.4119568-1.4880981,3.9194336-1.4223175
		c1.4996033,0.0652924,2.7566528,0.6513214,3.7702026,1.7581177c1.0140686,1.1067963,1.4906311,2.4119568,1.4282837,3.9160004
		c-0.0687256,1.502533-0.6562805,2.7610931-1.7640686,3.7750549c-1.10672,1.0140533-2.4094543,1.4887085-3.9095459,1.4224091
		C473.1166382,253.4447174,471.8565674,252.8586731,470.8426208,251.7523804z M477.549469,245.6062469
		c-0.6798706-0.7415314-1.522522-1.1345367-2.530426-1.1785431c-1.0128479-0.0440826-1.89151,0.2732544-2.6330261,0.9526215
		c-0.7414246,0.6792755-1.1329346,1.5243225-1.1730957,2.5347595c-0.0479126,1.0099182,0.2679138,1.8865662,0.9472656,2.6280823
		c0.6797791,0.7414398,1.527771,1.1344452,2.5407104,1.1790466c1.006897,0.0439911,1.881134-0.2738495,2.6226501-0.9536285
		c0.7414246-0.6797791,1.1368713-1.5244293,1.1843872-2.5343475
		C478.5480957,247.2239075,478.2287292,246.347168,477.549469,245.6062469z"/>
	<path class="st1" d="M487.4995117,261.5236206c-0.5673828,0.3505249-1.1904297,0.4906006-1.8681946,0.4216614
		c-0.6659546-0.0595093-1.2665405-0.3072205-1.8016052-0.7424316l-2.0674744,3.2941589
		c-0.1290588,0.2046204-0.3141174,0.333374-0.5531616,0.3860474c-0.2386169,0.0576172-0.4636536,0.0206909-0.6747131-0.1109009
		c-0.1181641-0.0755615-0.2120056-0.170929-0.2832336-0.287262c-0.1939392-0.3138123-0.1913147-0.6271057,0.0079651-0.9406128
		l2.4130554-3.8455811l-0.8072205-1.3103027l-3.0789185,1.8970642c-0.2076416,0.1267395-0.4314575,0.1612244-0.6756287,0.1035156
		c-0.2359009-0.0556946-0.419342-0.1895752-0.5490112-0.4007874c-0.1276245-0.2061462-0.1645813-0.4299316-0.1109009-0.6706848
		c0.0611572-0.2388306,0.1940613-0.4223633,0.4013062-0.5490112l7.6940613-4.7398682
		c0.2106934-0.1296539,0.4343872-0.1665802,0.6712952-0.1108856c0.2422791,0.0577087,0.4282532,0.1911011,0.5553894,0.3973541
		l1.6462097,2.671875c0.4899597,0.7962341,0.6448669,1.6361389,0.4651489,2.5186157
		C488.7060852,260.3930054,488.2449646,261.0655212,487.4995117,261.5236206z M484.5908203,259.4165955
		c0.2346802,0.353241,0.5450745,0.5903625,0.9271851,0.7104492c0.3840332,0.1130981,0.7338562,0.0739441,1.0486755-0.1199646
		c0.3261108-0.2013245,0.5213623-0.5063477,0.5862427-0.9131775c0.0619507-0.4068298-0.019989-0.7981262-0.2511597-1.1720581
		l-1.1769104-1.9107971l-2.3433533,1.4429932L484.5908203,259.4165955z"/>
</g>
<g>
	<path class="st1" d="M380.4645691,361.1920166c0.2033997,0.1408691,0.3251038,0.3334961,0.3664551,0.5768738
		c0.0439148,0.2458801-0.0039368,0.4706116-0.1447754,0.67453c-0.1409607,0.20401-0.3335876,0.3251953-0.5759583,0.3660583
		c-0.2423706,0.0483398-0.4650574,0.0010071-0.6680603-0.1399536l-4.5135498-3.1250305
		c-0.2039185-0.1409607-0.3251038-0.3330688-0.3664856-0.5764465c-0.0473328-0.2419739,0-0.4646606,0.1413574-0.6676636
		l5.1741638-7.473999c0.1443787-0.2073669,0.3365173-0.3315735,0.5803833-0.3719482
		c0.2419739-0.0483093,0.4646606-0.0010071,0.6685791,0.1398621l0.0064697,0.004425l4.4971924,3.1330261
		c0.2035217,0.1409607,0.3286438,0.3340759,0.3729248,0.5803833c0.0394592,0.2433777-0.0097961,0.4670715-0.150238,0.6700745
		c-0.1413574,0.203949-0.3335876,0.3261414-0.5769653,0.3665771c-0.2418518,0.0472412-0.4650574,0.0009155-0.6680603-0.1399536
		l-0.0068665-0.004425l-3.7547607-2.6196289l-1.5671997,2.2624512l2.7175903,1.8825073
		c0.2024841,0.1404724,0.328125,0.3325806,0.3764648,0.5744324c0.0452881,0.2459106-0.0039368,0.4706116-0.1448975,0.6740417
		c-0.1408691,0.20401-0.3339844,0.328125-0.5803833,0.3729248c-0.2438965,0.0409546-0.4660645-0.0097961-0.6700134-0.1507568
		l-2.7176819-1.882019l-1.5661926,2.2634277L380.4645691,361.1920166z"/>
	<path class="st1" d="M392.9279785,366.0696411c-0.4168396,0.8039856-1.0671387,1.3459167-1.9495544,1.6277466
		c-0.8873291,0.2793884-1.7618408,0.2192383-2.6235352-0.1808167c-0.7473755-0.3463135-1.3425903-0.8173218-1.7850647-1.4125366
		c-0.5330505-0.7148743-0.7246704-1.4834595-0.5768433-2.3067322c0.044281-0.2409363,0.1669922-0.4320374,0.3669739-0.5739136
		c0.2030029-0.1394348,0.4262085-0.1867676,0.6661682-0.1414795c0.2423401,0.0449219,0.4330444,0.167511,0.5744324,0.3665771
		c0.1389465,0.2035217,0.1867676,0.4267273,0.141449,0.667572c-0.0596313,0.3448792,0.0531921,0.6897583,0.3389282,1.034668
		c0.2606506,0.3040161,0.601593,0.5542297,1.0228577,0.7498779c0.4310303,0.2000122,0.8627014,0.2355042,1.2961731,0.1073608
		c0.434082-0.1216736,0.7524414-0.3744202,0.9543457-0.7601929c0.119751-0.2339783,0.1335754-0.4872437,0.0419617-0.7582703
		c-0.1433716-0.4339905-0.5488892-0.8109436-1.2140503-1.1311951l-0.0063477-0.0029297
		c-0.0177612-0.0083923-0.0222168-0.0103149-0.0138245-0.0063782c-0.0039368-0.0020142-0.0083923-0.0039368-0.0133362-0.0059509
		c-1.1153564-0.539917-1.8258057-1.2617798-2.1298218-2.165863c-0.2488403-0.7513123-0.1956482-1.4641724,0.1571045-2.1421509
		c0.4198608-0.8080139,1.0706787-1.3528748,1.953064-1.6347046c0.8833923-0.2809143,1.7573853-0.221283,2.6245422,0.1808167
		c0.7463684,0.3463135,1.3424988,0.8183289,1.7849731,1.4129333c0.532135,0.7144775,0.7232666,1.483551,0.5759277,2.3063049
		c-0.044281,0.2414856-0.1690063,0.4310608-0.3724365,0.5705261c-0.1995544,0.1418457-0.4197388,0.1901855-0.6607056,0.1453857
		c-0.2414551-0.0454102-0.4330444-0.167511-0.5745239-0.3665771c-0.1388245-0.20401-0.1856689-0.4267273-0.1413574-0.667572
		c0.0601196-0.3453674-0.0546875-0.6907654-0.3458862-1.0380859c-0.255188-0.3020935-0.5951233-0.5508118-1.0158997-0.74646
		c-0.4310303-0.1999817-0.864624-0.2365112-1.3016357-0.1109009c-0.4335632,0.1281433-0.7493896,0.3824158-0.9479675,0.7637329
		c-0.1206665,0.2340088-0.135498,0.4891663-0.0458069,0.7646484c0.1468201,0.4296265,0.5523376,0.8045959,1.21698,1.1238403
		l0.0343933,0.0167542c1.1144714,0.5389099,1.8240051,1.2626648,2.1265259,2.1716919
		C393.335907,364.6738586,393.2837524,365.3872375,392.9279785,366.0696411z"/>
	<path class="st1" d="M402.198822,363.0154419l-2.1722107-0.5882874c-0.240448-0.0645752-0.4212646-0.2054138-0.5454712-0.4222717
		c-0.1216736-0.2107849-0.1497498-0.4359741-0.0846558-0.6749268c0.0644836-0.2384338,0.2015076-0.4187317,0.4127808-0.5400085
		c0.2168579-0.1246338,0.4454041-0.1546936,0.6849365-0.0895996l6.0811462,1.6465149
		c0.2335815,0.0640564,0.4118958,0.20401,0.5375061,0.4207458c0.1202698,0.2108765,0.1483459,0.4354858,0.0847778,0.6749268
		c-0.0654907,0.2385559-0.2035217,0.4188538-0.4138184,0.5395203c-0.2173462,0.1246338-0.4419556,0.1552124-0.6765442,0.0921326
		l-2.1810913-0.5906677l-2.1446838,7.9178772c-0.0635681,0.2385254-0.2049255,0.4207458-0.4221497,0.5454712
		c-0.210907,0.1211853-0.4356079,0.149231-0.6750488,0.084259c-0.2384338-0.0645752-0.4192505-0.2025146-0.5394287-0.4134216
		c-0.1246948-0.2172241-0.1542664-0.4448547-0.0896912-0.6838074L402.198822,363.0154419z"/>
	<path class="st1" d="M411.4519348,372.3158569c0.2463989,0.0305786,0.4439697,0.1423645,0.5932007,0.3345032
		c0.1532898,0.192627,0.215332,0.411377,0.1842651,0.6572571c-0.0314941,0.2453918-0.1452942,0.4429626-0.3423767,0.5906982
		c-0.1921997,0.1498413-0.4109497,0.2079468-0.65625,0.177887c-0.240448-0.0300903-0.4375305-0.1423645-0.5921936-0.3349915
		c-0.149353-0.1917114-0.2079773-0.4104919-0.1763916-0.6562805c0.0295715-0.2458801,0.1418762-0.4438477,0.3334961-0.5916748
		C410.9932556,372.3444214,411.2114868,372.2852783,411.4519348,372.3158569z"/>
	<path class="st1" d="M432.5798035,373.0548706c0.0270386,0.2463074-0.0384521,0.4641418-0.1956482,0.6547546
		c-0.1517639,0.1941223-0.3493347,0.3045044-0.5956421,0.331543l-4.5450134,0.4957581
		c-0.3576965,0.0388489-0.6360779-0.091217-0.8360596-0.3892822c-0.2000122-0.298584-0.2163391-0.6074524-0.0478516-0.925293
		l3.3803406-6.278717c0.0443726-0.1577148,0.0577087-0.3192444,0.0394287-0.4848328
		c-0.0399475-0.3670654-0.2054138-0.6670532-0.4945984-0.8996277c-0.2887878-0.2276306-0.6169128-0.3212891-0.9844055-0.2818298
		c-0.3616333,0.0394592-0.6593018,0.2015076-0.8917847,0.4862366c-0.2335815,0.2901917-0.3301392,0.6178284-0.2896729,0.9849243
		c0.003418,0.0300598,0.0088806,0.0601196,0.0176392,0.0896912c0.0419922,0.2443848-0.0102844,0.4670715-0.1565857,0.6651611
		c-0.1404724,0.2039185-0.3335876,0.3261108-0.5784912,0.367981c-0.2433472,0.0418701-0.4660645-0.0073853-0.6636047-0.1483459
		c-0.2030334-0.1408386-0.3261414-0.3329468-0.3674927-0.5783691c-0.0138245-0.069519-0.0227051-0.1370239-0.0305786-0.2019958
		c-0.0941467-0.8597717,0.1305542-1.625824,0.6715088-2.300354c0.54245-0.67453,1.239563-1.0577698,2.0944214-1.1513977
		c0.8592834-0.0931396,1.625824,0.131073,2.300354,0.6725159c0.6744385,0.5419312,1.0587769,1.2424927,1.151886,2.1012878
		c0.0482483,0.4419556,0.0029297,0.8739929-0.1339722,1.2957764c-0.0143433,0.0526733-0.0335083,0.1025085-0.0591431,0.1512451
		l-2.6191101,4.8613586l2.8481445-0.3103638c0.2464294-0.0271606,0.4646606,0.0364075,0.6538696,0.1876831
		C432.4423828,372.6074524,432.5531616,372.8085632,432.5798035,373.0548706z"/>
	<path class="st1" d="M438.8309631,361.4447937c0.8405151-0.2365112,1.6426086-0.1419678,2.4023743,0.284729
		c0.7616272,0.427124,1.2602844,1.0617065,1.4962769,1.9032288l1.2262878,4.3647156
		c0.2359924,0.8365784,0.1408386,1.6357117-0.2867737,2.3959045c-0.4257202,0.7607117-1.060791,1.2588501-1.90271,1.4952698
		c-0.8370972,0.2355042-1.6347046,0.1399536-2.3964233-0.2871704c-0.7597961-0.4266968-1.257843-1.0587463-1.4928589-1.894928
		l-1.2277527-4.364624c-0.2365112-0.8420105-0.1409607-1.6431885,0.2852478-2.4038696
		C437.3617554,362.1778259,437.9933777,361.6797791,438.8309631,361.4447937z M441.0140991,364.1146545
		c-0.1025391-0.3646545-0.3192749-0.6420288-0.6509399-0.8326416c-0.3359985-0.1843567-0.6853027-0.2247009-1.0503845-0.1221924
		c-0.364563,0.102417-0.6394958,0.3192444-0.8256836,0.6498108c-0.1838379,0.3349915-0.2241821,0.6848145-0.1221924,1.0498657
		l1.2267761,4.3647156c0.1025085,0.3650818,0.3197632,0.6400452,0.6494141,0.8252869
		c0.3305359,0.1857605,0.6788635,0.2266235,1.0439148,0.124115c0.3641663-0.1029358,0.6420593-0.3197632,0.8321533-0.6513367
		c0.1842346-0.3300476,0.2266235-0.6783447,0.1242065-1.0429993L441.0140991,364.1146545z"/>
	<path class="st1" d="M449.0004883,357.6461182c0.7912598-0.3710022,1.5987854-0.4084473,2.4176025-0.1108704
		c0.8208313,0.2961426,1.4154358,0.8406067,1.7864685,1.6317749l1.9248962,4.1061096
		c0.368103,0.7868347,0.4040222,1.5899048,0.1069641,2.4101563c-0.2956543,0.8208313-0.8410034,1.4160461-1.6317749,1.7865601
		c-0.7878418,0.3695068-1.5909424,0.405426-2.4112549,0.1088562c-0.8202515-0.2971497-1.4144592-0.8390808-1.7834473-1.6259155
		l-1.9240112-4.1054993c-0.3709106-0.7922974-0.4084473-1.59729-0.1107788-2.4176025
		C447.6716919,358.6093445,448.2131348,358.0151367,449.0004883,357.6461182z M451.592041,359.9237976
		c-0.1616516-0.3438721-0.4207458-0.5818176-0.7789612-0.7153015c-0.3616333-0.1266174-0.7133789-0.109375-1.0563354,0.0511475
		c-0.3433838,0.1606445-0.5788879,0.4197693-0.7084351,0.776062c-0.1271362,0.3601074-0.1103821,0.7123413,0.0512695,1.0558167
		l1.9228821,4.105011c0.1616516,0.3429565,0.4202576,0.5793762,0.7764282,0.7085266
		c0.356781,0.1280518,0.7065125,0.112793,1.0499878-0.0483398c0.342865-0.1606445,0.5812988-0.4207458,0.714386-0.7789612
		c0.12854-0.3561707,0.1133118-0.7059937-0.0483398-1.0493774L451.592041,359.9237976z"/>
	<path class="st1" d="M460.1524658,350.994873c0.2581177-0.1773682,0.5339661-0.2093506,0.8256836-0.0975647
		c0.2956238,0.109375,0.4788818,0.3183594,0.5488892,0.6252747l2.252533,9.4980164
		c0.0463257,0.1832275,0.0345154,0.3625488-0.0354919,0.5389099c-0.0675049,0.1690063-0.1763916,0.305542-0.3256226,0.4084473
		c-0.0917053,0.0630798-0.193634,0.1074829-0.3040161,0.1340027c-0.237915,0.0541992-0.4626465,0.01828-0.6719971-0.1078491
		c-0.2129211-0.131073-0.3469238-0.317749-0.4030151-0.56073l-1.9554749-8.2213745l-2.7684631,1.9007874
		c-0.2049255,0.1398315-0.4276123,0.1857605-0.6699829,0.1374207c-0.2424622-0.0413818-0.434082-0.1645813-0.5745239-0.3684998
		c-0.1394653-0.20401-0.1871643-0.4291382-0.1408691-0.6755371c0.0437927-0.2384338,0.1685181-0.4281311,0.3719177-0.5684814
		L460.1524658,350.994873z"/>
</g>
<g>
	<path class="st1" d="M368.2553101,348.3390503c-0.2838135,0-0.5670471-0.1118164-0.7779541-0.3339844
		c-13.047821-13.7489014-20.2331543-31.7634277-20.2331543-50.7259216c0-8.0647888,1.294281-15.9925537,3.8468933-23.5626221
		c0.1896973-0.5602112,0.7957153-0.8622131,1.3593445-0.6735229c0.5611267,0.1891785,0.8627319,0.7976379,0.6735229,1.3592529
		c-2.478241,7.3484802-3.7345886,15.0456848-3.7345886,22.8768921c0,18.4101563,6.9764709,35.9004822,19.6438904,49.2488098
		c0.407959,0.4301453,0.3901978,1.1085205-0.0394287,1.516449
		C368.7858582,348.2414551,368.5203857,348.3390503,368.2553101,348.3390503z"/>
</g>
<g>
	<path class="st1" d="M473.6347656,348.3385315c-0.2650452,0-0.5306396-0.0975647-0.7385864-0.2946167
		c-0.4295349-0.407959-0.4472961-1.0863342-0.0393677-1.5164795c12.66745-13.3482971,19.6437988-30.8381348,19.6437988-49.248291
		c0-7.8298035-1.2558289-15.5249939-3.7330627-22.8719482c-0.189209-0.561615,0.1123962-1.1700745,0.6740112-1.3592529
		c0.56073-0.189209,1.170166,0.112793,1.3588562,0.6739197c2.5516052,7.5681458,3.8453674,15.493988,3.8453674,23.5572815
		c0,18.9619751-7.1853333,36.9765015-20.2330627,50.7254028
		C474.2018433,348.2267456,473.9185181,348.3385315,473.6347656,348.3385315z"/>
</g>
<g>
	<g>
		<path class="st2" d="M423.7729797,272.5826721c-0.2891846,0-0.5663757-0.1147156-0.7707825-0.3187561
			c-0.0701294-0.0700989-0.1302795-0.1493225-0.1784058-0.2339783c-0.1172485-0.1738586-0.1893921-0.3773804-0.1889954-0.586853
			l0.0210876-11.3527832c0.006073-3.3716125,2.7542419-6.1143494,6.1254578-6.1143494
			c3.3890991,0.0065613,6.1319275,2.7597656,6.1258545,6.1369629l-0.0004883,0.1979675l0.1979675-0.0004883
			c3.3826294,0,6.1308899,2.7427063,6.1368408,6.1143494c0.006073,3.3776855-2.7366638,6.1308899-6.1143494,6.1369324
			l-11.3522644,0.0209961H423.7729797z M428.7888184,256.157959c-2.1779785,0-3.946991,1.7659912-3.9509277,3.9364014
			l-0.0190735,10.3043823l10.3044128-0.019043c2.1744385-0.0040588,3.9404297-1.7764893,3.9364014-3.9509277
			c-0.0040588-2.1705017-1.7730713-3.9364929-3.9439697-3.9364929l-1.2999268,0.002533h-0.0014954
			c-0.2897034,0-0.5672913-0.1147461-0.7717896-0.3197632c-0.2054443-0.2049255-0.3201904-0.4830322-0.3196716-0.7732239
			l0.0024109-1.2929382C432.729248,257.9344482,430.9632568,256.1624146,428.7888184,256.157959z"/>
	</g>
	<g>
		<path class="st2" d="M418.1166077,272.5826721h-0.0014954l-11.3527832-0.0209961
			c-1.6362305-0.0030212-3.1731567-0.6430359-4.3277893-1.8020935c-1.1551208-1.1591492-1.789093-2.6986084-1.7860718-4.3348389
			c0.006073-3.3716431,2.7542419-6.1143494,6.1258545-6.1143494l0.2084656,0.0004883l-0.0004883-0.1979675
			c-0.0059509-3.3771973,2.7367554-6.1304016,6.1144409-6.1369629c3.3826294,0,6.1309204,2.7427368,6.1373596,6.1143494
			l0.0205994,11.3527832c0.0004883,0.2917175-0.1157532,0.5713196-0.3227844,0.7767639
			c-0.0706482,0.0702209-0.1498413,0.1293335-0.2350159,0.1769714
			C418.5245667,272.5120544,418.3235779,272.5826721,418.1166077,272.5826721z M406.7814026,262.4922791
			c-2.1779785,0-3.946991,1.7659912-3.9510193,3.9364929c-0.0019226,1.0533142,0.4064331,2.0445862,1.1496582,2.7908325
			c0.7436523,0.7461853,1.7329102,1.1580505,2.7863159,1.1600952l10.3044128,0.019043l-0.0185547-10.3043823
			c-0.0045471-2.1704102-1.7735596-3.9364014-3.9439697-3.9364014c-2.1820068,0.0044556-3.947998,1.7764893-3.9439392,3.9509277
			l0.0025024,1.2929382c0.0005188,0.2901917-0.1143188,0.5682983-0.3197632,0.7732239
			c-0.2044067,0.2050171-0.4820862,0.3197632-0.7711792,0.3197632h-0.0020142L406.7814026,262.4922791z"/>
	</g>
</g>
<g>
	<path class="st1" d="M454.8030396,275.1867676h-26.9095154h-13.8965149h-26.9100647
		c-0.6023865,0-1.0909424,0.4886475-1.0909424,1.0910339v17.8534851c0,0.6023865,0.4885559,1.0909729,1.0909424,1.0909729
		h26.9100647h13.8965149h26.9095154c0.6023865,0,1.0910645-0.4885864,1.0910645-1.0909729v-17.8534851
		C455.894104,275.675415,455.405426,275.1867676,454.8030396,275.1867676z M388.1779175,277.3687744h24.7281189v15.6715698
		h-24.7281189V277.3687744z M415.0879517,293.0403442v-15.6715698h11.7145996v15.6715698H415.0879517z M453.7120972,293.0403442
		h-24.7276306v-15.6715698h24.7276306V293.0403442z"/>
	<path class="st1" d="M450.3519592,297.826416h-22.4584351h-13.8965149h-22.4589539
		c-0.6023865,0-1.0909729,0.4885864-1.0909729,1.0909729v33.7385559c0,0.6023865,0.4885864,1.0909729,1.0909729,1.0909729
		h22.4589539h13.8965149h22.4584351c0.6023865,0,1.0910645-0.4885864,1.0910645-1.0909729v-33.7385559
		C451.4430237,298.3150024,450.9543457,297.826416,450.3519592,297.826416z M392.6289978,300.0083313h20.2770386v31.5566711
		h-20.2770386V300.0083313z M415.0879517,331.5650024v-31.5566711h11.7145996v31.5566711H415.0879517z M449.2610168,331.5650024
		h-20.2765503v-31.5566711h20.2765503V331.5650024z"/>
</g>
</svg>
