<?xml version="1.0" encoding="utf-8"?>
<!-- Generator: Adobe Illustrator 22.0.1, SVG Export Plug-In . SVG Version: 6.00 Build 0)  -->
<svg version="1.1" id="Слой_1" xmlns="http://www.w3.org/2000/svg" xmlns:xlink="http://www.w3.org/1999/xlink" x="0px" y="0px"
	 viewBox="0 0 841.8895874 595.2802734" style="enable-background:new 0 0 841.8895874 595.2802734;" xml:space="preserve">
<style type="text/css">
	.stfooter{fill:#FFFFFF;transform: translate(-80px, -140px) scale(2);}
  #el{transform:translate(-80px, -140px) scale(2);}
</style>
<ellipse id="el" transform="matrix(0.7071068 -0.7071068 0.7071068 0.7071068 -80.3482666 245.3287811)"
 cx="255.9638977" cy="219.6533203" rx="144.1181946" ry="144.1181793"/>
<g>
	<path class="stfooter" d="M224.5448914,167.9170074l-0.6493988,0.6132965c-0.4662933-0.4580078-0.9784851-0.8047028-1.5361023-1.0440063
		c-0.5478973-0.2368011-1.0966949-0.3553925-1.6186981-0.3553925c-0.6576996,0-1.2890015,0.1644897-1.8739929,0.4848022
		c-0.5942078,0.319397-1.0610046,0.7587891-1.3809052,1.3066864c-0.3291016,0.5493011-0.4936066,1.134201-0.4936066,1.7475128
		c0,0.6210938,0.1738129,1.2245941,0.5029144,1.7919922c0.3378906,0.5570984,0.805191,1.0043945,1.3988953,1.3251953
		c0.5942993,0.3296051,1.253006,0.4849091,1.956604,0.4849091c0.859787,0,1.5912933-0.2378082,2.1854858-0.7232056
		c0.5948029-0.483902,0.9419098-1.1053925,1.0518036-1.8739929h-2.6611023v-0.8140106h3.6030121
		c-0.0093079,1.2896118-0.3931122,2.3140106-1.1524048,3.0635071c-0.7586975,0.7588043-1.7738953,1.1430969-3.0449066,1.1430969
		c-1.5453949,0-2.7704926-0.5298004-3.6664886-1.5825043c-0.6953125-0.8041992-1.042511-1.7368927-1.042511-2.8056946
		c0-0.7875977,0.2017059-1.5186005,0.5948029-2.2041016c0.4018097-0.6763,0.9414063-1.2070007,1.6362-1.5917969
		c0.6952972-0.3833008,1.4819031-0.5751953,2.358902-0.5751953c0.7041016,0,1.371994,0.1278992,1.993103,0.3833008
		C223.3378906,166.9477997,223.9506989,167.3506012,224.5448914,167.9170074L224.5448914,167.9170074z M226.492691,166.5186005
		h0.8408051v8.3383026h-0.8408051V166.5186005z M229.2353973,166.5186005h4.1786957v0.8134003h-3.3461914v2.6147919h3.3461914
		v0.805603h-3.3461914v4.1045074h-0.8325043V166.5186005z M234.0355988,167.3320007v-0.8134003h4.5717926l-0.0088043,0.8134003
		h-1.8563995v7.5249023h-0.8412933v-7.5249023H234.0355988z M242.5575867,166.5186005h0.8413086l1.7192993,6.0072937
		l2.4228058-6.0072937H247.6875l2.3588867,6.0072937l1.7187042-6.0072937h0.8500977l-2.3954926,8.3383026h-0.137207
		l-2.4779968-6.308609l-2.5414886,6.308609h-0.1192169L242.5575867,166.5186005z M254.2157898,166.5186005h1.6641083
		c0.9326019,0,1.554184,0.0366058,1.8838043,0.1083984c0.5023804,0.1190948,0.9047852,0.3574066,1.2153015,0.7324066
		c0.3114929,0.3754883,0.4662781,0.8320007,0.4662781,1.3710938c0,0.4575043-0.1088867,0.8500977-0.3197937,1.1977081
		c-0.219696,0.3481903-0.5209961,0.6044922-0.9234009,0.7782898c-0.3930054,0.1728973-0.9414063,0.2642059-1.6459045,0.2734985
		l2.9990234,3.8769073h-1.0239258l-2.9990845-3.8769073h-0.4756012v3.8769073h-0.8408051V166.5186005z M255.0565948,167.3320007
		v2.8345032l1.4355927,0.0092926c0.5576172,0,0.9692078-0.055191,1.2435913-0.1557922
		c0.2652283-0.1098022,0.4756165-0.2749023,0.6216125-0.5127106c0.1465149-0.2274933,0.2285156-0.4930878,0.2285156-0.7767944
		c0-0.2826996-0.0820007-0.539093-0.2285156-0.7680969c-0.155304-0.2275085-0.3563843-0.3833008-0.6029968-0.4849091
		c-0.2466125-0.0995941-0.6493835-0.1454926-1.2255859-0.1454926H255.0565948z M264.6304016,166.5186005l3.894989,8.3383026
		h-0.8964844l-1.3076172-2.743103h-3.6112976l-1.2896118,2.743103h-0.9325867l3.9408875-8.3383026H264.6304016z
		 M264.5292969,168.2646027l-1.4350891,3.0356903h2.8618774L264.5292969,168.2646027z M269.8052063,166.5186005h1.6644897
		c0.9506836,0,1.5996094,0.0366058,1.9287109,0.1175995c0.4760742,0.1192017,0.8691711,0.3672028,1.1703796,0.7324982
		c0.3023071,0.3569031,0.4570923,0.8227081,0.4570923,1.3710022c0,0.558197-0.1459961,1.0146942-0.4477844,1.3715973
		c-0.292511,0.3661957-0.6947937,0.6045074-1.2157898,0.7315063c-0.375,0.0912933-1.0884094,0.1371918-2.1216125,0.1371918
		h-0.5942078v3.8769073h-0.8412781V166.5186005z M270.6464844,167.3320007v2.8345032l1.4077148,0.0180969
		c0.5762024,0,0.996582-0.0547028,1.262207-0.1645966c0.2650757-0.1006012,0.4657898-0.2656097,0.621582-0.5034027
		c0.1465149-0.2279968,0.2285156-0.4931946,0.2285156-0.7769012c0-0.2738953-0.0820007-0.5296936-0.2285156-0.7680054
		c-0.1557922-0.2276001-0.3565063-0.3925934-0.6029968-0.4942017c-0.2475891-0.0995941-0.6495056-0.1454926-1.2167969-0.1454926
		H270.6464844z M276.6811829,166.5186005h1.6645203c0.9506836,0,1.5903015,0.0366058,1.9286804,0.1175995
		c0.4761047,0.1192017,0.8692017,0.3672028,1.1704102,0.7324982c0.3023071,0.3569031,0.4483032,0.8227081,0.4483032,1.3710022
		c0,0.558197-0.1459961,1.0146942-0.4389954,1.3715973c-0.292511,0.3661957-0.7036133,0.6045074-1.2163086,0.7315063
		c-0.3843079,0.0912933-1.0878906,0.1371918-2.1210938,0.1371918h-0.6035156v3.8769073h-0.8320007V166.5186005z
		 M277.5131836,167.3320007v2.8345032l1.4170227,0.0180969c0.5668945,0,0.987793-0.0547028,1.2528992-0.1645966
		c0.2650757-0.1006012,0.4755859-0.2656097,0.6313782-0.5034027c0.1459045-0.2279968,0.2192078-0.4931946,0.2192078-0.7769012
		c0-0.2738953-0.0733032-0.5296936-0.2192078-0.7680054c-0.1557922-0.2276001-0.3569946-0.3925934-0.6044922-0.4942017
		c-0.2466125-0.0995941-0.6484985-0.1454926-1.2149048-0.1454926H277.5131836z M283.4379883,166.5186005h0.8320007v8.3383026
		h-0.8320007V166.5186005z M286.1908875,174.8569031v-8.3383026h0.1820984l5.5415955,6.3724976v-6.3724976h0.8408203v8.3383026
		h-0.1918945l-5.5142212-6.3178101v6.3178101H286.1908875z M302.8222961,167.9170074l-0.6397095,0.6132965
		c-0.4667969-0.4580078-0.9784851-0.8047028-1.5361023-1.0440063c-0.5575867-0.2368011-1.0976868-0.3553925-1.6278992-0.3553925
		c-0.6495056,0-1.2797852,0.1644897-1.8740845,0.4848022c-0.594696,0.319397-1.0516968,0.7587891-1.3716125,1.3066864
		c-0.3294983,0.5493011-0.4941101,1.134201-0.4941101,1.7475128c0,0.6210938,0.1646118,1.2245941,0.503418,1.7919922
		c0.3378906,0.5570984,0.8041992,1.0043945,1.3989868,1.3251953c0.5942078,0.3296051,1.243103,0.4849091,1.9565125,0.4849091
		c0.8594055,0,1.5820007-0.2378082,2.1758118-0.7232056c0.594696-0.483902,0.9515991-1.1053925,1.0609741-1.8739929h-2.6605835
		v-0.8140106h3.6019897c-0.0093079,1.2896118-0.3930054,2.3140106-1.1513062,3.0635071
		c-0.7592773,0.7588043-1.7744751,1.1430969-3.0449829,1.1430969c-1.5454102,0-2.7709961-0.5298004-3.6762085-1.5825043
		c-0.6856079-0.8041992-1.0328064-1.7368927-1.0328064-2.8056946c0-0.7875977,0.2007141-1.5186005,0.593811-2.2041016
		c0.4023132-0.6763,0.9418945-1.2070007,1.637207-1.5917969c0.6947937-0.3833008,1.4809875-0.5751953,2.3495789-0.5751953
		c0.7134094,0,1.3809204,0.1278992,2.0025024,0.3833008C301.625,166.9477997,302.2284851,167.3506012,302.8222961,167.9170074
		L302.8222961,167.9170074z M243.9838867,183.5337067l0.5762024,0.6138
		c-0.3754883,0.3099976-0.7133942,0.5843964-1.0424957,0.8221893c0.2192078,0.2109985,0.512207,0.4936981,0.8778992,0.8506012
		c0.2837067,0.2929993,0.5395966,0.5570984,0.7495117,0.7949066h-1.1611176l-1.1064911-1.1338043
		c-0.6943054,0.5585938-1.2617035,0.914093-1.691391,1.0883942c-0.4389038,0.1646118-0.8960114,0.2564087-1.3803101,0.2564087
		c-0.6401978,0-1.1524048-0.1831055-1.5453949-0.558609c-0.3838043-0.3652954-0.5855103-0.8227997-0.5855103-1.3705902
		c0-0.4121094,0.1377106-0.8321075,0.3931122-1.2442017c0.2650909-0.4208984,0.7953949-0.9506989,1.6005859-1.5814972
		c-0.4487915-0.5581055-0.7412872-0.9600067-0.8691864-1.2250977c-0.1274109-0.2647095-0.1919098-0.5117035-0.1919098-0.7588043
		c0-0.4121094,0.1651001-0.7588043,0.4849091-1.0332031c0.3656921-0.3202972,0.8226929-0.4761047,1.3715973-0.4761047
		c0.3563995,0,0.6673889,0.0733032,0.9506989,0.2105103c0.2928925,0.1371918,0.5121918,0.3295898,0.6585999,0.566391
		c0.1548004,0.2290039,0.2281036,0.4853058,0.2281036,0.7505035c0,0.2749023-0.1006012,0.5756989-0.292511,0.8959961
		c-0.2012024,0.3115082-0.5849915,0.7129059-1.1703949,1.2075043l1.2714996,1.324707l0.8226929,0.8423004
		C243.3710938,184.0375977,243.7274933,183.7626953,243.9838867,183.5337067L243.9838867,183.5337067z M240.3261871,181.5863953
		c0.4023132-0.3099976,0.7046051-0.6215973,0.9150085-0.9232941c0.1367035-0.2187958,0.2099915-0.4120941,0.2099915-0.5756989
		c0-0.1923981-0.0917969-0.3569031-0.2831879-0.5034027c-0.1831055-0.1376953-0.4302063-0.2017059-0.7412109-0.2017059
		c-0.2919922,0-0.5302887,0.0640106-0.7216949,0.2105103c-0.1830902,0.1464996-0.2743988,0.3208008-0.2743988,0.5126953
		c0,0.1548004,0.0361023,0.2929077,0.1092987,0.430603C239.7323914,180.8549957,239.9882965,181.2030945,240.3261871,181.5863953
		L240.3261871,181.5863953z M240.2167969,182.7021027c-0.7041016,0.5298004-1.1704102,0.9506989-1.3901062,1.2709961
		c-0.2192993,0.3115997-0.3199005,0.6031036-0.3199005,0.8686981c0,0.3110046,0.1285095,0.5937042,0.4024048,0.8408051
		c0.2655945,0.2382965,0.5941925,0.3661957,0.9873047,0.3661957c0.2929993,0,0.5853882-0.0639038,0.8685913-0.1830902
		c0.4488068-0.2011108,0.9517059-0.5215149,1.5269165-0.9780121l-1.3164063-1.344696
		C240.7471008,183.2958984,240.5,183.0225067,240.2167969,182.7021027L240.2167969,182.7021027z M249.3144989,186.6152039
		l1.1517944-8.3383026h0.1737976l3.3926086,6.8392944l3.3735809-6.8392944h0.1191101l1.2065125,8.3383026h-0.8134155
		l-0.8320923-5.9707031l-2.9530945,5.9707031h-0.2197113l-2.9804993-6.0166016l-0.8047028,6.0166016H249.3144989z
		 M264.3193054,178.0664063c1.2612915,0,2.3134766,0.4213867,3.1635742,1.2621918
		c0.8501282,0.8413086,1.2798157,1.8833008,1.2798157,3.1078949c0,1.2256012-0.4296875,2.2588043-1.2705078,3.108902
		c-0.8500977,0.8500977-1.8843079,1.2808075-3.1088867,1.2808075c-1.2344055,0-2.2773132-0.4307098-3.1270142-1.2714996
		c-0.8504944-0.8500977-1.2713928-1.8744965-1.2713928-3.0722961c0-0.8047028,0.1922913-1.5449066,0.5761108-2.2313995
		c0.3930969-0.6763,0.9145813-1.2154083,1.5908813-1.5996094
		C262.8193054,178.2588043,263.5419922,178.0664063,264.3193054,178.0664063L264.3193054,178.0664063z M264.3554993,178.8798981
		c-0.612793,0-1.1972961,0.1650085-1.7554016,0.4844055c-0.5483093,0.3202972-0.9779968,0.7503967-1.2979126,1.2987976
		c-0.3021851,0.5399933-0.457489,1.1430969-0.457489,1.8193054c0,0.9872894,0.3384094,1.8202972,1.0239868,2.5058899
		c0.6860046,0.6855011,1.5175171,1.0239105,2.4868164,1.0239105c0.6493835,0,1.243103-0.155304,1.7923889-0.4756012
		c0.5577087-0.3115082,0.9873962-0.7407074,1.2891235-1.2793121c0.3109741-0.5493011,0.4662781-1.152298,0.4662781-1.8208008
		c0-0.6576996-0.155304-1.2606964-0.4662781-1.7919922c-0.3017273-0.5298004-0.7402039-0.9598999-1.297821-1.2801971
		C265.5805969,179.0449066,264.9867859,178.8798981,264.3554993,178.8798981L264.3554993,178.8798981z M270.4819031,178.2769012
		h1.664093c0.9233093,0,1.5541992,0.0366058,1.8837891,0.1098022c0.5028992,0.1181946,0.905304,0.3560028,1.2065125,0.7314911
		c0.3208008,0.3740082,0.4663086,0.8320007,0.4663086,1.3720093c0,0.4565887-0.1001282,0.8500977-0.3203125,1.1967926
		c-0.2098999,0.347702-0.5112,0.6029968-0.9140015,0.7769012c-0.3930969,0.1831055-0.9418945,0.2656097-1.6455078,0.2749023
		l2.9990234,3.8764038h-1.0239258l-2.9990845-3.8764038h-0.4848022v3.8764038h-0.8320923V178.2769012z M271.3139954,179.0908051
		v2.8339996l1.4447937,0.0092926c0.5576172,0,0.9692078-0.0547028,1.2339172-0.155304
		c0.2748718-0.1098938,0.4755859-0.2748871,0.6312866-0.5116882c0.1465149-0.2290039,0.2197876-0.4942017,0.2197876-0.7769012
		c0-0.2851105-0.0732727-0.5400085-0.2197876-0.7597046c-0.1557007-0.2290039-0.3564148-0.3936005-0.6029968-0.4931946
		c-0.2475891-0.1011047-0.6586914-0.1464996-1.2256165-0.1464996H271.3139954z M277.4945984,178.2769012h4.7734985v0.8139038
		h-3.9410095v2.6147919h3.9042969v0.8134003h-3.9042969v3.2828064h3.9042969v0.8134003h-4.7367859V178.2769012z"/>
	<path class="stfooter" d="M176.3490906,220.1083984c-0.9779968,0-1.8378906-0.3296051-2.5780945-0.9873047
		c-0.75-0.6591949-1.125-1.5644989-1.125-2.707489c0-0.7495117,0.3197937-1.6822052,0.9512024-2.796402
		c0.6307983-1.1157074,1.5908051-2.2680969,2.8798981-3.4385071c1.289505-1.180191,2.8802948-2.25,4.7729034-3.2269897
		c1.8925934-0.9703064,4.0966949-1.6924133,6.6201019-2.1490021c1.0331879-3.4384003,1.7738953-6.9951019,2.2314911-10.6611023
		c0.4663086-3.6674957,0.694809-6.9125977,0.694809-9.719696c0-0.8057098-0.0278015-1.8755035-0.0918121-3.2281036
		c-0.0546875-1.344696-0.1645966-2.7884979-0.3378906-4.3343964c-0.1743011-1.5541992-0.4487-3.1182098-0.8237-4.690506
		c-0.3653107-1.5722046-0.8867035-3.0083008-1.5445099-4.2967987c-0.6586914-1.2906036-1.4911957-2.3412933-2.4964905-3.1363068
		c-0.9965973-0.8055878-2.1856079-1.207489-3.5659943-1.207489c-4.2973022,0-8.2841034,1.3710938-11.9506073,4.1239929
		c-3.6665955,2.7519989-6.9947052,6.4185028-9.9756012,11.0083008c1.7738953,2.0664978,3.2826996,4.5894012,4.5171051,7.5704041
		c1.2250977,2.980896,2.2215881,6.0625,2.9623871,9.2445984c0.7495117,3.1820984,1.2890015,6.3188019,1.6367188,9.4082031
		c0.3383942,3.1000977,0.5116882,5.8256989,0.5116882,8.1747894c0,2.7519073-0.155304,5.8608093-0.4662933,9.3256989
		c-0.319809,3.4756012-0.8041992,6.9858093-1.4629059,10.5332031c-0.6576996,3.5576019-1.5361023,7.0410004-2.6244965,10.4521027
		c-1.0874023,3.4112091-2.4136047,6.4365997-3.9584961,9.069397c-1.5454102,2.634201-3.3554993,4.7557983-5.4131012,6.3647156
		c-2.0664063,1.6098938-4.3887024,2.405304-6.9673004,2.405304c-0.914505,0-1.7095032-0.2383118-2.368103-0.7315063
		c-0.6587067-0.485321-1.2436981-1.1440125-1.7554016-1.9760132c-0.5209961-0.8320923-0.9326019-1.7647095-1.2528992-2.7978973
		c-0.3106079-1.0238953-0.585495-2.0834961-0.8135071-3.1820984c-0.5219879-2.5780945-0.7778931-5.4951019-0.7778931-8.7675934
		c0-2.9810028,0.1284943-6.6938019,0.3936005-11.137207c0.2559052-4.4443054,0.7406921-9.1977997,1.453598-14.2725067
		c0.722702-5.0751953,1.7373047-10.3055878,3.0541992-15.6903992c1.3164063-5.3862,3.0449066-10.5253906,5.1660004-15.3974915
		c-1.0332031-3.0908051-2.2588043-5.5419006-3.6576996-7.352005c-1.4076996-1.8013-2.9716949-2.7075043-4.6903992-2.7075043
		c-1.6000977,0-3.1172028,0.6045074-4.5532074,1.8115082c-1.4355927,1.1967926-2.6972961,2.5780945-3.7856903,4.1230011
		c-1.0879059,1.5458984-1.9472961,3.0357056-2.578598,4.4716949c-0.6309052,1.4360962-0.9506989,2.4042969-0.9506989,2.9257965
		c0,0.4580078-0.137207,0.8594055-0.4297028,1.2075043c-0.2832031,0.3374023-0.6128082,0.5572052-0.9878082,0.6397095
		c-0.3651886,0.0819855-0.703598,0-0.9872894-0.2564087c-0.2832031-0.2552948-0.4297028-0.7588043-0.4297028-1.5083008
		c1.0332031-3.1548004,2.4960938-5.9891968,4.3887024-8.5121918c0.8046875-1.0884094,1.7279968-2.1489105,2.789093-3.1826019
		c1.0605011-1.0332031,2.2671051-1.9564972,3.6118011-2.7792969c1.3529968-0.8135071,2.8525085-1.4717102,4.5171051-1.9751129
		c1.6635895-0.5033875,3.5014954-0.7504883,5.503891-0.7504883c1.6094055,0,3.0630035,0.2655945,4.3887024,0.7782898
		c1.3173065,0.5113068,2.5512085,1.2071075,3.6943054,2.0664063c3.0990906-4.6903992,6.7388-8.4575043,10.9174957-11.3388062
		c4.1875-2.8798981,9.0063019-4.3150024,14.4467926-4.3150024c3.3828125,0,6.2358093,0.7496033,8.558609,2.2393036
		c2.321701,1.4911957,4.196701,3.3105011,5.6322937,5.4595032c1.4349976,2.1479034,2.4676971,4.4432983,3.0991058,6.8759003
		c0.6309052,2.4418945,0.9418945,4.6264954,0.9418945,6.5830994c0,1.9476929-0.1459961,4.243103-0.4296875,6.8759003
		c-0.2832031,2.6327972-0.7861023,5.3769989-1.5088043,8.210495c-0.7129059,2.8354034-1.6820984,5.6513062-2.9165039,8.430603
		c-1.2344055,2.7798004-2.7705078,5.2763977-4.5991058,7.4790039c-1.8378906,2.2041016-4.0326996,3.9868927-6.5839996,5.331604
		C182.6952972,219.4311981,179.7319031,220.1083984,176.3490906,220.1083984L176.3490906,220.1083984z M158.0346985,227.0762024
		c0-6.4195099-0.4750977-12.7187958-1.4263-18.881897c-0.941391-6.1630096-2.0756989-11.6762085-3.3921051-16.5498047
		c-1.7099915,4.1333008-3.1362,8.440506-4.2973938,12.9384918c-1.1616058,4.507309-2.1215057,9.0064087-2.8525085,13.5049133
		c-0.75,4.4980011-1.2894897,8.9237976-1.6185913,13.2850952c-0.3471985,4.3526001-0.5214996,8.4297028-0.5214996,12.2070923
		c0,1.2060089,0.0917969,2.6968079,0.2650909,4.4707031c0.1646118,1.7826996,0.4663086,3.5117035,0.8960114,5.2031097
		c0.4208984,1.6908875,0.987793,3.1269836,1.7099915,4.3065796c0.7046051,1.1700134,1.6278992,1.7554016,2.7797089,1.7554016
		c1.0699005,0,2.0478973-0.5673828,2.8896942-1.7182007c0.8686066-1.1435852,1.608902-2.6342926,2.2216949-4.4721832
		c0.6307983-1.828598,1.1605988-3.9136047,1.5908051-6.2362976c0.4291992-2.3125,0.7588043-4.6812134,1.0243988-7.0865021
		c0.2559052-2.4131012,0.4389954-4.7176971,0.5570984-6.9217987
		C157.9707031,230.6688995,158.0346985,228.7397003,158.0346985,227.0762024L158.0346985,227.0762024z M176.5228882,218.7362976
		c1.2623138,0,2.4141083-0.3188019,3.4747009-0.9506989c1.0610046-0.6302948,2.0390015-1.4716034,2.925705-2.532196
		c0.887207-1.0610046,1.6914063-2.3227081,2.4141083-3.7850952c0.7128906-1.463913,1.3535004-3.0542145,1.9291992-4.7740021
		c-2.578598,0.2836914-4.8276062,1.0699005-6.7476044,2.3686981c-1.9203949,1.2881012-3.4013062,2.6420898-4.425705,4.0780945
		c-1.0332031,1.4360046-1.5547028,2.7246094-1.5547028,3.8677063
		C174.5385895,218.1611023,175.1972961,218.7362976,176.5228882,218.7362976L176.5228882,218.7362976z M248.7475891,213.0585938
		c0.1191101-0.5756989,0.3291016-0.9785004,0.6494141-1.2070007c0.3104858-0.2280884,0.6034851-0.3286896,0.8592834-0.3013
		c0.2559052,0.0278015,0.4756012,0.1914063,0.640213,0.4751129c0.1737976,0.2836914,0.1737976,0.6576996,0,1.1156921
		c-0.3384094,1.0879059-0.8867035,2.7978973-1.6269989,5.1206055c-0.7509003,2.3217926-1.6650085,4.8827972-2.7524109,7.6987
		c-1.0883942,2.8067017-2.3506012,5.6962891-3.7856903,8.6768036c-1.4355011,2.9809875-2.9803925,5.6962891-4.6450043,8.1278992
		c-1.6634979,2.4418945-3.4380035,4.444397-5.3305054,6.0165863c-1.8925934,1.5826111-3.8403931,2.3687134-5.8427887,2.3687134
		c-1.956604,0-3.6846008-0.5112-5.202713-1.5458984c-1.5267944-1.0322113-2.825592-2.5137024-3.9139862-4.4341125
		c-1.0874023-1.9198914-1.9468079-4.2416992-2.5776062-6.9579926c-0.6314087-2.7246094-0.9786072-5.7514954-1.0337067-9.0801086
		c-1.1513977,1.838913-2.4228973,3.3838043-3.8310852,4.6460114c-1.3989105,1.2616882-2.9897156,1.8925934-4.7725067,1.8925934
		c-0.969696,0-1.9936066-0.3755035-3.0541992-1.1156921c-1.0605011-0.7495117-2.0297089-1.746109-2.9169006-3.0083008
		c-0.886795-1.2613068-1.636795-2.7246094-2.2402954-4.3887024c-0.6030121-1.664505-0.9048004-3.4105988-0.9048004-5.2485046
		c0-2.0576019,0.5209961-4.4707031,1.5541992-7.2149048c1.0331879-2.7518921,2.5326996-5.3666992,4.5077972-7.8265991
		c1.9843903-2.4682922,4.4165039-4.5625,7.3150024-6.2812958c2.8890991-1.719696,6.2357941-2.5791016,10.0121918-2.5791016
		c1.3798981,0,2.6240082,0.2471008,3.7485046,0.7324066c1.115799,0.483902,2.0571899,1.1147919,2.8345032,1.8925934
		c0.7769012,0.7769012,1.3622894,1.6455078,1.7645874,2.6240082c0.4024048,0.9692993,0.6036072,1.9199982,0.6036072,2.8344879
		c0,0.9141083-0.1464996,1.3442078-0.4389954,1.2896118c-0.2832031-0.0552063-0.7406921-0.3115997-1.371109-0.7784119
		c-0.6313019-0.4564972-1.4906921-0.9403992-2.5785828-1.4530945c-1.0884094-0.5204926-2.4048157-0.7767944-3.9595184-0.7767944
		c-1.828598,0-3.6386871,0.8407898-5.4131012,2.5228882c-1.7826996,1.6924133-3.3734894,3.7222137-4.7723846,6.0899048
		c-1.4082031,2.3778992-2.5420074,4.8735046-3.401413,7.5077972c-0.8593903,2.6235046-1.289093,4.8720093-1.289093,6.766098
		c0,1.2060089,0.1000977,2.3672028,0.3013,3.4648132c0.2012024,1.1244965,0.7046051,1.6821899,1.5088043,1.6821899
		c0.566391,0,1.2616882-0.5484009,2.0658875-1.636795c0.7958984-1.0879059,1.5821075-2.4051971,2.3599091-3.949707
		c0.7767944-1.5541992,1.5083008-3.1454926,2.1938019-4.7728882c0.6860962-1.6363068,1.2348938-2.9990082,1.6371918-4.0874023
		c0.1094055-0.3467102,0.2281036-0.6763,0.3379059-0.9873047c0.1192017-0.3202972,0.2290039-0.6215973,0.347702-0.905304
		c0.5762024-1.3168945,1.2157898-2.367691,1.9296875-3.1362c0.7217102-0.7773895,1.508316-1.1616974,2.3676147-1.1616974
		c0.9785919,0,1.8198853,0.3110962,2.5419922,0.9419098c0.7129059,0.6303864,1.3168945,1.3901978,1.8013,2.276886
		c0.4848938,0.8960114,0.8594055,1.7920074,1.1152039,2.7153015c0.2563934,0.9146118,0.3936005,1.6558075,0.3936005,2.2315063
		c0,0.4028015-0.137207,1.3354034-0.3936005,2.7978058c-0.2557983,1.4633942-0.5117035,3.191391-0.7680054,5.2030945
		c-0.2646942,2.0025024-0.4662933,4.1147919-0.6029968,6.3359985c-0.1464996,2.2221985-0.1186981,4.2700043,0.0820007,6.1264038
		c0.2012024,1.8833923,0.6307983,3.4291992,1.2890015,4.6352997c0.6582031,1.2162933,1.7099915,1.8208008,3.1455994,1.8208008
		c1.3714905,0,2.7612-0.7051086,4.1698914-2.1128082c1.3989105-1.3993988,2.7612-3.1820984,4.0776062-5.3309937
		c1.3256989-2.1490021,2.5966949-4.5440063,3.831604-7.178299c1.2337952-2.6327972,2.3309937-5.2201996,3.309494-7.7348022
		c0.9781036-2.5234985,1.8197937-4.8003082,2.5326996-6.8383942
		C247.878891,215.6181946,248.4096985,214.0917969,248.7475891,213.0585938L248.7475891,213.0585938z M305.4194031,211.6772003
		c0.2284851-0.4564972,0.5117798-0.7675018,0.859375-0.9403992c0.3477173-0.1737976,0.6309204-0.2012024,0.8599243-0.0913086
		c0.2279968,0.1187134,0.3744812,0.3648071,0.4296875,0.7310028c0.0541992,0.3740082-0.0552063,0.8227081-0.3482056,1.3344116
		c-1.0238953,2.2953949-2.2216797,4.3159943-3.5658875,6.0619965c-1.343811,1.7475891-2.8066101,3.2832947-4.3887024,4.6000977
		c-1.5726929,1.3251953-3.2362976,2.4409943-4.9829102,3.3549957c-1.7471008,0.9145966-3.5112,1.7187958-5.2850952,2.4042969
		c-1.3262024,2.8721008-2.8984985,5.3496094-4.736908,7.4434052c-1.8280945,2.0942078-3.675293,3.7944031-5.5404968,5.1206055
		c-1.8656921,1.3173981-3.6665039,2.2865906-5.4219055,2.9169922c-1.7469788,0.6304016-3.1908875,0.9506989-4.343689,0.9506989
		c-2.4042969,0-4.1509094-0.5214996-5.2392883-1.5547028c-1.0874023-1.022995-1.6362-2.4867859-1.6362-4.3793945
		c0-1.5458984,0.3291016-2.8067017,0.9873047-3.785202c0.6581726-0.9785004,1.5912781-1.7919922,2.7978821-2.4510956
		c1.1982117-0.6578064,2.6611023-1.2071075,4.3797913-1.6363068c1.7281189-0.430191,3.6753235-0.8959961,5.8516235-1.4164886
		c1.3173828-3.0908051,2.3314819-6.1723022,3.0541992-9.2445984c0.7128906-3.0635071,1.0693054-6.1450043,1.0693054-9.2446136
		c0-2.7519989-0.1826172-5.0019989-0.5571289-6.7480927c-0.3656921-1.7460938-0.8139954-3.1362-1.3349915-4.168396
		c-0.5116882-1.0346985-1.0697937-1.7476044-1.6733093-2.1490021c-0.6034851-0.4028015-1.1342773-0.6045074-1.5912781-0.6045074
		c-0.9136047,0-1.9750977,0.2564087-3.1816101,0.7681122c-1.2070923,0.5219879-2.5328064,1.4359894-3.9956055,2.7528992
		c-1.4628906,1.3251953-3.0541992,3.1264954-4.7729797,5.4218903c-1.7192078,2.2954102-3.5570984,5.2485046-5.504425,8.8599091
		c0.054718,1.8837891,0.0825195,3.8768921,0.0825195,5.9711914c0,2.0937042,0,4.1958008,0,6.3182983
		c0,2.1206055-0.0092163,4.2056122-0.0371094,6.2353973c-0.0272827,2.0390015-0.0454102,3.9136047-0.0454102,5.632309
		c0,3.7861023,0.0454102,7.6264954,0.1278992,11.5204926c0.0918274,3.9043121,0.0552063,7.671402-0.082489,11.3110199
		c-0.1455078,3.6391907-0.4296875,7.0683899-0.8588867,10.276886c-0.430603,3.2099915-1.1616058,6.0072937-2.194809,8.3853149
		c-1.0332031,2.3763733-2.4232941,4.2523804-4.1694031,5.6322937c-1.7465973,1.3719788-4.0048981,2.0664063-6.756897,2.0664063
		c-1.4266968,0-2.5326996-0.6040039-3.3105011-1.8101196c-0.7675934-1.207489-1.3437958-2.707489-1.7187958-4.5166016
		c-0.3652039-1.8021851-0.5848999-3.7772827-0.6401062-5.934082c-0.0547028-2.1494141-0.0907898-4.1708984-0.0907898-6.0625
		c0-2.2861023,0.0907898-4.5258179,0.2645874-6.7021179c0.1646118-2.1763,0.5308075-4.5176086,1.0694122-7.0131836
		c0.5492859-2.4878082,1.3353882-5.285614,2.3685913-8.3852081c1.0337067-3.0908966,2.3775024-6.7022095,4.0410004-10.8262024
		c-0.118103-6.3632965-0.328598-11.7129059-0.6483917-16.0370941c-0.3110046-4.3345032-0.6401062-7.8999023-0.9878082-10.7071075
		c-0.3471985-2.8065948-0.6401062-5.0200043-0.9048004-6.6195984c-0.2563019-1.6098022-0.3842926-2.9257965-0.3842926-3.9589996
		c0-0.3480988,0.1459961-0.7041016,0.4296875-1.0791016c0.2832031-0.3661957,0.6490021-0.6958008,1.0791016-0.987793
		c0.4297028-0.2837067,0.9136047-0.5307007,1.4532013-0.7309113c0.5493011-0.2016907,1.0516968-0.3022919,1.5086975-0.3022919
		c1.7745056,0,3.2549133,0.1006012,4.4258118,0.3022919c1.1796875,0.2002106,2.1581879,0.7954102,2.9257965,1.7631989
		c0.7769012,0.9795074,1.362793,2.4970093,1.7650909,4.5634003c0.4024048,2.0577087,0.6856079,4.9561005,0.8594055,8.6773071
		c1.8926086-3.5473938,3.7944946-6.4550934,5.7149048-8.7232056c1.9194031-2.2679901,3.7855835-4.032196,5.5957031-5.2943878
		c1.8012085-1.2519073,3.5380859-2.1123047,5.2026062-2.5781097c1.6542969-0.4575043,3.1820984-0.6855927,4.5536804-0.6855927
		c2.7520142,0,5.0464172,0.5576935,6.8760071,1.6821899c1.8374023,1.1157074,3.300293,2.5600128,4.3882141,4.3344116
		c1.0887756,1.7827911,1.8656921,3.7304993,2.3226929,5.8520966c0.4570923,2.1201019,0.6855774,4.1503906,0.6855774,6.1078949
		c0,1.4257965-0.0546875,2.7144012-0.1733704,3.8677063c-0.1098022,1.1420898-0.2837219,2.2303925-0.512207,3.2635956
		c-0.2290039,1.0332031-0.484314,2.0209961-0.7767944,2.9716949c-0.2837219,0.9419098-0.6319275,1.9291992-1.0249023,2.9624023
		c3.0907898-1.3168945,5.9896851-3.1548004,8.6771851-5.503891
		C301.405304,218.8739929,303.6454773,215.6914063,305.4194031,211.6772003L305.4194031,211.6772003z M243.1156921,285.8876953
		c1.4076996,0,2.3404083-0.9154968,2.7974091-2.7533875c0.457489-1.8286133,0.6586914-4.5346985,0.6039886-8.1187134
		c-0.055191-3.5848999-0.219696-8.0282898-0.4756012-13.3320007c-0.2563019-5.3027039-0.3847961-11.4472961-0.3847961-18.4423981
		c-1.3618011,3.4936981-2.4129944,6.5923004-3.1815948,9.280304c-0.7583008,2.6981964-1.3070984,5.1938019-1.6460114,7.489212
		c-0.3290863,2.2851868-0.5477905,4.4707031-0.6303864,6.5283813c-0.0913086,2.0664063-0.1284027,4.2153015-0.1284027,6.4546204
		c0,0.8055725,0.0370941,1.9203796,0.1284027,3.355896c0.0825958,1.4272766,0.2373047,2.8437805,0.4570923,4.2525024
		c0.2285004,1.407196,0.539505,2.632782,0.9326019,3.6937866
		C241.9906921,285.3564148,242.4843903,285.8876953,243.1156921,285.8876953L243.1156921,285.8876953z M266.8061829,242.1255035
		c1.9477234,0,3.5112-0.9048004,4.690918-2.7153015c1.1698914-1.8007965,2.4223022-4.1421051,3.7391968-7.0039063
		c-1.8378906,0.4028015-3.4559937,0.7871094-4.8554077,1.1611023c-1.4082031,0.3755035-2.5874023,0.8320007-3.5288086,1.3721008
		c-0.9418945,0.5482941-1.6645813,1.1878967-2.1484985,1.9384003c-0.4852905,0.7402954-0.7319031,1.6914063-0.7319031,2.8330078
		C263.9716797,241.3213043,264.9136047,242.1255035,266.8061829,242.1255035L266.8061829,242.1255035z M340.9325867,211.851593
		c0.1098938-0.3378906,0.3018188-0.5756989,0.5576172-0.6855927c0.2563782-0.1190948,0.5029907-0.1557007,0.7319946-0.1284027
		c0.2279968,0.0278015,0.4111023,0.1376953,0.5570984,0.3388977c0.1464844,0.2015991,0.1923828,0.4199066,0.1283875,0.6489105
		c-0.2832031,1.0331879-0.7680969,2.5697937-1.4633789,4.598587c-0.6850281,2.0391083-1.5727234,4.2979126-2.6601257,6.7949066
		c-1.0883789,2.495697-2.3686829,5.0552063-3.8310852,7.6988068c-1.4628906,2.6327972-3.118103,5.0277863-4.9833984,7.1766968
		c-1.8656921,2.1490021-3.8950195,3.9135895-6.1079102,5.2856903c-2.2035828,1.3799133-4.5717773,2.0664063-7.0957031,2.0664063
		c-2.6879883,0-5.1293945-0.5307922-7.3051758-1.5917969c-2.1767273-1.0596008-4.0141296-2.5230103-5.5048218-4.3789063
		c-1.4902954-1.8652954-2.6333008-4.0780945-3.4379883-6.6298981c-0.8041992-2.5507965-1.206604-5.3394012-1.206604-8.3842926
		c0-3.0908051,0.5757141-5.9618988,1.718811-8.5947113c1.1522827-2.6327972,2.6239929-4.9281921,4.4344788-6.8759918
		c1.8013-1.9564972,3.8222961-3.4844055,6.0621033-4.6079102c2.2314148-1.1156921,4.4438171-1.6742859,6.6201172-1.6742859
		c1.2616882,0,2.3588867,0.2748871,3.3099976,0.8148956c0.9414063,0.5478973,1.7187805,1.2608032,2.3227844,2.1567993
		c0.6029968,0.8871918,1.0599976,1.8838043,1.3716125,3.0083008c0.3197937,1.1156921,0.4750977,2.25,0.4750977,3.3929901
		c0,1.0332031-0.2280884,2.0664063-0.6860962,3.0996094c-0.4570007,1.0323029-1.0512085,2.0025024-1.7646179,2.9263
		c-0.7128906,0.914093-1.5448914,1.8007965-2.4960938,2.660202c-0.9414063,0.8592987-1.9013977,1.6362-2.8804016,2.3226929
		c-2.2944031,1.7187958-4.9003906,3.2910004-7.8270874,4.7270966c0.5765991,2.5781097,1.3260803,4.8451996,2.2406921,6.7938995
		c0.4023132,0.8594055,0.8594055,1.6909027,1.3721008,2.4956055c0.5205078,0.8041992,1.0874023,1.5186005,1.718689,2.1490021
		c0.6309204,0.6302948,1.3529968,1.1336975,2.1572266,1.509201c0.7958984,0.3652954,1.6826782,0.5572052,2.6611938,0.5572052
		c1.7733765,0,3.5018921-0.621109,5.1566772-1.8467102c1.6646118-1.2348938,3.2095032-2.7978973,4.6450195-4.691391
		c1.4356079-1.8931122,2.7705078-4.0131989,3.9960938-6.3638c1.2338867-2.3501129,2.3222961-4.6172028,3.2730103-6.7935028
		c0.9418945-2.1762085,1.7373047-4.168396,2.3588867-5.9799042
		C340.1831055,214.0458984,340.6493835,212.710907,340.9325867,211.851593L340.9325867,211.851593z M319.2626953,208.5879059
		c-1.4360046,0-2.6519165,0.2368011-3.6576843,0.7313995c-0.9966125,0.483902-1.8560181,1.1152954-2.5786133,1.8925934
		c-0.7128906,0.7676086-1.2984009,1.6728973-1.7647095,2.7061005c-0.4570007,1.0332031-0.7948914,2.0664063-1.0238953,3.0908051
		c-0.6308899,2.4682922-0.8320007,5.2474976-0.6035156,8.3471985c2.4048157-1.0870056,4.5537109-2.3227997,6.4463196-3.7026978
		c1.6092834-1.1421051,3.0814819-2.4589996,4.425293-3.9502106c1.3529968-1.4906921,2.0209961-3.0712891,2.0209961-4.7357941
		c0-1.1436005-0.2564087-2.1582031-0.7685852-3.0440063C321.2373047,209.0263977,320.4057922,208.5879059,319.2626953,208.5879059
		L319.2626953,208.5879059z M374.4979858,212.710907c0.0552063-0.4018097,0.2115173-0.7041016,0.4761047-0.9052124
		c0.2559204-0.1909943,0.512207-0.2827911,0.7680969-0.2554016c0.2563171,0.0278015,0.4570007,0.1548004,0.6035156,0.3926086
		c0.1459961,0.2290039,0.155304,0.5677948,0.0458984,1.0243988c-0.2929993,1.6098022-0.7495117,4.1147003-1.3809204,7.5258942
		c-0.6312866,3.4096069-1.3900757,7.2226105-2.2767944,11.4380035c-0.8862,4.2142944-1.8744812,8.5400085-2.9624023,12.9828949
		c-1.0971985,4.4443054-2.25,8.5044098-3.4838867,12.1708984c-1.2344055,3.6660156-2.5147095,6.6743164-3.8311157,9.0249023
		c-1.3172913,2.3491211-2.605896,3.5288086-3.8670959,3.5288086c-2.0664978,0-3.7949829-0.457489-5.203186-1.3721008
		c-1.4077148-0.9233093-2.5512085-2.1200867-3.4384155-3.6293945c-0.8862915-1.4912109-1.581604-3.1548157-2.065979-4.9833984
		c-0.4848022-1.8379211-0.8413086-3.6846161-1.0697937-5.5684052c-0.2285156-1.855896-0.3657227-3.6201019-0.3931274-5.2851105
		c-0.0278015-1.664093-0.0365906-3.0356903-0.0365906-4.141098c0-0.5766907,0.0274048-1.5092926,0.0820923-2.7987976
		c0.0546265-1.2886047,0.1557007-2.8071899,0.3016968-4.553299c0.1465149-1.7460938,0.2837219-3.657196,0.429718-5.6869965
		c0.1464844-2.0390015,0.3021851-4.0874023,0.4755859-6.1542969c0.3384094-4.8276062,0.7680969-10.1025085,1.2894897-15.8457031
		c-0.5760803,0-1.2254944,0.1557922-1.938385,0.4853973c-0.7134094,0.3291016-1.4996033,0.6772003-2.3687134,1.0605011
		c-0.859375,0.3842926-1.8013,0.7310028-2.8339844,1.0605927c-1.0332031,0.3296051-2.1220093,0.484314-3.2827148,0.484314
		c-1.0331726,0-1.8651733-0.3745117-2.496582-1.1147003c-0.6396179-0.7505035-1.1517944-1.6924133-1.5541992-2.8081055
		c-0.4022827-1.1235046-0.6762085-2.3399048-0.8226929-3.6293945c-0.137207-1.2886047-0.2105103-2.5049133-0.2105103-3.6665039
		c0-1.3809052,0.156311-2.8345032,0.4667969-4.3975067c0.3197937-1.5550995,0.776886-2.980896,1.3529968-4.2704926
		c0.5762024-1.289505,1.2705994-2.3686066,2.0757141-3.246109c0.8134766-0.8592987,1.7095032-1.2894897,2.6972961-1.2894897
		c0.914093,0,1.664093,0.3202972,2.2035828,0.9506989c0.5484009,0.6317902,0.9779968,1.4633026,1.2617188,2.4604034
		c0.2832031,1.0053864,0.4755859,2.1669922,0.5575867,3.4555969c0.0917969,1.2894897,0.1000977,2.6063995,0.0458984,3.9315948
		c-0.1737976,3.1641083-0.6307983,6.7295074-1.344696,10.6977997c1.262207-0.6851044,2.5786133-1.3432922,3.9507141-1.9736938
		c1.151886-0.4580078,2.4135742-0.9062042,3.7855835-1.3354034c1.3710938-0.4302063,2.6694946-0.6405945,3.8666992-0.6405945
		c2.2408142,0,3.960022,0.8314972,5.1582947,2.4964905c1.2060242,1.6548004,2.0664063,3.8404083,2.5869141,6.5283966
		c0.512207,2.696701,0.7402039,5.7783051,0.6860046,9.2446136c-0.054718,3.4740906-0.2471008,6.9945984-0.5576172,10.578598
		c-0.320282,3.5839996-0.7050781,7.1039886-1.1615906,10.5791016c-0.4570923,3.4648895-0.8320923,6.5463867-1.125,9.2431946
		c-0.2832031,2.6893921-0.4287109,4.8735046-0.4287109,6.5385132c0,1.6547852,0.3193054,2.4863892,0.9501038,2.4863892
		c0.5762024,0,1.2896118-1.0606079,2.1490173-3.1806946c0.8592834-2.1216125,1.7460938-4.8105164,2.6694031-8.0835114
		c0.9145813-3.2646027,1.8559875-6.9033051,2.8349915-10.9174957c0.968689-4.0140991,1.8920898-7.8999023,2.7518921-11.6488953
		c0.8594055-3.7578125,1.6006165-7.1688995,2.2309875-10.2412109
		C373.7485046,216.3954926,374.2050781,214.1470032,374.4979858,212.710907L374.4979858,212.710907z M340.5853882,210.214798
		c0.694397-3.4384003,1.1519165-6.5278015,1.3804016-9.2796936c0.0546875-1.1534119,0.082489-2.2774048,0.082489-3.4019012
		c0-1.1157074-0.082489-2.1215973-0.2557983-3.0083008c-0.1737976-0.887207-0.4301758-1.6011047-0.7773743-2.1488953
		c-0.3383179-0.5484009-0.8320007-0.8140106-1.4633179-0.8140106c-0.4570923,0-0.8959961,0.3569031-1.3251953,1.069809
		c-0.4296875,0.7221985-0.8233032,1.5908966-1.1617126,2.6240997c-0.3470764,1.0331879-0.6219788,2.1673889-0.8226929,3.4017944
		c-0.2016907,1.2245941-0.3023071,2.3583984-0.3023071,3.3916016c0,1.2075043,0.073822,2.3506012,0.2198181,3.4389954
		c0.1464844,1.0868988,0.3837891,2.0205078,0.7319031,2.7973022c0.3471985,0.7774048,0.8134766,1.3437958,1.4165039,1.7187958
		C338.9115906,210.3798981,339.6708984,210.4530945,340.5853882,210.214798L340.5853882,210.214798z"/>
</g>
</svg>
