<svg version="1.2" xmlns="http://www.w3.org/2000/svg" viewBox="0 0 290 290" width="290" height="290">
	<title>main_top_block_icons-02-svg</title>
	<style>
		.s0 { fill: #fcdc0c } 
		.s1 { fill: #00dc0c } 
	</style>
	<g id="svgg">
		<path id="path0" fill-rule="evenodd" class="s0" d="m111.1 21.7c0 0.2 0.3 0.3 0.6 0.3 0.4 0 0.8 0.1 0.9 0.3 0.2 0.2 0.6 0.4 1 0.4 0.3 0 0.6 0.2 0.6 0.4 0 0.1 0.4 0.3 0.8 0.3 0.4 0 0.8 0.2 0.9 0.5 0.1 0.3 0.3 0.6 0.5 0.6 0.2 0 1.4 1 2.6 2.2 1.3 1.2 2.4 2.2 2.5 2.1 0.1-0.1 0.2 0 0.2 0.2 0 0.3 0.4 1.1 1 1.8 0.5 0.7 1 1.3 1.1 1.4 0 0.1 0.1 0.6 0.2 1 0.1 0.5 0.3 0.8 0.5 0.8 0.1 0 0.4 0.7 0.7 1.4 0.2 0.8 0.5 1.4 0.6 1.3 0.4-0.2 0.5 1.9 0.7 10 0 4.7 0 7.1-0.3 7.1-0.2 0-0.3 0.5-0.2 1.2 0.1 0.6 0 1.4-0.2 1.8-0.2 0.4-0.4 1.2-0.4 1.8-0.1 0.6-0.3 1.6-0.5 2.3-0.2 0.6-0.3 1.3-0.2 1.5 0.1 0.1 0 0.3-0.1 0.3-0.2 0-0.5 0.6-0.7 1.3-0.1 0.7-0.3 1.4-0.3 1.5-0.2 0.7-0.6 1.7-0.9 2.2-0.2 0.3-0.3 0.9-0.3 1.3 0 0.4-0.2 0.7-0.4 0.7-0.2 0-0.3 0.4-0.3 0.7 0 0.4-0.2 0.7-0.4 0.7-0.2 0-0.3 0.4-0.3 0.8 0 0.3-0.2 0.7-0.4 0.7-0.2 0-0.2 0.3-0.2 0.7 0.1 0.4 0 0.7-0.2 0.7-0.2 0-0.3 0.2-0.3 0.5 0 0.3-0.2 0.5-0.4 0.5-0.2 0-0.3 0.3-0.3 0.6 0 0.5-1.6 3.6-2.2 4.2-0.1 0.2-0.3 0.6-0.3 1 0 0.3-0.1 0.6-0.3 0.6-0.2 0-0.4 0.2-0.4 0.4 0 0.4-1.8 3.3-2.2 3.4-0.2 0.1-0.3 0.4-0.3 0.7 0 0.2-0.1 0.5-0.3 0.5-0.3 0-0.3 0.1-0.2 0.3 0.1 0.2 0.1 0.4-0.1 0.3-0.1 0-0.7 0.1-1.3 0.4-1.5 0.6-4.7 0.5-7-0.2-0.4-0.1-1.4-0.2-2.3-0.2-0.9 0-1.4-0.1-1.3-0.3 0.1-0.2-0.3-0.3-0.9-0.3-0.6 0-1.1-0.2-1.3-0.4-0.1-0.2-0.7-0.3-1.3-0.3-0.6 0.1-1.5 0-2-0.3-0.5-0.3-1.5-0.6-2.2-0.7-0.7-0.1-1.3-0.3-1.3-0.5 0-0.2-0.4-0.3-0.9-0.3-0.5 0-1-0.2-1.1-0.4-0.1-0.1-0.9-0.4-1.9-0.5-0.9-0.2-2-0.6-2.5-0.9-0.4-0.4-1.1-0.7-1.5-0.7-0.3 0-0.6-0.2-0.6-0.3 0-0.2-0.3-0.4-0.6-0.4-0.5 0-2.6-1-3-1.5-0.1-0.1-0.7-0.4-1.5-0.6-0.7-0.3-1.3-0.6-1.3-0.8 0-0.1-0.4-0.3-0.9-0.4-0.5-0.2-0.9-0.4-0.9-0.6 0-0.2-0.2-0.3-0.5-0.3-0.3 0-0.5-0.2-0.3-0.5q0.2-0.4-0.3-0.1c-0.4 0.1-0.6 0.1-0.6-0.1 0-0.2-4-3.6-4.5-3.7-0.5-0.1-3.7-3.4-3.7-3.7 0-0.3-0.2-0.4-0.5-0.4-0.3 0-0.5-0.3-0.5-0.7 0-0.4-0.2-0.7-0.4-0.7-0.2 0-0.3-0.3-0.3-0.5 0-0.3-0.4-0.9-0.8-1.4-0.4-0.6-0.6-1-0.5-1 0.1 0-0.1-0.6-0.5-1.4-0.4-0.7-0.7-1.7-0.7-2 0-0.4-0.1-0.8-0.3-1-0.6-0.7-1.2-6.3-0.8-8 0.2-0.8 0.4-2.2 0.5-3 0.1-0.7 0.4-1.9 0.7-2.5 0.3-0.7 0.5-1.2 0.4-1.2-0.2 0-0.1-0.2 0.1-0.4 0.3-0.2 0.4-0.7 0.4-0.9 0-0.3 0.3-0.8 0.7-1.1 0.4-0.3 0.8-0.9 0.9-1.4 0.2-0.4 0.4-0.8 0.6-0.8 0.2 0 0.3-0.2 0.3-0.4 0-0.5 2.3-2.8 2.8-2.8 0.2 0 0.4-0.2 0.3-0.4 0-0.2 0.1-0.4 0.4-0.3 0.2 0 0.5-0.2 0.6-0.5 0.2-0.3 0.5-0.5 0.9-0.5 0.3 0 0.7-0.2 0.8-0.4 0.2-0.1 0.7-0.4 1.3-0.5 0.6-0.1 1.2-0.5 1.3-0.7 0.1-0.3 0.4-0.5 0.8-0.5 0.3 0 1.6-0.1 2.8-0.3 1.2-0.2 3.9-0.2 5.8-0.1 3.8 0.3 4.3 0.2 4-0.6-0.1-0.3 0-0.6 0.3-0.7 0.3-0.1 0.6-0.6 0.7-1.2 0.2-0.6 0.4-1 0.6-0.8 0.2 0.1 0.3-0.2 0.3-0.6 0-0.4 0.2-0.6 0.4-0.5 0.1 0.1 0.5-0.2 0.7-0.6 0.5-1 1.2-1.7 1.6-1.7 0.2 0 0.9-0.7 1.5-1.4 0.7-0.8 1.4-1.3 1.6-1.2 0.2 0.1 0.4 0.1 0.5-0.1 0.4-0.6 3.1-1.9 4.1-2 0.5-0.1 1-0.2 1.1-0.3 0.6-0.6 11.2 0.1 11.2 0.8zm-9 9.1c-0.2 0.2-0.4 0.3-0.6 0.2-0.2-0.1-0.5 0.1-0.8 0.4-0.3 0.3-0.7 0.5-0.9 0.4-0.4-0.1-3 2.5-3.7 3.8-1.1 2-1.8 3.9-1.8 4.7-0.1 0.4-0.2 0.9-0.3 1-0.2 0.1-0.3 0.5-0.3 0.8 0 0.2-0.4 0.8-0.9 1.2-0.4 0.4-0.8 0.9-0.8 1.1 0 0.7-4.1 0.5-5.8-0.2-0.7-0.4-1.4-0.6-1.5-0.6-0.2 0-0.4-0.2-0.5-0.4-0.2-0.2-0.8-0.4-1.4-0.4-0.6 0-1.1-0.1-1.1-0.3 0-0.1-0.8-0.2-1.8-0.2-0.9 0-1.7 0.1-1.7 0.2 0 0.1-0.4 0.2-0.8 0.3-1.9 0.1-5 2.4-5.3 4-0.1 0.2-0.4 0.7-0.7 1.1-1 1.1-1.5 5.8-0.9 8.4 0.1 0.5 0.2 1.1 0.2 1.4 0 0.3 0.3 0.9 0.7 1.3 0.4 0.4 0.6 0.8 0.5 1-0.3 0.3 2.5 3.6 4 4.6 0.7 0.6 1.6 1.3 1.8 1.7 0.3 0.3 0.8 0.6 1.1 0.6 0.4 0 1 0.4 1.5 0.9 0.4 0.5 1 0.9 1.2 0.9 0.3 0 0.9 0.3 1.3 0.7 0.5 0.4 1 0.6 1.2 0.4 0.1-0.1 0.2 0 0.2 0.2 0 0.3 0.2 0.4 0.5 0.4 0.3 0 0.5 0.2 0.5 0.4 0 0.2 0.3 0.3 0.6 0.3 0.2 0 1.1 0.4 1.8 0.7 3.4 1.7 4.8 2.2 6.4 2.3 0.4 0 0.6 0.2 0.6 0.3-0.2 0.3 0.4 0.4 1 0.3 0.2 0 0.5 0.1 0.8 0.3 0.2 0.2 0.9 0.5 1.5 0.5 0.6 0 1.1 0.2 1.1 0.3 0 0.2 0.5 0.3 1.1 0.3 0.5 0 1.1 0.2 1.2 0.4 0.1 0.1 1 0.3 1.9 0.3 0.9 0 1.9 0.2 2.1 0.4 0.9 0.9 4.5-3.3 4.1-4.7-0.1-0.2 0.1-0.4 0.4-0.5 0.3-0.1 0.5-0.4 0.5-0.5 0-0.2 0.4-1.2 0.9-2.2 0.5-1 0.9-2.1 0.9-2.5 0-0.3 0.1-0.6 0.3-0.6 0.2 0 0.6-1 0.9-2.2 0.4-1.2 0.8-2.4 1-2.7 0.2-0.2 0.3-0.4 0.1-0.4-0.1 0 0.1-0.5 0.4-1.1 0.3-0.6 0.5-1.5 0.4-1.9-0.1-0.5 0-0.8 0.1-0.7 0.7 0.4 2.1-12.6 1.6-13.9-0.2-0.4-0.3-1.2-0.4-1.9-0.1-0.6-0.3-1.2-0.5-1.3-0.2-0.1-0.3-0.5-0.3-0.9 0-1.4-3.9-6.2-5-6.2-0.2 0-0.4-0.2-0.4-0.4 0-0.2-0.2-0.4-0.5-0.4-0.3 0-0.5-0.1-0.5-0.3 0-0.2-0.2-0.3-0.4-0.2-0.2 0.1-0.3 0.1-0.3-0.1 0-0.2-0.6-0.4-1.3-0.6-2.9-0.5-5-0.6-5.2-0.2zm84.1 26.1c0.4 0.3 1.5 0.4 2.8 0.5 0.7 0 1.6 0.3 3.1 1.1 0.4 0.1 0.9 0.3 1.2 0.3 0.3 0 0.5 0.1 0.5 0.2 0 0.2 0.7 0.6 1.6 1 0.9 0.3 1.5 0.7 1.4 0.9-0.1 0.2 0.2 0.4 0.5 0.5 0.4 0.1 0.8 0.4 0.8 0.6 0 0.2 0.1 0.3 0.3 0.1 0.2-0.1 0.8 0.5 1.3 1.3 0.6 0.9 1.1 1.7 1.3 1.8 0.4 0.3 3.4 6.3 3.1 6.4-0.2 0 6.5 0.6 8.4 0.6 0.5 0.1 1.4 0.4 2.1 0.8 0.6 0.3 1.4 0.6 1.7 0.6 0.3 0 0.5 0.2 0.5 0.4 0 0.1 0.5 0.4 1 0.5 0.5 0.1 1.9 1.1 3.1 2.2 1.1 1.1 1.9 1.8 1.8 1.5-0.2-0.3 0-0.2 0.3 0.2 0.3 0.4 0.5 0.9 0.5 1.1 0 0.3 0.3 0.6 0.7 0.8 0.4 0.3 0.7 0.6 0.5 0.8-0.1 0.2 0.1 0.8 0.5 1.3 0.8 1.1 1.4 2.7 1.7 4 0 0.4 0.1 0.8 0.2 0.8 0 0 0.1 0.7 0.2 1.5 0.4 2.9 0.2 9.8-0.3 9.5-0.3-0.2-0.4 0.6-0.3 1.3 0 0.2-0.2 0.3-0.3 0.3-0.2 0-0.4 0.3-0.4 0.7 0 0.4-0.5 1.6-1.1 2.7-0.5 1.1-0.9 2.2-0.8 2.4 0.1 0.2 0.1 0.2-0.2 0.1-0.2-0.2-0.4-0.2-0.4 0 0 0.2-0.8 1.2-1.8 2.2-1 1.1-1.6 2-1.4 2.1 0.2 0.1 0.3 0.3 0.2 0.4-0.1 0.2 0 0.4 0.3 0.4 1.2 0.1 1.9 0.2 3.3 0.5 0.9 0.1 1.7 0.2 1.8 0.2 0.2 0 0.5 0.2 0.8 0.4 0.4 0.4 0.4 0.4 0.2 0-0.1-0.2-0.1-0.4 0.1-0.4 0.2 0 0.5 0.1 0.6 0.3 0.1 0.2 0.8 0.4 1.5 0.5 0.7 0.1 1.8 0.3 2.4 0.4 0.6 0.1 1.5 0.2 2 0.2 0.5 0.1 1 0.2 1 0.3 0 0.1 0.5 0.2 1.1 0.2 0.7 0 1.4 0.1 1.7 0.2 0.3 0.2 1.3 0.4 2.1 0.5 0.8 0.1 1.6 0.2 1.7 0.3 0.2 0.1 0.9 0.3 1.7 0.3 0.7 0.1 1.4 0.2 1.5 0.4 0.1 0.1 0.5 0.3 0.9 0.3 1.1 0 3.6 2.3 4.2 3.9 0.2 0.7 0.5 1.2 0.7 1.1 0.2 0 0.2 0.1 0.1 0.4-0.2 0.4 2.2 5.4 3.1 6.5 0.2 0.2 0.2 0.6 0.1 0.8-0.1 0.2-0.1 0.3 0.1 0.3 0.2 0 0.5 0.6 0.8 1.3 0.3 0.7 0.6 1.2 0.7 1.2 0.2 0 1.2 2.1 1.3 3 0.1 0.3 0.4 0.8 0.6 1.1 0.3 0.3 0.5 0.7 0.4 0.9-0.1 0.2-0.1 0.3 0.2 0.3 0.2 0 0.3 0.3 0.3 0.6 0 0.3 0.2 0.4 0.4 0.3q0.4-0.2 0.3 0.2c-0.1 0.3 0.1 1 0.5 1.7 0.3 0.6 0.5 1.3 0.4 1.5-0.1 0.2 0 0.3 0.2 0.3 0.2 0 0.5 0.5 0.7 1 0.2 0.5 0.9 2.1 1.6 3.4 0.6 1.4 1.4 3 1.6 3.7 0.3 0.6 0.6 1.1 0.8 1.1 0.1 0 0.2 0.2 0.2 0.4 0 0.6 1.9 4.4 2.2 4.5 0.2 0.1 0.3 0.4 0.3 0.8 0 0.4 0.1 0.7 0.3 0.7 0.3 0 0.9 1.3 1.3 2.8 0.2 0.5 0.6 1.3 1 1.9 0.4 0.6 0.7 1.5 0.7 2.4 0 0.7 0.1 1.4 0.3 1.5 0.9 0.6-2 3.8-3.8 4.1-0.8 0.2-2.2 0.5-3.3 0.7-2 0.4-2.7 0.6-5.6 1-0.8 0.1-1.6 0.3-1.7 0.5-0.1 0.1-0.7 0.3-1.4 0.3-0.7 0-1.2 0.1-1.1 0.3 0.1 0.1-0.2 0.3-0.6 0.2-0.4 0-1.7 0.2-2.8 0.5l-2 0.5v40.2c0 30.8-0.1 40.3-0.5 40.9-0.5 0.9-2.5 2.7-2.8 2.4-0.1-0.1-1.1 0.1-2.2 0.4-1.1 0.2-2.2 0.4-2.5 0.3-0.3-0.1-0.5-0.1-0.5 0.1 0 0.2-0.5 0.4-1.2 0.4-1.4 0.1-2.1 0.3-6.4 1.1-2 0.4-4 0.8-4.6 0.9-0.6 0.1-2.1 0.4-3.4 0.6-1.2 0.2-2.9 0.4-3.8 0.6-0.8 0.1-1.4 0.3-1.3 0.5 0.2 0.2-0.2 0.3-0.8 0.2-1.1-0.2-5.5 0.5-6.2 1-0.2 0.2-1.2 0.3-2.1 0.3-0.9-0.1-1.6 0.1-1.5 0.2 0.1 0.2-0.5 0.3-1.4 0.3-0.9 0-1.7 0.2-1.7 0.3-0.1 0.2-1.1 0.3-2.1 0.4-1 0-1.9 0.2-2 0.3-0.1 0.2-0.7 0.3-1.3 0.3-0.6-0.1-1.5 0.1-1.9 0.3-0.5 0.2-1.3 0.4-1.8 0.4-0.5 0-1.1 0-1.2 0.2-0.2 0.1-1 0.2-1.8 0.3-0.8 0-1.5 0.2-1.6 0.3-0.1 0.1-1 0.3-2 0.4-0.9 0-1.9 0.2-2.1 0.4-0.1 0.2-0.9 0.3-1.7 0.3-1 0-1.3 0.2-1.1 0.5 0.3 0.3 0.2 0.3-0.2 0-0.3-0.3-0.7-0.4-0.8-0.3-0.1 0.1-0.7 0.3-1.3 0.4-0.7 0.1-2.1 0.3-3.2 0.5-1.1 0.2-2.6 0.5-3.3 0.6-0.8 0.1-1.7 0.2-2 0.4-0.3 0.1-1 0.2-1.6 0.3-0.6 0.1-1.3 0.2-1.6 0.4-0.3 0.1-1.1 0.2-1.7 0.2-0.7 0.1-2.2 0.3-3.2 0.5-1.1 0.3-2.6 0.5-3.4 0.7-0.8 0.1-1.6 0.3-1.8 0.5-0.3 0.2-0.6 0.2-0.8 0.1-0.2-0.1-1.1 0-1.9 0.2-0.8 0.2-2 0.4-2.6 0.4-0.7 0.1-1.2 0.2-1.2 0.3 0 0.1-0.7 0.2-1.5 0.3-0.8 0-1.6 0.2-1.7 0.4-0.2 0.4-7.4 0.5-7.9 0.1-0.4-0.4-3.2-0.8-5.6-1-0.7 0-1.4-0.2-1.6-0.3-0.3-0.1-1.1-0.3-1.9-0.3-0.9-0.1-1.9-0.3-2.3-0.5-0.3-0.2-1.1-0.3-1.7-0.3-0.6 0-1.2-0.1-1.3-0.3-0.1-0.1-1-0.3-2-0.3-1-0.1-1.9-0.2-1.9-0.3 0-0.3-2.5-0.7-4.6-0.8-0.7 0-1.4-0.2-1.6-0.3-0.1-0.2-0.8-0.3-1.6-0.3-0.7 0-1.4-0.2-1.5-0.3-0.1-0.2-1-0.4-2-0.4-1 0-1.7-0.1-1.7-0.3 0-0.1-0.6-0.3-1.4-0.2-0.7 0-1.4-0.2-1.5-0.4-0.2-0.1-1.2-0.3-2.2-0.3-1.1 0-1.9-0.1-1.8-0.3 0.1-0.1-0.2-0.3-0.6-0.3-1.5-0.1-1.9-0.2-2.4-0.4-0.3-0.1-1.4-0.3-2.5-0.4-3.1-0.4-3.8-0.5-4.2-0.7-0.1-0.1-1-0.2-1.8-0.3-0.8 0-1.4-0.2-1.4-0.3 0-0.1-0.7-0.2-1.5-0.3-0.8 0-1.7-0.2-2-0.4-0.4-0.1-1.3-0.3-2.2-0.4-0.9 0-1.8-0.2-1.9-0.3-0.2-0.2-1.1-0.3-1.9-0.2-0.8 0-1.4-0.1-1.3-0.3 0.1-0.1-0.4-0.2-1-0.2-0.7 0-1.3-0.1-1.5-0.3-0.1-0.1-0.5-0.2-0.8-0.3-1.1-0.1-2.5-0.4-2.9-0.7-0.2-0.1-0.4 0-0.4 0.2 0 0.4-0.1 0.4-0.5 0.1-0.2-0.3-1.1-0.5-1.9-0.5-0.8 0-1.5-0.1-1.5-0.3 0-0.1-0.2-0.2-0.6-0.2-0.3-0.1-1.1-0.2-1.7-0.3-0.5-0.1-1.8-0.3-2.7-0.4-1-0.1-2-0.3-2.3-0.5-0.4-0.1-1-0.2-1.5-0.2-0.5 0.1-1 0-1.2-0.2-0.2-0.1-1-0.3-1.8-0.4-0.8-0.2-2.4-0.4-3.5-0.6-1.2-0.2-2.7-0.5-3.4-0.5-0.7-0.1-1.7-0.3-2.3-0.5-0.5-0.3-1.2-0.4-1.4-0.3-0.4 0.1-3.4-2.7-3.4-3.2 0-0.3-0.2-0.5-0.4-0.5-0.3 0-0.3-0.1 0-0.4 0.6-0.6 0.6-78.1 0-79.2-0.3-0.6-0.6-0.6-2.1-0.5-1 0.1-1.7 0-1.5-0.2 0.2-0.3-0.2-0.4-1.7-0.4-0.5 0.1-1.1-0.1-1.2-0.3-0.1-0.1-1-0.3-1.9-0.3-1 0-1.8-0.1-1.9-0.3-0.1-0.1-0.9-0.3-1.7-0.4-0.8 0-1.7-0.2-1.9-0.3-0.2-0.1-0.6-0.3-0.9-0.3-0.7-0.1-3.6-0.6-4.2-0.7-0.3 0-1.1-0.2-1.7-0.3-0.6-0.1-1.2-0.4-1.2-0.6 0-0.1-0.2-0.3-0.4-0.3-0.3 0-0.7-0.4-1-0.9-0.2-0.5-0.6-0.9-0.7-0.9-0.2 0-0.3-0.8-0.3-1.9 0-1.1 0.1-1.9 0.3-1.9 0.2 0 0.3-0.3 0.2-0.5-0.1-0.3 0-0.7 0.2-1 0.6-0.6 1.5-2.5 1.5-2.8-0.1-0.2 0.1-0.5 0.4-0.7 0.3-0.2 0.5-0.7 0.5-1 0-0.4 0.2-0.8 0.4-1 0.6-0.6 2.5-4.5 2.5-5.2 0-0.3 0.1-0.6 0.3-0.6 0.2 0 0.4-0.2 0.4-0.5 0-0.3 0.1-0.5 0.3-0.5 0.2 0 0.4-0.4 0.4-0.7 0-0.4 0.2-0.8 0.3-0.9 0.2-0.2 0.3-0.4 0.2-0.6-0.1-0.2 0-0.3 0.1-0.3 0.2 0 0.7-0.8 1.2-1.7 0.4-0.9 1-1.8 1.2-1.9 0.2-0.2 0.2-0.3 0-0.3-0.1 0 0-0.4 0.3-0.9 0.3-0.5 0.5-1.1 0.4-1.3q-0.3-0.4 0.1-0.1c0.3 0.1 0.4 0 0.4-0.3 0-0.3 0.2-0.6 0.3-0.6 0.1 0 0.6-0.8 0.9-1.7 1-2.4 1.6-3.8 1.7-3.4 0 0.4 1.1-2 1.1-2.6 0-0.2 0.2-0.4 0.4-0.4 0.2 0 0.2-0.3 0.1-0.6-0.1-0.3-0.1-0.4 0.1-0.3 0.2 0.1 0.4-0.2 0.4-0.7 0-0.5 0.1-0.8 0.3-0.7 0.4 0.2 0.5-0.3 0.4-1 0-0.1 0.1-0.3 0.3-0.3 0.4 0 1.1-1.7 0.9-2.2q-0.2-0.3 0.2-0.1c0.2 0.2 0.4 0 0.4-0.5 0-0.4 0.1-0.7 0.3-0.7 0.3 0 1-1.5 0.7-1.6-0.1-0.1 0.1-0.4 0.5-0.8 0.4-0.4 0.5-0.9 0.4-1.1-0.1-0.2 0-0.4 0.4-0.4 0.3 0 0.4-0.2 0.3-0.4-0.1-0.2 0.1-0.7 0.5-1.1 0.6-0.8 1.3-2.1 1-2.3-0.2-0.2 2.4-1.4 2.7-1.3 0.1 0.1 0.2 0 0.2-0.2 0-0.2 0.2-0.3 0.3-0.3 0.9 0.1 2.9-0.1 2.8-0.3-0.1-0.2 0.6-0.4 1.6-0.4 1 0 2-0.2 2.2-0.3 0.2-0.1 0.8-0.2 1.3-0.2 0.5 0.1 1.6-0.1 2.4-0.4 0.8-0.3 1.8-0.5 2.1-0.4 0.4 0.1 0.8 0 0.9-0.1 0.1-0.2 0.8-0.3 1.5-0.4 0.7 0 1.5-0.2 1.6-0.5 0.2-0.3 0.3-0.3 0.3 0.1q0 0.5 0.5 0.1c0.2-0.1 0.9-0.3 1.5-0.4 0.5 0 2-0.3 3.3-0.6 1.3-0.3 2.9-0.6 3.6-0.7 0.6-0.1 2.1-0.3 3.3-0.5 1.2-0.2 2.8-0.5 3.6-0.6 0.9-0.1 1.5-0.3 1.5-0.5 0-0.1 0.5-0.2 1.1-0.1 0.6 0.1 1.7 0 2.5-0.2 0.9-0.3 1.9-0.5 2.3-0.6 0.6-0.1 3.1-0.6 5.3-1 0.4-0.1 1.1-0.1 1.7-0.2 0.6 0 0.9-0.1 0.7-0.4q-0.2-0.3 1-0.2c0.6 0.1 1.6 0 2.1-0.2 0.4-0.2 1.3-0.4 1.9-0.4 2.3-0.3 4.3-0.6 4.8-0.8 0.3-0.1 1.2-0.3 2.1-0.3 0.8-0.1 1.7-0.3 1.9-0.5 0.3-0.2 4-0.8 5.9-0.9 0.4 0 0.8-0.1 0.9-0.3 0.1-0.1 0.9-0.2 1.6-0.2 0.8 0 1.4-0.2 1.4-0.4 0-0.2 0.2-0.3 0.4-0.3 1.2 0.2 3.8-0.1 3.7-0.3-0.1-0.2 0.3-0.3 0.9-0.3 0.7 0.1 1.4-0.1 1.6-0.3 0.3-0.2 1.1-0.4 1.8-0.4 2.2-0.2 4.5-0.5 5-0.8 0.7-0.2 1.1-0.3 2.4-0.4 0.7 0 1.1-0.1 1-0.3-0.1-0.1 0.6-0.3 1.5-0.3 3.1-0.2 3.2-0.2 3.2-0.5 0-0.2 0.4-0.3 0.8-0.1 0.4 0.1 0.9 0 1.1-0.2 0.5-0.3 7-0.7 7-0.4 0 0.2 0.2 0.3 0.4 0.3 0.3 0 1.6 0.3 3.1 0.5 1.4 0.3 3 0.5 3.6 0.5 0.5 0 0.9 0.1 0.8 0.2-0.1 0.2 0.1 0.3 0.5 0.3 0.3 0.1 1 0.1 1.5 0.1 0.5 0 1 0.2 1.2 0.3 0.2 0.1 0.9 0.2 1.6 0.2 0.7 0.1 1.4 0.3 1.7 0.5 0.4 0.3 0.4 0.2 0.4-0.7-0.1-0.6-0.2-1.1-0.4-1.1-0.6 0-1.2-18.9-0.6-19.7 0.2-0.2 0.4-1 0.4-1.8 0.1-0.8 0.2-1.5 0.4-1.5 0.1 0 0.2-0.1 0.2-0.3-0.2-0.5 0.5-3.2 0.8-3.2 0.1 0 0.4-0.5 0.5-1.1 0.1-0.6 0.3-1.1 0.5-1.1 0.1 0 0.5-0.6 0.9-1.3 0.4-0.7 0.9-1.5 1.1-1.7 0.2-0.2 0.5-0.8 0.8-1.2 0.3-0.5 0.8-1 1-1.2 0.3-0.2 1.1-1 1.9-1.7 0.8-0.8 1.6-1.4 1.8-1.4 0.3 0 0.9-0.4 1.5-0.8 0.6-0.5 1.2-0.9 1.3-1 0.2 0 0.4-0.1 0.6-0.1 0.1-0.1 0.6-0.2 1-0.4 0.5-0.1 0.8-0.4 0.8-0.5 0-0.2 0.5-0.3 0.9-0.3 0.5 0 0.9-0.2 0.8-0.3-0.1-0.2 0.4-0.3 1.1-0.4 2.7-0.1 5.2-0.4 5.3-0.6 0.1-0.1 0.4 0 0.6 0.1zm-2.7 10.2c-0.1 0.1-0.7 0.3-1.2 0.4-2.2 0.3-8.3 4.9-7.8 5.7 0.1 0.2 0 0.4-0.3 0.5-0.2 0.1-0.6 0.7-0.7 1.2-0.1 0.6-0.4 1.1-0.6 1.2-0.1 0.1-0.3 0.8-0.4 1.5 0 0.8-0.1 1.4-0.3 1.5-0.1 0.1-0.4 4.9-0.4 7.4 0 5.1 0.2 8.3 0.4 8.3 0.2 0 0.3 0.9 0.3 1.9 0.1 1 0.3 2 0.5 2.2 0.1 0.2 0.3 0.8 0.3 1.3 0 0.5 0.2 1.1 0.4 1.2 0.2 0.1 0.3 0.4 0.3 0.6-0.2 0.8 0.4 3.5 0.7 3.5 0.2 0 0.3 0.1 0.3 0.2-0.2 0.6 0.9 3.6 1.2 3.4 0.2-0.1 0.3 0.2 0.3 0.6-0.1 1.1 0.3 2.5 0.7 2.5 0.2 0 0.3 0.2 0.3 0.5 0 0.5 7.8 0.4 8.2-0.2 0.1-0.1 1.1-0.2 2.3-0.3 1.1 0 2.2-0.2 2.3-0.3 0.1-0.1 0.6-0.3 1.2-0.3 1.7-0.1 10.6-2.9 12.5-3.9 0.5-0.2 1.1-0.5 1.4-0.5 0.5 0 1.7-0.6 3.1-1.7 0.7-0.4 1.3-0.8 1.5-0.8 0.6 0 5.7-5.1 5.7-5.7 0-0.4 0.2-0.6 0.3-0.6 0.9 0 2-6.7 1.4-8.2-0.2-0.4-0.4-1-0.4-1.2-0.3-1.5-0.7-2.6-0.9-2.6-0.2 0-0.4-0.3-0.4-0.6 0-0.3-0.1-0.5-0.3-0.5-0.2 0-0.7-0.4-1.1-0.9-2.2-2.3-7.7-3.2-10.9-1.9-1.5 0.7-5 1.1-5 0.6 0-0.2-0.2-0.3-0.4-0.3-1.1 0-2.7-2.5-2.9-4.7-0.1-1.2-0.3-2.6-0.4-3.1-0.1-0.4-0.3-1.1-0.3-1.4-0.1-0.2-0.3-0.5-0.5-0.6-0.3-0.1-0.4-0.4-0.4-0.8 0-0.4-0.3-0.8-0.7-1-0.3-0.2-0.5-0.4-0.3-0.4 0.9 0-3.7-3.2-5-3.4-2.1-0.4-3.8-0.5-4-0.3zm-38.2 40.4c-0.8-0.2-3.5 0.1-3.5 0.4 0 0.1-0.6 0.2-1.3 0.3-1.3 0.1-2.7 0.3-2.7 0.5 0 0-0.4 0.1-3.4 0.5-1.1 0.1-2.2 0.3-2.5 0.5-0.3 0.1-1.2 0.3-2.1 0.3-0.9 0.1-1.7 0.2-1.9 0.3-0.6 0.4-3.1 0.8-4.8 0.9-0.9 0.1-2.2 0.3-3 0.5q-2.7 0.8-5 0.9c-0.7 0-1.1 0.1-1.1 0.3 0.1 0.1-0.4 0.2-1.1 0.2-0.7 0-1.3 0.1-1.3 0.3 0.1 0.2-0.3 0.4-0.8 0.3-0.5 0-1.9 0.2-3.1 0.4-1.2 0.2-2.6 0.4-3 0.4-0.4-0.1-0.7 0-0.7 0.2 0 0.2-0.7 0.3-1.4 0.3-0.8 0-1.4 0.1-1.4 0.3 0 0.2-0.8 0.4-1.7 0.4-0.8 0-1.8 0.1-2 0.3-0.2 0.2-1 0.3-1.7 0.3-0.6-0.1-1.3-0.1-1.5 0-0.3 0.2-1.2 0.4-2.9 0.6-0.4 0.1-0.9 0.2-1.2 0.3-0.5 0.2-1.5 0.4-5 0.9-1 0.1-1.7 0.3-1.6 0.4 0.1 0.1-0.3 0.2-0.8 0.3-0.5 0-1.5 0.1-2.2 0.2-0.6 0.2-1.8 0.3-2.6 0.3-2.6 0 0.9 1 5.5 1.5 0.5 0.1 0.9 0.2 0.9 0.2 0 0 0.5 0.1 1.2 0.2 0.6 0.1 1.6 0.3 2.1 0.4 0.5 0 1.5 0.2 2.3 0.4 0.8 0.1 1.6 0.3 1.8 0.4 0.3 0.3 2.3 0.6 5.2 0.9 0.6 0.1 1.6 0.2 2.3 0.4 0.7 0.1 1.8 0.3 2.5 0.3 0.6 0 1.2 0.2 1.3 0.3 0.2 0.1 0.7 0.3 1.1 0.3 0.5 0 1.2 0.1 1.6 0.3 0.3 0.2 1.5 0.4 2.4 0.5 1 0 1.8 0.2 1.8 0.3 0 0.2 0.4 0.2 0.9 0.1 0.5-0.1 1.2 0 1.6 0.3 0.4 0.2 1.3 0.4 2.3 0.4 0.8-0.1 1.6 0 1.6 0.2 0 0.2 0.7 0.3 1.5 0.3 0.9 0 1.6 0.2 1.7 0.3 0.1 0.4 2.9 0.8 5.4 0.9 0.8 0 1.5 0.2 1.7 0.4 0.1 0.2 0.9 0.4 1.7 0.3 0.9 0 1.7 0.1 1.8 0.3 0.1 0.1 0.9 0.3 1.9 0.4 1 0 1.9 0.2 2 0.4 0.1 0.1 0.8 0.3 1.5 0.3 0.7 0 1.3 0.2 1.3 0.4 0 0.2 0.3 0.2 0.7 0.1 0.4-0.1 1.5 0 2.5 0.3 0.9 0.3 1.7 0.4 1.7 0.3 0-0.1 0.4 0 0.8 0.2q0.8 0.5 0.5 0.1c-0.1-0.3-0.1-0.4 0.1-0.4 0.2 0 0.4 0.1 0.6 0.3 0.2 0.5 2.5 0.5 2.8 0.1 0.1-0.2 0.7-0.3 1.3-0.3 0.7 0.1 1.4 0 1.6-0.2 0.3-0.2 0.5-0.3 0.5-0.2 0 0.1 0.9 0 2-0.3 1.1-0.2 2.5-0.5 3.2-0.5 0.6 0 1.1-0.1 1.1-0.3 0-0.1 0.8-0.3 1.7-0.3 0.9 0 1.9-0.2 2.2-0.3 0.5-0.2 1.9-0.5 3.3-0.6 0.3 0 0.5-0.2 0.4-0.3-0.1-0.2 0.4-0.2 1-0.2 1.1 0.1 3.2-0.2 4.9-0.7 0.3-0.1 1.2-0.3 2.1-0.3 0.8-0.1 1.7-0.4 2-0.6 0.3-0.2 0.6-0.3 0.6-0.2 0.1 0.1 1.3 0 2.6-0.3 1.3-0.2 2.5-0.3 2.8-0.2 0.3 0.1 0.5 0 0.5-0.2 0-0.3 0.6-0.4 1.5-0.4 0.9 0 1.7-0.2 1.8-0.3 0.1-0.2 0.9-0.4 1.8-0.4 0.9 0 2-0.2 2.3-0.4 0.4-0.2 0.8-0.3 1-0.2 0.2 0.1 0.7 0 1.1-0.3 0.5-0.2 1.6-0.4 2.5-0.4 0.9 0 1.7-0.1 1.8-0.3 0.2-0.2 0.9-0.3 1.7-0.3 0.8 0.1 1.4 0 1.3-0.2-0.1-0.1 0.8-0.3 1.8-0.4 1.1 0 2.2-0.2 2.5-0.4 0.2-0.2 0.8-0.3 1.2-0.3 0.5 0.1 1.4-0.1 2.2-0.3 0.7-0.3 1.6-0.4 2-0.3 0.4 0.1 0.8 0 0.9-0.2 0.1-0.1 0.8-0.3 1.6-0.3 0.7 0 1.4-0.2 1.6-0.4 0.1-0.1 0.3-0.2 0.4-0.1 0.2 0 0.5-0.1 0.8-0.2 0.4-0.3 0.1-0.4-1-0.2-0.8 0.1-1.5 0-1.5-0.2-0.1-0.2-0.8-0.3-1.6-0.4-0.8-0.1-1.6-0.3-1.9-0.4-0.4-0.3-5.3 0.9-5.3 1.3 0 0.1-0.4 0.3-0.9 0.3-0.5 0-0.9 0.1-0.9 0.4 0 0.2-0.3 0.3-0.7 0.1-0.5-0.1-1.2 0.1-1.7 0.3-1 0.5-3.9 1-5.3 1-0.4 0-0.8 0.1-1 0.3-0.1 0.2-1.2 0.3-2.4 0.3-1.3 0-2.4 0.2-2.5 0.4q-0.2 0.4-0.8-0.1c-0.4-0.3-0.5-0.3-0.8 0-0.3 0.5-12.4 0.5-12.4 0 0-0.2-0.3-0.7-0.8-1.1-0.9-0.9-2.5-3.8-2.1-3.8 0.1 0 0.1-0.2-0.2-0.4-0.2-0.2-0.4-0.7-0.4-1.1 0-0.3-0.2-0.6-0.4-0.6-0.2 0-0.3-0.2-0.3-0.5 0-0.3-0.2-0.8-0.3-1.2-0.2-0.3-0.6-1.1-0.8-1.7-0.2-0.7-0.5-1.1-0.7-1-0.2 0.1-0.4 0-0.5-0.2-0.1-0.2-0.9-0.3-1.7-0.3-0.9 0-1.7-0.2-1.9-0.4-0.2-0.2-0.9-0.4-1.6-0.4-0.6 0-1.3-0.2-1.5-0.3-0.4-0.2-2.4-0.6-5.9-0.9-0.7-0.1-1.7-0.3-2.2-0.5-0.6-0.2-1.2-0.3-1.3-0.2-0.2 0.1-0.4 0.1-0.4-0.2 0-0.2-0.2-0.2-0.7 0.1q-0.8 0.4-0.5 0c0.1-0.3-0.1-0.4-0.7-0.4-0.4 0-1-0.1-1.3-0.1zm-96.1 20c0 0.3-0.2 0.6-0.4 0.6-0.2 0-0.3 0.3-0.3 0.7 0 0.4-0.2 0.6-0.4 0.5-0.2-0.1-0.4 0.1-0.4 0.5 0 0.4-0.1 0.8-0.3 0.8-0.2 0-0.4 0.3-0.4 0.7 0 0.4-0.1 0.7-0.4 0.7-0.2 0-0.3 0.2-0.1 0.5 0.1 0.3 0 0.5-0.2 0.5-0.2 0-0.3 0.4-0.3 0.8 0 0.4-0.2 0.6-0.4 0.5-0.2-0.1-0.3 0.1-0.3 0.5 0 0.4-0.2 0.7-0.4 0.7-0.2 0-0.3 0.2-0.2 0.3 0.1 0.2 0 0.5-0.3 0.8-0.3 0.2-0.4 0.6-0.3 0.9 0.1 0.3 0 0.5-0.2 0.5-0.2 0-0.6 0.4-0.8 1-0.9 2.2-3 6.3-3.2 6.4-0.2 0-0.2 0.2-0.1 0.4 0.2 0.2 0.1 0.5-0.1 0.6-0.4 0.3-1.2 1.8-2.6 4.7-0.7 1.2-1.4 2.4-1.6 2.5-0.1 0.2-0.2 0.3 0 0.3 0.2 0-0.1 0.7-0.6 1.5-0.5 0.8-1 2-1.1 2.5-0.1 0.5-0.4 1-0.6 1-0.2 0-0.3 0.3-0.3 0.8 0 0.9 0.5 1 5.1 1.5 0.9 0.1 2 0.3 2.3 0.5 0.3 0.2 1 0.2 1.6 0.2 0.5-0.1 1 0 1.1 0.2 0.1 0.2 0.7 0.3 1.4 0.3 0.6 0 1.6 0.1 2 0.3 0.5 0.2 1.6 0.4 2.4 0.4 0.9 0.1 1.8 0.2 2 0.4 0.1 0.1 1.2 0.3 2.3 0.4 1 0.1 2.5 0.4 3.3 0.6 0.8 0.2 2.1 0.4 2.9 0.5 0.8 0.1 1.7 0.3 1.9 0.4 0.3 0.2 0.9 0.3 1.5 0.3 0.6-0.1 1.3 0.1 1.5 0.2 0.2 0.2 0.7 0.3 1.2 0.3 1.7 0.1 2.7 0.3 2.9 0.5 0.1 0.1 0.9 0.3 1.7 0.4 0.9 0.1 2.9 0.4 4.5 0.7 1.6 0.3 3 0.4 3 0.3 0-0.1 0.2 0 0.4 0.2 0.2 0.2 1.2 0.5 2 0.6 0.9 0.1 1.6 0.2 1.6 0.2 0 0.1 0.4 0.1 0.9 0.2 0.5 0.1 1.8 0.3 2.8 0.5 1.1 0.2 3 0.5 4.2 0.6 1.2 0.1 2.2 0.3 2.2 0.5 0 0.2 3 0.7 5.1 0.9 0.4 0 0.9 0.1 1.1 0.1 0.2 0.1 0.5 0.1 0.6 0.1 0.2 0 0.3 0.1 0.3 0.3 0 0.1 0.3 0.2 0.7 0.1 0.3-0.1 1.2 0 1.9 0.2 1.3 0.5 1.7 0.6 4.4 0.9 0.9 0.2 1.9 0.4 2.2 0.5 0.3 0.1 1.1 0.2 1.9 0.3 0.8 0 1.7 0.1 2 0.2 0.3 0.1 1.1 0.3 1.8 0.4 0.7 0.1 1.4 0.2 1.6 0.3 1.9 1.2 4.2 0.4 4.5-1.6 0.2-0.7 0.4-1.3 0.5-1.1 0.2 0.2 2.2-3.7 2.2-4.4 0-0.2 0.1-0.4 0.3-0.4 0.2 0 0.4-0.2 0.4-0.5 0-0.3 0.3-0.9 0.7-1.3 0.4-0.5 0.7-1.1 0.7-1.4 0-0.4 0.2-0.7 0.3-0.7 0.2 0 0.4-0.2 0.4-0.4 0-0.5 1.9-4.3 2.2-4.5 0.2 0 0.3-0.4 0.3-0.7 0-0.3 0.1-0.8 0.3-0.9 0.5-0.6 5-9.6 5-10 0-0.3 0.1-0.5 0.3-0.5 0.2 0 1.6-2.7 1.6-3.3 0-0.2 0.2-0.6 0.5-0.8 0.6-0.4 0.2-1.3-0.5-1-0.2 0.1-0.5 0-0.6-0.2 0-0.2-0.8-0.3-1.7-0.4-0.8 0-1.7-0.2-1.9-0.3-0.2-0.2-1-0.3-1.7-0.4-0.7 0-1.3-0.2-1.3-0.3 0-0.4-2.9-0.6-3.1-0.3-0.1 0.2-0.5 0.1-1-0.3-0.5-0.3-0.9-0.4-0.9-0.3 0 0.2-0.2 0.1-0.5-0.1-0.2-0.2-1.3-0.4-2.3-0.5-1 0-1.8-0.1-1.8-0.2 0-0.2-0.2-0.3-0.4-0.3-0.3 0-1.2-0.1-2.1-0.1-1-0.1-1.6-0.3-1.5-0.5 0.2-0.2-0.2-0.2-0.8-0.1-0.6 0.1-1.5 0-1.9-0.2-0.5-0.3-1.6-0.5-2.5-0.4-0.9 0-1.6-0.2-1.5-0.3 0.1-0.2-1.6-0.5-2.5-0.3-0.1 0-0.5-0.1-0.7-0.3-0.3-0.2-1.2-0.4-2.1-0.5-0.9 0-1.7-0.2-1.7-0.3 0-0.2-0.7-0.3-1.5-0.3-0.9 0-1.6-0.2-1.6-0.4 0-0.2-0.2-0.3-0.3-0.2-0.2 0.2-2.3-0.1-4.2-0.5-0.3-0.1-1.5-0.3-2.4-0.5-1-0.1-2.1-0.3-2.5-0.4-0.4-0.1-1.4-0.2-2.1-0.3-0.8-0.1-1.7-0.3-2-0.4-0.3-0.1-1.3-0.2-2.2-0.2-0.9-0.1-1.8-0.3-2-0.5-0.1-0.2-0.7-0.3-1.3-0.3-0.5 0-1.1-0.1-1.2-0.2-0.1-0.2-1.1-0.3-2.2-0.4-1.1 0-2-0.2-2-0.3 0-0.2-2.6-0.7-5-0.8-0.7-0.1-1.6-0.3-1.9-0.5-0.4-0.2-1.3-0.4-1.9-0.3-0.6 0-1.2-0.1-1.2-0.3-0.1-0.1-0.9-0.3-1.8-0.3-0.9 0-1.7-0.1-1.7-0.3 0-0.2-0.2-0.3-0.4-0.3-0.3 0.1-1.3 0-2.4-0.2-1.1-0.1-2.2-0.2-2.4-0.2-0.2 0-0.4-0.1-0.4-0.3 0-0.3-0.3-0.4-0.5-0.3-0.3 0.1-0.6 0.1-0.8 0-0.8-0.9-3.3-0.1-3.3 1.1zm190.2-1.4c-0.1 0.1-0.7 0.2-1.4 0.4-0.7 0.1-1.9 0.3-2.6 0.5-0.8 0.2-1.9 0.5-2.5 0.5-0.6 0.1-2 0.3-3.2 0.6-1.2 0.2-2.4 0.4-2.8 0.5-0.4 0.1-1.1 0.2-1.6 0.4-1.3 0.3-2.1 0.5-3.5 0.7-0.7 0.1-1.5 0.3-1.8 0.4-0.3 0.1-0.9 0.3-1.4 0.3-0.9 0.2-3.2 0.6-3.6 0.7-0.1 0-0.9 0.2-1.9 0.3-1 0.2-2 0.4-2.3 0.5-0.3 0.1-1 0.3-1.6 0.3-0.6 0.1-2.4 0.5-4 0.9-1.6 0.3-3.3 0.6-3.8 0.6-0.5 0-0.8 0.2-0.7 0.4 0.1 0.2-0.4 0.3-1.1 0.3-2 0-4.7 0.5-4.9 0.8-0.1 0.2-0.9 0.3-1.8 0.3-0.9 0-1.6 0.2-1.6 0.4 0 0.2-0.6 0.3-1.3 0.3-1.2 0-3.4 0.5-4.7 1-0.3 0.1-1.1 0.2-1.8 0.2-0.8 0-1.4 0.1-1.6 0.3-0.1 0.1-0.8 0.3-1.6 0.3-0.7 0-1.3 0.1-1.2 0.3 0.1 0.2-0.4 0.4-1.1 0.5-2.4 0.3-4.1 0.6-5.2 0.9-0.6 0.1-1.4 0.1-1.7 0.1-0.4-0.1-0.6 0-0.5 0.2 0.1 0.2-0.6 0.3-1.5 0.4-0.9 0.1-1.7 0.2-1.8 0.4-0.1 0.1-0.7 0.3-1.4 0.3-0.7 0.1-1.3 0.2-1.4 0.4-0.1 0.1-0.8 0.2-1.6 0.2-0.7 0-1.4 0.1-1.5 0.3-0.1 0.1-0.7 0.2-1.4 0.2-1 0-4.2 0.7-4.7 1-0.1 0 0.8 1.6 1.1 1.9 0.1 0.1 0.5 0.8 0.8 1.6 0.3 0.9 0.8 1.5 1 1.5 0.1 0 0.2 0.2 0.1 0.5-0.1 0.4 1.7 4.3 2.3 4.9 0.3 0.3 2.4 4.8 2.4 5.2 0 0.2 0.2 0.4 0.4 0.4 0.2 0 0.4 0.3 0.4 0.7 0 0.4 0.1 0.7 0.2 0.7 0.2 0 0.5 0.6 0.8 1.3 0.3 0.6 0.6 1.2 0.8 1.2 0.2 0 0.2 0.2 0.1 0.3-0.1 0.2 0.1 0.6 0.4 0.9 0.3 0.3 0.4 0.6 0.3 0.6-0.2 0-0.1 0.2 0.1 0.4 0.2 0.2 0.4 0.7 0.4 1.1 0 0.3 0.2 0.6 0.4 0.6 0.2 0 0.3 0.3 0.3 0.7 0 0.4 0.2 0.7 0.3 0.7 0.2 0 0.6 0.8 1 1.8 0.4 0.9 0.8 1.7 0.9 1.7 0.2 0 0.3 0.3 0.3 0.6 0 0.3 0.2 0.5 0.4 0.5 0.2 0 0.3 0.3 0.3 0.7 0 0.4 0.2 0.7 0.3 0.7 0.2 0 0.5 0.5 0.6 1.2 0.5 1.9 2 2.6 3.5 1.5 0.3-0.3 0.9-0.4 1.3-0.3 0.4 0.1 1.4 0 2.2-0.2 3.3-0.8 6.2-1.5 7.5-1.6 0.8-0.1 1.5-0.4 1.5-0.5 0.1-0.2 0.7-0.3 1.5-0.2 0.8 0.1 1.5 0 1.6-0.2 0.1-0.2 0.8-0.4 1.6-0.4 0.7 0 1.4-0.1 1.6-0.3 0.1-0.1 0.3-0.2 0.5-0.2 0.1-0.1 1-0.2 2-0.4 0.9-0.1 2-0.3 2.3-0.3 0.3-0.1 0.8-0.2 1.1-0.4 0.4-0.1 1-0.3 1.3-0.3 0.3-0.1 0.8-0.2 1.1-0.3 0.5-0.2 1.3-0.3 5.3-0.8 0.9-0.1 1.7-0.4 1.8-0.6 0.2-0.2 0.4-0.3 0.5-0.2 0.1 0.1 1 0 1.9-0.2 0.9-0.3 1.9-0.4 2.3-0.4 0.3 0.1 0.6 0 0.6-0.2 0-0.2 0.6-0.3 1.4-0.3 0.7 0 1.5-0.2 1.6-0.4 0.1-0.1 0.8-0.3 1.6-0.3 0.7 0 1.6-0.1 1.8-0.2 0.2-0.2 0.7-0.3 1.1-0.4 0.4 0 1.3-0.2 2-0.3 0.7-0.2 1.6-0.3 2-0.4 5.2-1 6.3-1.2 6.6-1.5 0.3-0.2 0.7-0.3 1-0.3 0.3 0.1 1.1-0.1 1.9-0.3 0.8-0.3 1.8-0.4 2.2-0.3 0.5 0.1 0.8 0 0.8-0.2 0-0.2 0.6-0.3 1.2-0.3 0.7 0 1.5-0.2 1.7-0.3 0.3-0.2 1.1-0.3 1.9-0.4 0.7 0 1.5-0.2 1.6-0.5 0.2-0.2 0.4-0.3 0.6-0.2 0.2 0.1 0.9 0 1.7-0.2 1.7-0.4 2-0.4 4.5-0.8 1.1-0.1 2.1-0.4 2.2-0.6 0.1-0.1 0.7-0.3 1.2-0.3 1.1 0 1.7-0.5 1.6-1.3 0-0.2-0.1-0.6-0.1-0.8 0-0.2-0.2-0.3-0.4-0.1q-0.5 0.2-0.2-0.3c0.1-0.4 0-0.7-0.2-0.7-0.2-0.1-0.4-0.5-0.5-0.9 0-0.5-0.4-1.2-0.7-1.6-0.3-0.4-0.5-1.1-0.5-1.4 0-0.3-0.1-0.6-0.3-0.7-0.3-0.1-2.2-4-2.2-4.6 0-0.1-0.1-0.3-0.3-0.3-0.2 0-0.4-0.3-0.4-0.7 0-0.4-0.1-0.7-0.3-0.7-0.3 0-0.9-1.3-0.8-1.9 0-0.1-0.1-0.2-0.2-0.2-0.2 0-0.5-0.6-0.8-1.4-0.3-0.7-0.6-1.4-0.8-1.5-0.1-0.1-0.3-0.5-0.4-0.9 0-0.4-0.4-1.3-0.9-2.1-0.5-0.8-0.8-1.6-0.9-1.8 0-0.3-0.1-0.5-0.3-0.5-0.1 0-0.3-0.2-0.3-0.5 0-0.3-0.1-0.5-0.4-0.5-0.2 0-0.3-0.1-0.1-0.3 0.1-0.1-0.1-0.8-0.5-1.5-0.4-0.7-1.3-2.5-2-4.1-0.8-1.5-1.5-2.9-1.7-3.1-0.4-0.2-1.1-0.3-1.3-0.1zm-99.1 49.1l-0.1-19.2-0.9 1.9c-0.4 1-0.8 2-0.7 2.1 0 0.2-0.1 0.3-0.3 0.3-0.2 0-0.4 0.3-0.4 0.7 0 0.4-0.1 0.7-0.3 0.7-0.2 0-0.4 0.2-0.4 0.5 0 0.3-0.1 0.5-0.3 0.5-0.2 0-0.4 0.2-0.4 0.5 0 0.4-1.7 4.2-2.1 4.5-0.6 0.5-1 1.8-0.8 2.4q0.2 0.6-0.2 0.2c-0.3-0.4-2.6 3.9-2.4 4.5 0 0.2-0.2 0.5-0.5 0.9-0.7 0.8-1.8 3.1-1.8 3.6 0 0.3-0.1 0.4-0.3 0.4-0.2 0-0.3 0.2-0.2 0.3 0.1 0.2-0.2 0.9-0.7 1.6-0.5 0.7-0.9 1.5-0.9 1.8 0 0.4-0.1 0.5-0.3 0.4-0.2-0.1-0.4 0.1-0.4 0.4 0 0.8-1.4 2.2-2 2.2-0.3 0-0.5 0.2-0.5 0.4 0 0.4-3.4 0.2-6-0.4-1-0.2-2.5-0.4-3.2-0.5-1.4-0.1-2-0.3-2.9-0.7-0.3-0.1-0.7-0.1-0.9 0-0.2 0.1-0.6 0.1-0.8-0.1-0.6-0.3-1.3-0.5-2.6-0.5-0.6 0-1.3-0.1-1.6-0.3-0.4-0.2-1.4-0.4-2.4-0.4-1-0.1-1.8-0.2-1.8-0.4 0-0.1-0.2-0.2-0.3-0.1-0.2 0.1-1 0-1.9-0.3-0.9-0.2-2-0.4-2.4-0.4-0.5 0-1-0.1-1.1-0.2-0.1-0.1-0.8-0.3-1.6-0.3-0.8-0.1-1.6-0.2-1.8-0.3-0.2-0.1-0.7-0.3-1.2-0.3-1.7-0.3-2-0.3-2.4-0.6-0.2-0.1-1.1-0.2-1.9-0.2-0.8 0.1-1.5-0.1-1.7-0.3-0.1-0.3-0.8-0.4-1.7-0.3-0.8 0.1-1.4 0-1.3-0.2 0.1-0.1-0.7-0.3-1.7-0.3-1 0-2-0.1-2.2-0.3-0.2-0.2-1-0.4-1.8-0.4-0.8-0.1-1.6-0.2-1.9-0.4-0.5-0.2-2.9-0.6-4.5-0.8-0.4 0-0.8-0.2-1-0.3-0.2-0.1-1.3-0.3-2.4-0.3-1.1-0.1-1.9-0.2-1.8-0.4 0.1-0.1-0.4-0.3-1.2-0.3-1.7-0.1-2-0.1-2.4-0.4-0.2-0.1-0.9-0.2-1.5-0.2-0.6 0-1.3-0.1-1.6-0.3-0.2-0.1-1.1-0.3-2-0.4l-1.6-0.1 0.2 36.2c0.1 19.9 0.2 36.2 0.2 36.2 0.1 0 1 0.1 2 0.3 2.4 0.2 4.2 0.5 4.8 0.8 0.7 0.2 1.2 0.3 4.7 0.6 1.7 0.2 2.6 0.4 2.3 0.6-0.2 0.2 0.4 0.3 1.6 0.3 1.1 0 2 0.2 2.1 0.3 0.1 0.2 0.9 0.4 1.9 0.4 1 0.1 1.9 0.2 2.1 0.3 0.2 0.1 0.8 0.3 1.3 0.3 0.4 0 1.5 0.2 2.3 0.5 0.9 0.2 2.1 0.4 2.9 0.5 0.7 0.1 1.7 0.3 2.2 0.4 0.5 0.1 1.6 0.2 2.5 0.3 0.8 0.1 1.8 0.3 2.1 0.4 0.3 0.2 1 0.3 1.6 0.4 1.2 0.1 3.9 0.6 6.3 1.1 0.9 0.2 1.8 0.3 2 0.2 0.1-0.1 0.3 0 0.4 0.2 0.1 0.2 0.8 0.3 1.7 0.4 0.9 0 1.8 0.2 2 0.4 0.3 0.2 0.8 0.3 1.3 0.2 0.4 0 1 0 1.2 0.2 0.3 0.2 0.5 0.1 0.5-0.2q0-0.5 0.2-0.1c0.2 0.3 0.8 0.5 1.4 0.6 0.6 0.1 1.3 0.3 1.5 0.4 0.2 0.2 0.4 0.1 0.4-0.2q0-0.5 0.3-0.1c0.2 0.4 0.9 0.6 4.6 1.1 0.9 0.1 1.8 0.4 2 0.5 0.2 0.1 1.1 0.3 2.1 0.3 0.9 0 1.8 0.2 1.9 0.3 0.1 0.2 0.6 0.3 1.1 0.2 0.5 0 1.2 0.1 1.5 0.3 0.4 0.2 1.4 0.4 2.4 0.4 1 0.1 1.9 0.2 2 0.4 0.1 0.1 0.9 0.2 1.6 0.2 0.7 0 1.4 0.2 1.4 0.4 0 0.2 0.5 0.3 1.1 0.3 0.6-0.1 1.4 0 1.7 0.2q0.5 0.3 0.2-0.2c-0.2-0.3-0.1-0.3 0.5 0.1 0.5 0.2 1.3 0.4 1.8 0.4 0.5 0.1 1 0.2 1.3 0.3 0.2 0.2 1 0.4 1.8 0.4l1.3 0.1-0.1-34.2c-0.1-18.7-0.1-42.7-0.2-53.3zm11.5-16c-0.3 0-0.4 14.1-0.4 51.6v51.7h0.8c0.5 0 0.9-0.1 1.1-0.3 0.1-0.1 0.6-0.3 1-0.3 1.9-0.2 4.2-0.6 6.6-1.1 1.5-0.3 3.2-0.6 3.9-0.7 0.7-0.1 1.5-0.2 1.8-0.3 0.3-0.2 0.7-0.3 0.9-0.3 0.2 0 1.4-0.2 2.6-0.4 1.3-0.1 2.5-0.3 2.7-0.3 0.2 0 0.6-0.2 0.9-0.3 0.4-0.2 2.4-0.5 4.7-0.8 0.5 0 1.1-0.2 1.4-0.4 0.2-0.2 0.8-0.3 1.3-0.3 0.5 0.1 1.6 0 2.5-0.2 0.8-0.2 1.9-0.5 2.4-0.5 3.3-0.6 4.9-0.9 5.9-1.1 3.7-0.8 6.2-1.2 7.4-1.3 0.8-0.1 1.6-0.2 1.9-0.4 0.3-0.1 1.2-0.3 2-0.4 0.8-0.1 1.7-0.2 2.1-0.3 0.4-0.1 1.2-0.1 1.7-0.2 0.6 0 0.9-0.2 0.8-0.3-0.1-0.2 0.4-0.3 1.1-0.3 1.8 0 3-0.2 3-0.5 0-0.1 0.5-0.2 1.2-0.1 0.7 0 1.3-0.1 1.4-0.3 0.1-0.1 0.8-0.3 1.5-0.3 0.7 0 1.9-0.1 2.6-0.3 0.7-0.2 1.9-0.4 2.8-0.5 2.5-0.4 2.9-0.4 3.2-0.9q0.2-0.5 0.5-0.1c0.1 0.3 0.5 0.3 1.1 0 0.5-0.2 1-0.2 1.1-0.1 0.1 0.1 0.4 0 0.6-0.2 0.3-0.2 1.3-0.4 2.5-0.4 1.1 0 2-0.2 2-0.4 0-0.1 0.5-0.3 1.2-0.3 0.8 0 1.9-0.2 2.7-0.4l1.4-0.4v-29.9c0-16.5 0.1-32.6 0.2-35.8l0.2-5.8-1 0.1c-0.6 0-1.7 0.2-2.6 0.5-0.9 0.2-2.1 0.4-2.8 0.5-0.6 0.1-1.1 0.3-1.1 0.5 0 0.1-0.7 0.2-1.5 0.2-0.8 0-1.6 0.1-1.8 0.3-0.2 0.2-1 0.4-1.7 0.4-1.8 0.1-3.9 0.5-5.1 0.9-0.6 0.2-1.5 0.3-2 0.4-0.6 0-1 0.2-1 0.3 0 0.1-0.5 0.2-1.1 0.3-1.7 0.1-2.1 0.1-2.1 0.4 0 0.2-0.5 0.2-1.1 0.1-0.6-0.1-1.3 0-1.5 0.2-0.3 0.3-1.1 0.5-1.9 0.6-0.7 0-2.1 0.3-3.1 0.5-1 0.2-2.2 0.5-2.8 0.6-0.6 0.1-1.3 0.2-1.6 0.4-0.3 0.1-1 0.2-1.6 0.3-0.5 0.1-1.1 0.3-1.2 0.5-0.2 0.2-0.8 0.3-1.5 0.3-0.6 0-1.3 0-1.4 0-0.1 0-0.5 0.1-0.8 0.2-0.4 0.1-1.3 0.2-2 0.4-0.7 0.1-1.7 0.3-2.2 0.3-0.6 0.1-1.2 0.3-1.4 0.4-0.3 0.2-0.8 0.2-1.3 0.2-0.4-0.1-1.1 0.1-1.6 0.4-0.4 0.2-1.3 0.4-1.9 0.4-0.6 0-1.1 0.1-1.1 0.2 0 0.1-0.7 0.2-1.5 0.3-0.8 0-1.8 0.2-2.2 0.4-0.3 0.2-0.7 0.3-0.8 0.2-0.1-0.1-0.9 0.1-1.8 0.4-1 0.2-2.7 0.6-3.9 0.7-1.2 0.1-2.2 0.4-2.2 0.5 0 0.2-0.9 0.3-2 0.2-1 0-1.9-0.2-1.9-0.3 0-0.2-0.2-0.3-0.5-0.3-0.5 0-2-1.6-2-2.1 0-0.2-0.1-0.4-0.3-0.4-0.2 0-0.4-0.3-0.4-0.7 0-0.4-0.1-0.7-0.2-0.5-0.2 0.1-0.5-0.4-0.7-1.1-0.2-0.8-0.6-1.3-0.8-1.3q-0.5 0.1-0.3-0.4c0.1-0.4-0.1-1.1-0.5-1.6-0.4-0.6-0.7-1.2-0.7-1.4 0-0.2-0.1-0.4-0.4-0.4-0.2 0-0.3-0.2-0.1-0.5 0.1-0.3-0.1-0.7-0.4-0.8-0.3-0.1-0.5-0.4-0.4-0.6 0.1-0.5-1.1-3-1.5-3-0.2 0-0.4-0.6-0.5-1.3-0.1-0.7-0.4-1.2-0.6-1.2-0.2 0-0.3-0.3-0.3-0.7 0-0.4-0.1-0.7-0.3-0.7-0.1 0-0.5-0.5-0.7-1.2-0.3-0.6-0.7-1.4-1-1.7-0.2-0.3-0.5-0.9-0.6-1.4-0.1-0.6-0.5-1.2-0.8-1.5-0.2-0.3-0.4-0.6-0.3-0.7 0.2-0.1 0-0.3-0.3-0.4-0.3-0.2-0.7-0.7-0.8-1.3-0.1-0.6-0.4-1-0.5-1-0.2 0-0.3-0.3-0.1-0.6 0.1-0.2 0-0.5-0.2-0.5z"/>
		<path id="path1" class="s1" d=""/>
		<path id="path2" class="s1" d=""/>
		<path id="path3" class="s1" d=""/>
		<path id="path4" class="s1" d=""/>
	</g>
</svg>