<svg version="1.2" xmlns="http://www.w3.org/2000/svg" viewBox="0 0 493 493" width="493" height="493">
	<title>main_top_block_icons-01-svg</title>
	<style>
		.s0 { opacity: 1;fill: #fbdb09 } 
		.s1 { opacity: .9;fill: #fbda09 } 
	</style>
	<g id="Layer">
		<path id="Layer" fill-rule="evenodd" class="s0" d="m171.5 46.5q54.9-4.3 75 47 22.9-57 83-44.5 20.3 7.9 24.5 29.5 2.7 20.4-8 38-10.3 16.3-24.5 29.5 61.6 0 123 2 0.9 1.1 1.5 2.5 1 37.5 0 75-1.4 3.9-5.5 4.5-5 0.7-10 0.5 0.7 106.6-1.5 213-2.7 2.7-6.5 3.5-176 1-352 0-3.8-0.8-6.5-3.5-2.2-106.4-1.5-213-5.5 0.2-11-0.5-3.3-1.2-4.5-4.5-1.5-38.6 1-77 1.1-0.9 2.5-1.5 60.5-0.5 121-1-21.9-19.1-31.5-46.5-8.7-41.7 31.5-53zm-14.5 48q9 23 27.5 39.5 9 8.7 21 12 16 0.8 32 0.5-0.5-24.7-8.5-48-13.4-35.7-51.5-35-25.9 4.7-20.5 31zm113-8q-14.8 28.1-14.5 60 16 0.3 32-0.5 3.6-0.8 7-2 21.7-13.8 35.5-35.5 11-17.3 3-36-12.1-10.8-28.5-9-22.5 3.4-34.5 23zm-206.5 77q0 24.5 0 49 74.5 0 149 0 0-24.5 0-49-74.5 0-149 0zm167 49q16 0 32 0 0-24.5 0-49-16 0-32 0 0 24.5 0 49zm50 0q74.5 0 149 0 0-24.5 0-49-74.5 0-149 0 0 24.5 0 49zm-200 217q66 0 132 0 0-99.5 0-199-66 0-132 0 0 99.5 0 199zm150 0q16 0 32 0 0-99.5 0-199-16 0-32 0 0 99.5 0 199zm50 0q66 0 132 0 0-99.5 0-199-66 0-132 0 0 99.5 0 199z"/>
	</g>
	<g id="Layer">
		<path id="Layer" fill-rule="evenodd" class="s1" d="m230.5 163.5q0 24.5 0 49-9 2-18 0 0-24.5 0-49 9-2 18 0z"/>
	</g>
</svg>