<?xml version="1.0" encoding="utf-8"?>
<!-- Generator: Adobe Illustrator 22.0.1, SVG Export Plug-In . SVG Version: 6.00 Build 0)  -->
<svg version="1.1" id="Layer_1" xmlns="http://www.w3.org/2000/svg" xmlns:xlink="http://www.w3.org/1999/xlink" x="0px" y="0px"
	 viewBox="0 0 595.2800293 841.8900146" style="enable-background:new 0 0 595.2800293 841.8900146;" xml:space="preserve">
<g>
	<g>
		<path d="M267.2191772,339.8390808c-0.8637695-0.866272-1.8892517-1.5399475-3.0763855-2.0205383
			c-1.187561-0.4801636-2.4871216-0.7206726-3.898407-0.7206726c-0.7471924,0-1.5237427,0.0643616-2.32901,0.1930542
			c-0.8056946,0.1287231-1.5941772,0.3564453-2.3665466,0.6821289c-0.7721252,0.3260803-1.5069427,0.7765808-2.2044373,1.3511963
			c-0.697464,0.5750732-1.3039398,1.2998657-1.8183441,2.1748047c-0.830658-1.3724365-1.9555206-2.4491272-3.375412-3.2300415
			c-1.4197388-0.7804565-3.0432587-1.1711426-4.869812-1.1711426c-0.6144409,0-1.2496338,0.0559082-1.9056091,0.1672974
			c-0.6561584,0.1117859-1.3077087,0.3048401-1.9552765,0.5791626c-0.6477966,0.2747498-1.2666321,0.6478882-1.8559113,1.1195984
			c-0.5896912,0.4721375-1.1250763,1.0682068-1.6065674,1.7888794v-3.0113831h-5.1811981v24.6569519h5.230896v-13.6668091
			c0-1.0465393,0.1658936-1.9773865,0.4982758-2.7925415c0.331955-0.8149414,0.776123-1.4968262,1.3326874-2.0463257
			c0.5561371-0.5488281,1.2080994-0.9650879,1.9552917-1.248291c0.747406-0.282959,1.5444794-0.4246826,2.3914795-0.4246826
			c1.7598724,0,3.1261139,0.5579529,4.0976715,1.6729736c0.971344,1.1156921,1.4570313,2.7113037,1.4570313,4.787323v13.7183533
			h5.2311096v-13.6668091c0-1.0465393,0.1658936-1.9773865,0.4982605-2.7925415
			c0.3319702-0.8149414,0.7761383-1.4968262,1.3326721-2.0463257c0.5561676-0.5488281,1.2081299-0.9650879,1.9553223-1.248291
			c0.7473755-0.282959,1.5444946-0.4246826,2.3914795-0.4246826c1.7598572,0,3.1260681,0.5579529,4.0976563,1.6729736
			c0.971344,1.1156921,1.4570313,2.7113037,1.4570313,4.787323v13.7183533h5.2311401v-15.4942627
			c0-1.4413452-0.2365723-2.7624512-0.7098694-3.9637146C268.7510681,341.739563,268.0823364,340.7058105,267.2191772,339.8390808z"
			/>
		<path d="M294.8057251,340.7270203c-0.8582458-1.0979004-1.921936-1.9773865-3.1914368-2.6380615
			c-1.2699585-0.6604309-2.7886658-0.9910889-4.5556946-0.9910889c-1.7332153,0-3.3459473,0.3217773-4.8386536,0.9653015
			c-1.4929199,0.6433411-2.7971191,1.5401611-3.9123535,2.6896362c-1.115448,1.1497192-1.9906311,2.5182495-2.6252747,4.1051941
			c-0.6348877,1.5871887-0.952301,3.3245239-0.952301,5.211792c0,1.8881226,0.3174133,3.6250305,0.952301,5.2120056
			c0.6346436,1.5873718,1.5098267,2.9559326,2.6252747,4.1051941c1.1152344,1.1496887,2.4194336,2.0462952,3.9123535,2.6898499
			c1.4927063,0.6430969,3.1054382,0.9650879,4.8386536,0.9650879c1.7670288,0,3.2857361-0.3263245,4.5556946-0.9780884
			c1.2695007-0.6517639,2.3331909-1.5271606,3.1914368-2.6253052v2.9598389h5.3794861v-24.6569519h-5.3794861V340.7270203z
			 M294.599884,353.2098999c-0.360321,0.9611816-0.8666992,1.7932434-1.5187073,2.496582
			c-0.6521912,0.7037659-1.4326782,1.2571716-2.3420715,1.6601868c-0.9096069,0.4034424-1.921936,0.6045227-3.0369568,0.6045227
			c-1.1670532,0-2.2094727-0.2097473-3.1273499-0.6300964c-0.9180603-0.4203491-1.6946411-0.9867554-2.3292847-1.698761
			c-0.6348572-0.7120056-1.1239014-1.5483704-1.4669189-2.5095825c-0.3434448-0.9607544-0.5148315-1.98172-0.5148315-3.0629578
			c0-1.0808105,0.1713867-2.1015625,0.5148315-3.0627441c0.3430176-0.9607544,0.8320618-1.7971497,1.4669189-2.5093689
			c0.6346436-0.711792,1.4112244-1.2781982,2.3292847-1.698761c0.9178772-0.4203491,1.9602966-0.6305542,3.1273499-0.6305542
			c1.1150208,0,2.1273499,0.2017517,3.0369568,0.6047668c0.9093933,0.4034424,1.6898804,0.9568481,2.3420715,1.6601868
			c0.6520081,0.7037659,1.1583862,1.5358276,1.5187073,2.496582c0.3603516,0.9611816,0.5404053,2.0075378,0.5404053,3.1398926
			S294.9602356,352.2491455,294.599884,353.2098999z"/>
		<path d="M324.9117432,350.0312195c-1.5102539-1.1750488-3.6124573-1.960083-6.3062134-2.3548584l-2.547699-0.3861389
			c-0.5664063-0.0857849-1.0985718-0.1841736-1.5960693-0.2959595c-0.4974976-0.1113892-0.9265137-0.2615356-1.2866516-0.4505005
			c-0.3601074-0.1885071-0.6478577-0.4285889-0.8619385-0.7206726c-0.2149353-0.2914124-0.321991-0.6517639-0.321991-1.0809937
			c0-0.8749695,0.4073792-1.5828552,1.2225037-2.1234436c0.8147278-0.5404053,1.960083-0.8106079,3.4360962-0.8106079
			c0.7718201,0,1.5310669,0.0686951,2.2777405,0.2058411c0.7466736,0.1376038,1.4539185,0.3087769,2.1234436,0.5148315
			c0.6690979,0.2058411,1.2779846,0.4335632,1.8274841,0.6820984c0.5486145,0.2487488,1.0122986,0.4849243,1.3897705,0.7076721
			l2.3162842-4.195343c-1.2870483-0.8235779-2.788208-1.4625549-4.504303-1.9173889
			c-1.7156677-0.4543762-3.5431519-0.6820984-5.4819946-0.6820984c-1.5791321,0-2.9944763,0.1846008-4.2468872,0.5534058
			c-1.2524109,0.3692017-2.3206482,0.8922729-3.2042542,1.5700378c-0.8840637,0.678009-1.5618286,1.5057068-2.0333252,2.4835815
			c-0.4723511,0.9780884-0.7076721,2.0764465-0.7076721,3.2946167c0,1.9906311,0.7076721,3.5992432,2.1230164,4.8258667
			c1.415802,1.2270508,3.4963379,2.0292053,6.2416687,2.4066467l2.5737,0.3345642
			c1.4760132,0.2058411,2.5568237,0.536499,3.2432556,0.9906311c0.6860046,0.4550476,1.0296631,1.0339966,1.0296631,1.7373352
			c0,0.9269714-0.4723511,1.6602173-1.4157715,2.200592c-0.9438782,0.5404053-2.3423157,0.8108215-4.195343,0.8108215
			c-1.0123291,0-1.9171753-0.0684814-2.7154236-0.2058411c-0.797821-0.1373901-1.5271606-0.321991-2.1875916-0.5534058
			c-0.6608582-0.2314148-1.2528381-0.4974976-1.7759094-0.797821c-0.5234985-0.300293-1.0079956-0.6218567-1.4543457-0.9650879
			l-2.496582,4.0406494c0.8923035,0.6690979,1.8274841,1.2099304,2.8055725,1.6216125s1.9388428,0.7332458,2.8826904,0.9650879
			c0.9434204,0.231842,1.8356934,0.3861389,2.6768494,0.4632568c0.8403015,0.0771484,1.5783081,0.1161499,2.2135925,0.1161499
			c1.7668152,0,3.3498535-0.1976013,4.748291-0.59198c1.398468-0.3947754,2.5737305-0.9481812,3.5262451-1.660614
			c0.9525146-0.7115784,1.681427-1.5609436,2.1875916-2.547699s0.7592468-2.0718994,0.7592468-3.2558289
			C327.1764832,352.8497925,326.4215698,351.2064819,324.9117432,350.0312195z"/>
		<path d="M375.2778931,340.6884766c-1.0209961-1.1410522-2.2478333-2.0244446-3.6805115-2.6510925
			c-1.4326782-0.6261902-3.0075073-0.9395142-4.7227173-0.9395142c-1.8192444,0-3.4790039,0.313324-4.9801636,0.9395142
			c-1.5020142,0.6266479-2.7925415,1.5100403-3.8737793,2.6510925c-1.0812378,1.1412354-1.921936,2.5093384-2.522583,4.1051941
			c-0.6006165,1.5956116-0.9005127,3.3546143-0.9005127,5.276123c0,1.9561768,0.3085632,3.7320862,0.9265137,5.328125
			c0.617981,1.5956421,1.4838257,2.9598389,2.5992737,4.0917664c1.1154785,1.1328125,2.4450073,2.0081787,3.989502,2.6252747
			c1.5444946,0.617981,3.2432556,0.9269714,5.096283,0.9269714c1.8699341,0,3.6506042-0.2574158,5.3406982-0.7722473
			c1.6896667-0.5148315,3.2900696-1.4157715,4.7998657-2.7024231l-2.6763916-3.8347778
			c-1.0296631,0.8233643-2.1668091,1.4630127-3.4105225,1.9171753c-1.2441711,0.4550171-2.4840088,0.6820984-3.7190857,0.6820984
			c-0.8753967,0-1.716095-0.1195984-2.5221558-0.3605652c-0.8069153-0.2400818-1.5357971-0.6127625-2.1880188-1.1193542
			c-0.6521912-0.5057373-1.2095032-1.1540222-1.6731873-1.9431763c-0.4628296-0.7891541-0.7809143-1.7416687-0.9520874-2.8571167
			h18.2222595c0.034668-0.3085632,0.0602417-0.6344299,0.0775757-0.9776611
			c0.0169067-0.3432312,0.0255737-0.6862183,0.0255737-1.0296631c0-1.9215088-0.287323-3.676178-0.8623962-5.2635498
			C377.0967102,343.1939087,376.2984619,341.8297119,375.2778931,340.6884766z M360.2338867,347.9593506
			c0.1373596-0.8918762,0.3774414-1.7115479,0.7210999-2.4580078c0.3427734-0.7462463,0.7848206-1.389801,1.3251953-1.9301758
			c0.5408325-0.5406189,1.1839294-0.9564209,1.9301758-1.2485046c0.7466736-0.2914429,1.5999756-0.4374695,2.5611572-0.4374695
			c1.7156677,0,3.1141052,0.532135,4.195343,1.5958252c1.0812073,1.0641174,1.7667847,2.5568237,2.0588684,4.4783325H360.2338867z"
			/>
		<path d="M446.7450867,340.7270203c-0.8580322-1.0979004-1.9215088-1.9773865-3.1912537-2.6380615
			c-1.2697144-0.6604309-2.7886353-0.9910889-4.5554504-0.9910889c-1.733429,0-3.3463745,0.3217773-4.8388672,0.9653015
			c-1.4929199,0.6433411-2.7969055,1.5401611-3.9123535,2.6896362c-1.1154785,1.1497192-1.9908447,2.5182495-2.6252747,4.1051941
			c-0.6348877,1.5871887-0.9525146,3.3245239-0.9525146,5.211792c0,1.8881226,0.317627,3.6250305,0.9525146,5.2120056
			c0.6344299,1.5873718,1.5097961,2.9559326,2.6252747,4.1051941c1.115448,1.1496887,2.4194336,2.0462952,3.9123535,2.6898499
			c1.4924927,0.6430969,3.1054382,0.9650879,4.8388672,0.9650879c1.7668152,0,3.2857361-0.3263245,4.5554504-0.9780884
			c1.2697449-0.6517639,2.3332214-1.5271606,3.1912537-2.6253052v2.9598389h5.3796997v-24.6569519h-5.3796997V340.7270203z
			 M446.5396729,353.2098999c-0.3605347,0.9611816-0.8666992,1.7932434-1.5189209,2.496582
			c-0.6521912,0.7037659-1.4326782,1.2571716-2.3422852,1.6601868c-0.9091797,0.4034424-1.9215088,0.6045227-3.0369873,0.6045227
			c-1.1665955,0-2.209259-0.2097473-3.1271057-0.6300964s-1.6944275-0.9867554-2.3292847-1.698761
			c-0.6348877-0.7120056-1.1237183-1.5483704-1.4669189-2.5095825c-0.3432312-0.9607544-0.5148315-1.98172-0.5148315-3.0629578
			c0-1.0808105,0.1716003-2.1015625,0.5148315-3.0627441c0.3432007-0.9607544,0.8320313-1.7971497,1.4669189-2.5093689
			c0.6348572-0.711792,1.411438-1.2781982,2.3292847-1.698761c0.9178467-0.4203491,1.9605103-0.6305542,3.1271057-0.6305542
			c1.1154785,0,2.1278076,0.2017517,3.0369873,0.6047668c0.9096069,0.4034424,1.690094,0.9568481,2.3422852,1.6601868
			c0.6522217,0.7037659,1.1583862,1.5358276,1.5189209,2.496582c0.3601379,0.9611816,0.539978,2.0075378,0.539978,3.1398926
			S446.8998108,352.2491455,446.5396729,353.2098999z"/>
		<path d="M347.9776611,357.4823608c-0.8667297,0.3258972-1.7204285,0.4888306-2.5611572,0.4888306
			c-0.5494995,0-1.0599976-0.0853577-1.5314941-0.2574158c-0.4723511-0.1707153-0.8840332-0.4411316-1.2350464-0.8103638
			c-0.3518982-0.3687744-0.6309814-0.8450623-0.8368225-1.4283447c-0.2058411-0.583313-0.3089905-1.2870789-0.3089905-2.1104431
			v-10.7329712h8.6394348v-4.8902283h-8.6394348v-7.4639587h-5.4048462v7.4639587h-4.9159851v4.8902283h4.9159851v10.8356628
			c0,3.2774963,0.7761536,5.6925964,2.3293152,7.2453003c1.5527039,1.5531616,3.7272949,2.3293152,6.5246277,2.3293152
			c1.5614014,0,2.9637451-0.240509,4.2083435-0.7206726c0.8222961-0.3174744,1.5850525-0.6804504,2.2987366-1.0807495
			l-1.8392639-4.5041199C349.1007996,357.0145874,348.5546265,357.2651978,347.9776611,357.4823608z"/>
		<path d="M396.5431824,337.0978699c-1.5097961,0-2.8740234,0.2747498-4.0926208,0.8236084
			c-1.2185974,0.5494995-2.238739,1.8712463-3.0625305,3.0551758v-3.2352295h-4.8839417v24.6569519h4.9355164v-13.5638733
			c0-1.0463562,0.1455994-1.9819641,0.4376831-2.805542c0.2911987-0.8236084,0.6946716-1.5184937,1.2095032-2.0846863
			c0.5143738-0.5661926,1.1323547-0.9949951,1.8530273-1.2868652c0.7206726-0.291626,1.5093994-0.4376831,2.3678589-0.4376831
			c0.6522217,0,1.3551331,0.0773621,2.1104736,0.2316284c0.3850098,0.0787964,0.744873,0.1759644,1.0808411,0.2904358
			l1.5905151-5.1466675c-0.4313049-0.1362-0.8688049-0.2536011-1.3197327-0.3299561
			C398.10849,337.1537781,397.3665771,337.0978699,396.5431824,337.0978699z"/>
		<path d="M471.3209534,337.0978699c-1.5098267,0-2.8740234,0.2747498-4.0926514,0.8236084
			c-1.2185974,0.5494995-2.2387085,1.8712463-3.0625305,3.0551758v-3.2352295h-4.8839417v24.6569519h4.9355164v-13.5638733
			c0-1.0463562,0.1455994-1.9819641,0.4376831-2.805542c0.2912292-0.8236084,0.6946716-1.5184937,1.2095032-2.0846863
			c0.5144043-0.5661926,1.1323547-0.9949951,1.8530579-1.2868652c0.7206726-0.291626,1.5093689-0.4376831,2.3678589-0.4376831
			c0.6521912,0,1.3551025,0.0773621,2.1104431,0.2316284c0.3850098,0.0787964,0.7449036,0.1759644,1.0808411,0.2904358
			l1.5905457-5.1466675c-0.4313354-0.1362-0.8688354-0.2536011-1.3197327-0.3299561
			C472.8862305,337.1537781,472.1443176,337.0978699,471.3209534,337.0978699z"/>
		<path d="M496.4460144,327.7193604v13.0076599c-0.8580322-1.0979004-1.921936-1.9773865-3.1912231-2.6380615
			c-1.2701721-0.6604309-2.789093-0.9910889-4.5559082-0.9910889c-1.7330017,0-3.3459473,0.3217773-4.8384399,0.9653015
			c-1.4933472,0.6433411-2.7973022,1.5401611-3.9123535,2.6896362c-1.115448,1.1497192-1.9908447,2.5182495-2.6252747,4.1051941
			c-0.6353149,1.5871887-0.9525146,3.3245239-0.9525146,5.211792c0,1.8881226,0.3171997,3.6250305,0.9525146,5.2120056
			c0.6344299,1.5873718,1.5098267,2.9559326,2.6252747,4.1051941c1.1150513,1.1496887,2.4190063,2.0462952,3.9123535,2.6898499
			c1.4924927,0.6430969,3.1054382,0.9650879,4.8384399,0.9650879c1.7668152,0,3.2857361-0.3263245,4.5559082-0.9780884
			c1.2692871-0.6517639,2.3331909-1.5271606,3.1912231-2.6253052v2.9598389h5.3792725v-34.6790161H496.4460144z
			 M496.2401733,353.2098999c-0.3601074,0.9611816-0.8666992,1.7932434-1.5189209,2.496582
			c-0.6517639,0.7037659-1.4326782,1.2571716-2.3418579,1.6601868c-0.9096069,0.4034424-1.921936,0.6045227-3.0369568,0.6045227
			c-1.1670532,0-2.209259-0.2097473-3.1271057-0.6300964c-0.9183044-0.4203491-1.6948853-0.9867554-2.3297424-1.698761
			c-0.6344299-0.7120056-1.1236877-1.5483704-1.4664917-2.5095825c-0.3436584-0.9607544-0.5148315-1.98172-0.5148315-3.0629578
			c0-1.0808105,0.1711731-2.1015625,0.5148315-3.0627441c0.342804-0.9607544,0.8320618-1.7971497,1.4664917-2.5093689
			c0.6348572-0.711792,1.411438-1.2781982,2.3297424-1.698761c0.9178467-0.4203491,1.9600525-0.6305542,3.1271057-0.6305542
			c1.1150208,0,2.1273499,0.2017517,3.0369568,0.6047668c0.9091797,0.4034424,1.690094,0.9568481,2.3418579,1.6601868
			c0.6522217,0.7037659,1.1588135,1.5358276,1.5189209,2.496582c0.3601379,0.9611816,0.5404053,2.0075378,0.5404053,3.1398926
			S496.6003113,352.2491455,496.2401733,353.2098999z"/>
		<path d="M409.4169617,344.3689575c0.6855774-0.6948853,1.5011292-1.2355042,2.4450073-1.6216125
			c0.9438477-0.3858948,1.9648438-0.5789795,3.0629578-0.5789795l0,0c1.2080078,0,2.3311768,0.1928406,3.3694763,0.578949
			c1.0035706,0.3728027,1.8721924,0.8938293,2.6103821,1.5557251l2.5896606-4.3069763
			c-0.9704285-0.7757568-2.0641479-1.4114075-3.2808228-1.9071045c-1.6216125-0.6604309-3.3845215-0.9910889-5.2886963-0.9910889
			c-1.9050293,0-3.6679382,0.330658-5.2895508,0.9910889c-1.6216431,0.660675-3.0196533,1.5698547-4.1949158,2.7282104
			c-1.1752625,1.1581421-2.0974426,2.5267029-2.7665405,4.1051941c-0.6699829,1.5787354-1.0045471,3.2944031-1.0045471,5.1474304
			c0,1.8534546,0.3345642,3.5691223,1.0045471,5.1478577c0.6690979,1.5787048,1.5912781,2.9468384,2.7665405,4.1047668
			c1.1752625,1.158783,2.5732727,2.0679932,4.1949158,2.7284241c1.6216125,0.6604309,3.3845215,0.9910889,5.2895508,0.9910889
			c1.9041748,0,3.6670837-0.330658,5.2886963-0.9910889c1.2167053-0.4955139,2.3103943-1.1311646,3.2808228-1.9071045
			l-2.5897827-4.3071899c-0.7381287,0.6616211-1.6067505,1.1824951-2.61026,1.5556641
			c-1.0382996,0.3858948-2.1614685,0.5789795-3.3694763,0.5789795l0,0c-1.098114,0-2.1191101-0.1928406-3.0629578-0.578949
			c-0.9438782-0.3856812-1.7594299-0.9265137-2.4450073-1.6216431c-0.6864624-0.6946716-1.2272644-1.5267029-1.6216431-2.4961243
			c-0.3952026-0.9694214-0.5919495-2.0376587-0.5919495-3.2046814c0-1.1665955,0.1967468-2.2346191,0.5919495-3.2042542
			C408.1896973,345.8963318,408.7304993,345.0638733,409.4169617,344.3689575z"/>
	</g>
	<g>
		<path d="M508.548584,360.0305176c0.2697144,0,0.5226135,0.0499268,0.7585449,0.1496277
			c0.2359924,0.099762,0.4417725,0.235321,0.6174011,0.4066772c0.1755371,0.1713867,0.3139648,0.3715515,0.4151611,0.6004944
			c0.1011047,0.2290649,0.1517029,0.4741516,0.1517029,0.7354126c0,0.2585144-0.0505981,0.5029297-0.1517029,0.7333069
			c-0.1011963,0.2303772-0.239624,0.4319458-0.4151611,0.6047058c-0.1756287,0.1727905-0.3814087,0.3091125-0.6174011,0.408783
			c-0.2359314,0.0997925-0.4888306,0.1496277-0.7585449,0.1496277c-0.2753601,0-0.5324402-0.0498352-0.7712097-0.1496277
			c-0.2388611-0.0996704-0.4460449-0.2359924-0.621582-0.408783c-0.1756287-0.17276-0.3133545-0.3743286-0.4130554-0.6047058
			c-0.0996704-0.2303772-0.1495667-0.4747925-0.1495667-0.7333069c0-0.261261,0.0498962-0.5063477,0.1495667-0.7354126
			c0.0997009-0.2289429,0.2374268-0.4291077,0.4130554-0.6004944c0.1755371-0.1713562,0.3827209-0.3069153,0.621582-0.4066772
			C508.0161438,360.0804443,508.2732239,360.0305176,508.548584,360.0305176z M508.548584,363.2923584
			c0.1882019,0,0.3652344-0.0358276,0.5309753-0.1074524c0.1657715-0.0716248,0.3098145-0.16922,0.4320068-0.2928772
			c0.1221619-0.1235962,0.2183838-0.26828,0.2886353-0.434082c0.0702515-0.165741,0.1053772-0.3441467,0.1053772-0.5352173
			c0-0.1881714-0.0351257-0.3659363-0.1053772-0.5331116c-0.0702515-0.1670837-0.1664734-0.3118591-0.2886353-0.434082
			c-0.1221924-0.1221619-0.2662354-0.2191162-0.4320068-0.2907715c-0.165741-0.0716248-0.3427734-0.1074524-0.5309753-0.1074524
			c-0.1938477,0-0.3744202,0.0358276-0.5415344,0.1074524c-0.1671753,0.0716553-0.312561,0.1686096-0.4361572,0.2907715
			c-0.1236877,0.1222229-0.2206116,0.2669983-0.290802,0.434082c-0.0702209,0.1671753-0.1053467,0.3449402-0.1053467,0.5331116
			c0,0.1910706,0.0351257,0.3694763,0.1053467,0.5352173c0.0701904,0.165802,0.1671143,0.3104858,0.290802,0.434082
			c0.1235962,0.1236572,0.2689819,0.2212524,0.4361572,0.2928772
			C508.1741638,363.2565308,508.3547363,363.2923584,508.548584,363.2923584z M508.6581421,361.0840759
			c0.2303467,0,0.4052429,0.0513,0.5246582,0.1538391c0.1194153,0.1026001,0.1791687,0.239563,0.1791687,0.4108887
			c0,0.1348572-0.0429077,0.246521-0.1285706,0.3350525c-0.0857239,0.0884705-0.210022,0.1468506-0.3729553,0.1748657
			l0.5226135,0.6026306h-0.5647583l-0.467804-0.5857849h-0.0547791v0.5857849H507.8237v-1.6772766H508.6581421z
			 M508.2957153,361.4928589v0.3076782h0.3540039c0.072998,0,0.1292114-0.0112,0.1685791-0.0337524
			c0.0393066-0.0224609,0.05896-0.0617676,0.05896-0.117981c0-0.0533447-0.0196533-0.0927124-0.05896-0.1180115
			c-0.0393677-0.0252686-0.0955811-0.0379333-0.1685791-0.0379333H508.2957153z"/>
	</g>
</g>
</svg>
