<svg xmlns="http://www.w3.org/2000/svg" width="25.031" height="16" viewBox="0 0 25.031 16">
  <metadata><?xpacket begin="﻿" id="W5M0MpCehiHzreSzNTczkc9d"?>
<x:xmpmeta xmlns:x="adobe:ns:meta/" x:xmptk="Adobe XMP Core 5.6-c142 79.160924, 2017/07/13-01:06:39        ">
   <rdf:RDF xmlns:rdf="http://www.w3.org/1999/02/22-rdf-syntax-ns#">
      <rdf:Description rdf:about=""/>
   </rdf:RDF>
</x:xmpmeta>
                                                                                                    
                                                                                                    
                                                                                                    
                                                                                                    
                                                                                                    
                                                                                                    
                                                                                                    
                                                                                                    
                                                                                                    
                                                                                                    
                                                                                                    
                                                                                                    
                                                                                                    
                                                                                                    
                                                                                                    
                                                                                                    
                                                                                                    
                                                                                                    
                                                                                                    
                                                                                                    
                           
<?xpacket end="w"?></metadata>
<defs>
    <style>
      .cls-1 {
        fill: #1a1a1a;
        fill-rule: evenodd;
      }
    </style>
  </defs>
  <path id="mastercard" class="cls-1" d="M646.6,867.938a7.428,7.428,0,0,0,4.832-1.8,7.477,7.477,0,0,0,4.9,1.851,8,8,0,0,0,0-15.985,7.458,7.458,0,0,0-4.913,1.856,7.416,7.416,0,0,0-4.824-1.791A7.94,7.94,0,0,0,646.6,867.938ZM662.368,860a6.165,6.165,0,0,1-6.031,6.275,5.873,5.873,0,0,1-3.752-1.366,8.164,8.164,0,0,0,0-9.812,5.841,5.841,0,0,1,3.757-1.375A6.167,6.167,0,0,1,662.368,860Z" transform="translate(-638.969 -852)"/>
</svg>
