<svg id="svg" version="1.1" height="228.57142857142858" viewBox="0 0 400 228.57142857142858" xmlns="http://www.w3.org/2000/svg" xmlns:xlink="http://www.w3.org/1999/xlink" ><g id="svgg"><path id="path0" d="M0.000 23.771 L 0.000 47.543 200.000 47.543 L 400.000 47.543 400.000 23.771 L 400.000 0.000 200.000 0.000 L 0.000 0.000 0.000 23.771 M0.000 114.857 L 0.000 142.857 200.000 142.857 L 400.000 142.857 400.000 114.857 L 400.000 86.857 200.000 86.857 L 0.000 86.857 0.000 114.857 M107.200 182.743 C 107.200 183.200,107.086 183.314,106.629 183.314 L 106.057 183.314 106.057 205.943 L 106.057 228.571 253.029 228.571 L 400.000 228.571 400.000 205.371 L 400.000 182.171 253.600 182.171 L 107.200 182.171 107.200 182.743 " stroke="none" fill="#000000" fill-rule="evenodd"></path><path id="path1" d="M0.000 23.771 L 0.000 47.543 200.000 47.543 L 400.000 47.543 400.000 23.771 L 400.000 0.000 200.000 0.000 L 0.000 0.000 0.000 23.771 M0.000 114.857 L 0.000 142.857 200.000 142.857 L 400.000 142.857 400.000 114.857 L 400.000 86.857 200.000 86.857 L 0.000 86.857 0.000 114.857 M107.200 182.743 C 107.200 183.200,107.086 183.314,106.629 183.314 L 106.057 183.314 106.057 205.943 L 106.057 228.571 253.029 228.571 L 400.000 228.571 400.000 205.371 L 400.000 182.171 253.600 182.171 L 107.200 182.171 107.200 182.743 " stroke="none" fill="#000000" fill-rule="evenodd"></path><path id="path2" d="M0.000 23.771 L 0.000 47.543 200.000 47.543 L 400.000 47.543 400.000 23.771 L 400.000 0.000 200.000 0.000 L 0.000 0.000 0.000 23.771 M0.000 114.857 L 0.000 142.857 200.000 142.857 L 400.000 142.857 400.000 114.857 L 400.000 86.857 200.000 86.857 L 0.000 86.857 0.000 114.857 M107.200 182.743 C 107.200 183.200,107.086 183.314,106.629 183.314 L 106.057 183.314 106.057 205.943 L 106.057 228.571 253.029 228.571 L 400.000 228.571 400.000 205.371 L 400.000 182.171 253.600 182.171 L 107.200 182.171 107.200 182.743 " stroke="none" fill="#000000" fill-rule="evenodd"></path><path id="path3" d="M0.000 23.771 L 0.000 47.543 200.000 47.543 L 400.000 47.543 400.000 23.771 L 400.000 0.000 200.000 0.000 L 0.000 0.000 0.000 23.771 M0.000 114.857 L 0.000 142.857 200.000 142.857 L 400.000 142.857 400.000 114.857 L 400.000 86.857 200.000 86.857 L 0.000 86.857 0.000 114.857 M107.200 182.743 C 107.200 183.200,107.086 183.314,106.629 183.314 L 106.057 183.314 106.057 205.943 L 106.057 228.571 253.029 228.571 L 400.000 228.571 400.000 205.371 L 400.000 182.171 253.600 182.171 L 107.200 182.171 107.200 182.743 " stroke="none" fill="#000000" fill-rule="evenodd"></path><path id="path4" d="M0.000 23.771 L 0.000 47.543 200.000 47.543 L 400.000 47.543 400.000 23.771 L 400.000 0.000 200.000 0.000 L 0.000 0.000 0.000 23.771 M0.000 114.857 L 0.000 142.857 200.000 142.857 L 400.000 142.857 400.000 114.857 L 400.000 86.857 200.000 86.857 L 0.000 86.857 0.000 114.857 M107.200 182.743 C 107.200 183.200,107.086 183.314,106.629 183.314 L 106.057 183.314 106.057 205.943 L 106.057 228.571 253.029 228.571 L 400.000 228.571 400.000 205.371 L 400.000 182.171 253.600 182.171 L 107.200 182.171 107.200 182.743 " stroke="none" fill="#000000" fill-rule="evenodd"></path></g></svg>