<?xml version="1.0" encoding="utf-8"?>
<!-- Generator: Adobe Illustrator 22.0.1, SVG Export Plug-In . SVG Version: 6.00 Build 0)  -->
<svg version="1.1" id="Слой_1" xmlns="http://www.w3.org/2000/svg" xmlns:xlink="http://www.w3.org/1999/xlink" x="0px" y="0px"
	 viewBox="0 0 6 7" style="enable-background:new 0 0 6 7;" xml:space="preserve">
<style type="text/css">
	.st0{fill:#17363D;}
</style>
<title>003-pinterest</title>
<desc>Created with Sketch.</desc>
<g id="Page-1">
	<g id="_x30_1-main" transform="translate(-214.000000, -37.000000)">
		<g id="_x30_03-pinterest" transform="translate(214.000000, 37.000000)">
			<path id="XMLID_799_" class="st0" d="M5.2218575,0.7173191C4.696382,0.2547598,3.969182,0,3.1742227,0
				C1.9598831,0,1.2130101,0.4564409,0.800302,0.8393257C0.291668,1.3111867,0,1.9377234,0,2.5583222
				c0,0.7792029,0.3554381,1.3772697,0.9506664,1.599767c0.0399609,0.0150137,0.0801681,0.0225773,0.1195873,0.0225773
				c0.1255704,0,0.2250665-0.0753398,0.2595369-0.1961951c0.0200912-0.069334,0.0666507-0.2403781,0.0868897-0.3146341
				c0.0433341-0.1466382,0.0083221-0.217169-0.0861758-0.3192852C1.15835,3.1637719,1.078182,2.9429002,1.078182,2.6554489
				c0-0.8538202,0.6933455-1.761261,1.9783986-1.761261c1.0196319,0,1.6530237,0.5313968,1.6530237,1.3867974
				c0,0.5397954-0.1268015,1.0396972-0.3571124,1.407681C4.192451,3.9443519,3.9110255,4.2491426,3.4789896,4.2491426
				c-0.1868291,0-0.3546503-0.0703731-0.4605479-0.1930566C2.9184039,3.9401073,2.8854356,3.7902858,2.9256673,3.6341429
				c0.0454516-0.1764174,0.1074243-0.3604431,0.1674025-0.5383506c0.1093941-0.3249295,0.212805-0.6318197,0.212805-0.8766682
				c0-0.4188049-0.2807853-0.7002057-0.6986394-0.7002057c-0.5310397,0-0.9470716,0.4945737-0.9470716,1.1259419
				c0,0.3096447,0.0897459,0.5412402,0.1303716,0.6301715C1.7236384,3.5349391,1.326048,5.0801373,1.2506319,5.3715172
				c-0.0436049,0.1700954-0.3062932,1.513545,0.1285003,1.6206732c0.4885181,0.1203585,0.9251831-1.1880736,0.9696252-1.3359313
				C2.384779,5.5360136,2.5108171,5.0813336,2.5880551,4.8018293C2.8238814,5.0101256,3.2035964,5.150939,3.5730689,5.150939
				c0.696522,0,1.322921-0.2874064,1.7638209-0.8092303C5.7644939,3.8355756,6,3.130132,6,2.355422
				C6,1.7497691,5.7163587,1.1526955,5.2218575,0.7173191z"/>
		</g>
	</g>
</g>
</svg>
