<svg xmlns="http://www.w3.org/2000/svg" width="17" height="18" viewBox="0 0 17 18">
  <metadata><?xpacket begin="﻿" id="W5M0MpCehiHzreSzNTczkc9d"?>
<x:xmpmeta xmlns:x="adobe:ns:meta/" x:xmptk="Adobe XMP Core 5.6-c142 79.160924, 2017/07/13-01:06:39        ">
   <rdf:RDF xmlns:rdf="http://www.w3.org/1999/02/22-rdf-syntax-ns#">
      <rdf:Description rdf:about=""/>
   </rdf:RDF>
</x:xmpmeta>
                                                                                                    
                                                                                                    
                                                                                                    
                                                                                                    
                                                                                                    
                                                                                                    
                                                                                                    
                                                                                                    
                                                                                                    
                                                                                                    
                                                                                                    
                                                                                                    
                                                                                                    
                                                                                                    
                                                                                                    
                                                                                                    
                                                                                                    
                                                                                                    
                                                                                                    
                                                                                                    
                           
<?xpacket end="w"?></metadata>
<defs>
    <style>
      .cls-1 {
        fill: #32b3d0;
        fill-rule: evenodd;
      }
    </style>
  </defs>
  <path id="print" class="cls-1" d="M783.357,947.689H782.9V946.66a2.655,2.655,0,0,0-2.643-2.66h-5.549a2.655,2.655,0,0,0-2.643,2.66v1.029h-0.419a2.655,2.655,0,0,0-2.643,2.66v4.29a2.655,2.655,0,0,0,2.643,2.66h0.415v3.373a1.327,1.327,0,0,0,1.32,1.328h8.2a1.328,1.328,0,0,0,1.32-1.328V957.3h0.463a2.655,2.655,0,0,0,2.643-2.66v-4.29A2.655,2.655,0,0,0,783.357,947.689Zm-10.3-1.029a1.651,1.651,0,0,1,1.642-1.653h5.546a1.651,1.651,0,0,1,1.642,1.653v1.029h-8.83V946.66Zm8.834,14.019a0.322,0.322,0,0,1-.319.321h-8.2a0.322,0.322,0,0,1-.319-0.321v-5.562h8.834v5.562ZM785,954.643a1.651,1.651,0,0,1-1.642,1.653H782.9v-1.179h0.66a0.5,0.5,0,0,0,0-1.007H771.324a0.5,0.5,0,0,0,0,1.007h0.738V956.3h-0.419A1.651,1.651,0,0,1,770,954.643v-4.29a1.651,1.651,0,0,1,1.642-1.653h11.714A1.651,1.651,0,0,1,785,950.353v4.29Zm-10.728,2.951h6.372a0.5,0.5,0,0,0,0-1.007h-6.372A0.5,0.5,0,0,0,774.271,957.594Zm6.413,1.052h-6.376a0.5,0.5,0,0,0,0,1.007h6.372A0.5,0.5,0,0,0,780.684,958.646Zm2.662-8.979H782.33a0.5,0.5,0,0,0,0,1.007h1.016A0.5,0.5,0,0,0,783.346,949.667Z" transform="translate(-769 -944)"/>
</svg>
