<?xml version="1.0" encoding="utf-8"?>
<!-- Generator: Adobe Illustrator 22.0.1, SVG Export Plug-In . SVG Version: 6.00 Build 0)  -->
<svg version="1.1" id="Слой_1" xmlns="http://www.w3.org/2000/svg" xmlns:xlink="http://www.w3.org/1999/xlink" x="0px" y="0px"
	 viewBox="0 0 30 9" style="enable-background:new 0 0 30 9;" xml:space="preserve">
<style type="text/css">
	.st0{clip-path:url(#SVGID_2_);}
	.st1{clip-path:url(#SVGID_4_);}
</style>
<g>
	<defs>
		<path id="SVGID_1_" d="M12.0121698,0.1503572h2.4396801L12.9259501,8.869813h-2.4384298L12.0121698,0.1503572z
			 M11.0262604,0.157691L7.1861019,8.8606453l-2.580173,0.0042782L2.422127,1.5934129
			c1.569803,0.9791512,2.9069278,2.532835,3.3779318,3.6146684l0.2546301,0.8978605l2.3882604-5.9464169L11.0262604,0.157691z
			 M0,0.2493715l0.0313585-0.1748047H3.811933c0.5098882,0.0189476,0.9206839,0.1772499,1.0624242,0.7083874L5.6965761,4.635993
			C4.888782,2.6208491,2.94205,0.9443121,0,0.2493715z M21.4153099,6.0203743C21.3977509,7.8313751,19.7319908,9,17.1687508,9
			c-1.0931606-0.0110016-2.1461706-0.220645-2.7169008-0.4645157l0.34307-1.9515791l0.3142099,0.1393547
			c0.80089,0.325161,1.3195601,0.4565701,2.2960596,0.4565701c0.7005501,0,1.4506397-0.2677083,1.4581699-0.851409
			c0.0043907-0.3820033-0.314209-0.6539903-1.26437-1.0818343C16.6732903,4.829134,15.4477997,4.1299152,15.46348,2.8775549
			C15.4766502,1.182683,17.1750202,0,19.58461,0c0.9445095,0,1.7014999,0.1894741,2.1844196,0.3661118L21.4391403,2.255959
			l-0.2201309-0.1008492c-0.4490585-0.1760268-1.0273094-0.345942-1.8250599-0.3337178
			c-0.9545593,0-1.3973389,0.3875041-1.3973389,0.749949C17.9916,2.9796262,18.5133991,3.2485571,19.3663502,3.6531749
			C20.7756004,4.2735481,21.4259701,5.0296097,21.4153099,6.0203743z M25.0196495,5.7795591
			c0.2007008-0.5005779,0.9714909-2.4368763,0.9714909-2.4368763c-0.0131702,0.0238371,0.1988106-0.5042448,0.3248692-0.8324618
			l0.16432,0.7517819c0,0,0.4672413,2.0817661,0.5650806,2.5175562H25.0196495z M28.0269299,0.1589127H26.14291
			c-0.5851498,0-1.0203991,0.1552477-1.2775402,0.7236681l-3.6206493,7.9909h2.56073c0,0,0.4176998-1.0745001,0.5123997-1.3098135
			c0.2803402,0,2.7683201,0.0036669,3.1226692,0.0036669c0.0727615,0.3043809,0.2972813,1.3061466,0.2972813,1.3061466H30
			L28.0269299,0.1589127z"/>
	</defs>
	<clipPath id="SVGID_2_">
		<use xlink:href="#SVGID_1_"  style="overflow:visible;"/>
	</clipPath>
	<g class="st0">
		<defs>
			<rect id="SVGID_3_" x="-1756" y="-368" width="1920" height="940"/>
		</defs>
		<clipPath id="SVGID_4_">
			<use xlink:href="#SVGID_3_"  style="overflow:visible;"/>
		</clipPath>
		<rect x="-5" y="-5" class="st1" width="40" height="19"/>
	</g>
</g>
</svg>
